<svg width="1284" height="536" viewBox="0 0 1284 536" fill="none" xmlns="http://www.w3.org/2000/svg">
<path opacity="0.5" d="M0 536H1284V0C1181.09 50.566 793 135 623 330C424.417 557.786 154.917 487.273 0 536Z" fill="url(#paint0_linear)"/>
<path opacity="0.5" d="M364 536H1284V162C1210.26 197.283 938.611 186.567 797.631 313.717C631 464 499 525 364 536Z" fill="url(#paint1_linear)"/>
<path opacity="0.5" d="M656 536H1284V324C1233.67 344 1096.8 389.2 952 410C807.2 430.8 694.333 502.667 656 536Z" fill="url(#paint2_linear)"/>
<defs>
<linearGradient id="paint0_linear" x1="370.07" y1="475.321" x2="1285.82" y2="418.993" gradientUnits="userSpaceOnUse">
<stop stop-color="#2899BD"/>
<stop offset="1" stop-color="#1A2ABD" stop-opacity="0"/>
</linearGradient>
<linearGradient id="paint1_linear" x1="629.159" y1="493.66" x2="1285.17" y2="452.225" gradientUnits="userSpaceOnUse">
<stop stop-color="#34C5BA"/>
<stop offset="1" stop-color="#1ABDB0" stop-opacity="0.43"/>
</linearGradient>
<linearGradient id="paint2_linear" x1="837" y1="512" x2="1284" y2="478" gradientUnits="userSpaceOnUse">
<stop stop-color="#139A90"/>
<stop offset="1" stop-color="#139A90" stop-opacity="0.67"/>
</linearGradient>
</defs>
</svg>
