<svg width="32" height="32" viewBox="0 0 32 32" fill="none" xmlns="http://www.w3.org/2000/svg">
<path d="M26 24.5C26.276 24.5 26.5 24.724 26.5 25H27.5C27.5 24.349 27.0805 23.799 26.5 23.592V22.5H25.5V23.592C24.9195 23.799 24.5 24.349 24.5 25C24.5 25.827 25.173 26.5 26 26.5C26.276 26.5 26.5 26.724 26.5 27C26.5 27.276 26.276 27.5 26 27.5C25.724 27.5 25.5 27.276 25.5 27H24.5C24.5 27.651 24.9195 28.201 25.5 28.408V29.5H26.5V28.408C27.0805 28.201 27.5 27.651 27.5 27C27.5 26.173 26.827 25.5 26 25.5C25.724 25.5 25.5 25.276 25.5 25C25.5 24.724 25.724 24.5 26 24.5Z" fill="#A41F57"/>
<path d="M26 20.5C25.817 20.5 25.636 20.51 25.4575 20.5275C26.1385 19.113 26.5 17.5685 26.5 16C26.5 10.2105 21.7895 5.5 16 5.5C14.4315 5.5 12.887 5.8615 11.4725 6.5425C11.49 6.364 11.5 6.183 11.5 6C11.5 2.9675 9.0325 0.5 6 0.5C2.9675 0.5 0.5 2.9675 0.5 6C0.5 9.0325 2.9675 11.5 6 11.5C6.183 11.5 6.364 11.49 6.5425 11.4725C5.8615 12.887 5.5 14.4315 5.5 16C5.5 21.7895 10.2105 26.5 16 26.5C17.5685 26.5 19.113 26.1385 20.5275 25.4575C20.51 25.636 20.5 25.817 20.5 26C20.5 29.0325 22.9675 31.5 26 31.5C29.0325 31.5 31.5 29.0325 31.5 26C31.5 22.9675 29.0325 20.5 26 20.5ZM16.9045 6.546C20.735 6.91 23.908 9.5565 25.0465 13.108C24.0165 14.0045 22.7165 14.5 21.3475 14.5C20.6045 14.5 20 13.8955 20 13.1525C20 11.9545 19.3535 10.8405 18.3135 10.2465L17.6825 9.886C16.953 9.469 16.5 8.688 16.5 7.8475C16.5 7.3815 16.647 6.93 16.9045 6.546ZM6 10.5C3.5185 10.5 1.5 8.4815 1.5 6C1.5 3.5185 3.5185 1.5 6 1.5C8.4815 1.5 10.5 3.5185 10.5 6C10.5 8.4815 8.4815 10.5 6 10.5ZM6.5 16C6.5 14.3095 6.9615 12.6475 7.8295 11.1805C9.3005 10.6595 10.4865 9.534 11.0815 8.1L12.5805 8.85C13.148 9.133 13.5 9.7025 13.5 10.337V11C13.5 12.103 14.397 13 15.5 13C16.327 13 17 13.673 17 14.5C17 15.327 16.327 16 15.5 16H13.75C12.5095 16 11.5 17.0095 11.5 18.25C11.5 18.9395 10.9395 19.5 10.25 19.5H7.1765C6.7445 18.4155 6.5 17.2365 6.5 16ZM7.6365 20.5H10.25C11.4905 20.5 12.5 19.4905 12.5 18.25C12.5 17.5605 13.0605 17 13.75 17H15.5C16.8785 17 18 15.8785 18 14.5C18 13.1215 16.8785 12 15.5 12C14.9485 12 14.5 11.5515 14.5 11V10.337C14.5 9.3215 13.936 8.409 13.028 7.955L11.956 7.419C13.1595 6.8485 14.4655 6.5365 15.7935 6.5075C15.6085 6.9285 15.5 7.382 15.5 7.8475C15.5 9.0455 16.1465 10.1595 17.1865 10.7535L17.8175 11.114C18.547 11.531 19 12.312 19 13.1525C19 14.447 20.053 15.5 21.3475 15.5C22.794 15.5 24.1745 15.03 25.3195 14.172C25.4355 14.764 25.5 15.3745 25.5 16C25.5 16.854 25.3815 17.7005 25.154 18.5185C24.9405 18.258 24.715 18.0085 24.4795 17.7725C23.659 16.9515 22.568 16.5 21.4075 16.5C20.737 16.5 20.065 16.6585 19.4645 16.9585L19.0875 17.147C18.6255 17.378 18.1085 17.5 17.5925 17.5H17.3015C15.2075 17.5 13.4905 19.2035 13.4745 21.2975C13.469 21.998 13.2055 22.668 12.733 23.1845L11.6065 24.4145C9.9255 23.5335 8.5375 22.168 7.6365 20.5ZM16 25.5C14.788 25.5 13.632 25.263 12.5655 24.8475L13.47 23.86C14.1105 23.161 14.467 22.2535 14.4745 21.3055C14.4865 19.7585 15.755 18.5005 17.3015 18.5005H17.5925C18.263 18.5005 18.935 18.342 19.5355 18.042L19.9125 17.8535C20.3745 17.622 20.8915 17.5 21.4075 17.5C22.288 17.5 23.1495 17.857 23.772 18.4795C24.1305 18.838 24.456 19.2375 24.7555 19.6565C24.588 20.0555 24.3925 20.4435 24.17 20.8195C22.6085 21.3725 21.372 22.6095 20.819 24.1705C19.3525 25.0385 17.6905 25.5 16 25.5ZM26 30.5C23.5185 30.5 21.5 28.4815 21.5 26C21.5 23.5185 23.5185 21.5 26 21.5C28.4815 21.5 30.5 23.5185 30.5 26C30.5 28.4815 28.4815 30.5 26 30.5Z" fill="#A41F57"/>
<path d="M6 4.5C6.276 4.5 6.5 4.724 6.5 5H7.5C7.5 4.349 7.0805 3.799 6.5 3.592V2.5H5.5V3.592C4.9195 3.799 4.5 4.349 4.5 5C4.5 5.827 5.173 6.5 6 6.5C6.276 6.5 6.5 6.724 6.5 7C6.5 7.276 6.276 7.5 6 7.5C5.724 7.5 5.5 7.276 5.5 7H4.5C4.5 7.651 4.9195 8.201 5.5 8.408V9.5H6.5V8.408C7.0805 8.201 7.5 7.651 7.5 7C7.5 6.173 6.827 5.5 6 5.5C5.724 5.5 5.5 5.276 5.5 5C5.5 4.724 5.724 4.5 6 4.5Z" fill="#A41F57"/>
<path d="M22.793 0.5L25.293 3L24.227 4.066C23.3925 3.4895 22.503 2.997 21.571 2.609L21.186 3.532C21.998 3.87 22.775 4.2935 23.508 4.785L22.6465 5.6465L23.3535 6.3535L26.707 3L25.207 1.5H30.5V6.793L29 5.293L25.6465 8.6465L26.3535 9.3535L27.215 8.492C27.7065 9.225 28.13 10.002 28.468 10.814L29.391 10.429C29.003 9.4965 28.51 8.6075 27.934 7.773L29 6.707L31.5 9.207V0.5H22.793Z" fill="#A41F57"/>
<path d="M25.1461 6.14664L24.1462 7.14648L24.8533 7.85358L25.8532 6.85374L25.1461 6.14664Z" fill="#A41F57"/>
<path d="M27.1461 4.14664L26.1462 5.14648L26.8533 5.85358L27.8532 4.85374L27.1461 4.14664Z" fill="#A41F57"/>
<path d="M12.5 13.5H11.5V14.5H12.5V13.5Z" fill="#A41F57"/>
<path d="M9 15.5H8V16.5H9V15.5Z" fill="#A41F57"/>
<path d="M10.5 11.5H9.5V12.5H10.5V11.5Z" fill="#A41F57"/>
<path d="M21.5 18.5H20.5V19.5H21.5V18.5Z" fill="#A41F57"/>
<path d="M18 20H17V21H18V20Z" fill="#A41F57"/>
<path d="M19.5 22.5H18.5V23.5H19.5V22.5Z" fill="#A41F57"/>
<path d="M29.7529 11.3935L28.8049 11.712C28.9179 12.048 29.0184 12.3935 29.1039 12.739L30.0744 12.499C29.9824 12.127 29.8739 11.7555 29.7529 11.3935Z" fill="#A41F57"/>
<path d="M20.6065 2.24698C20.2445 2.12598 19.873 2.01748 19.5015 1.92548L19.2615 2.89598C19.6065 2.98148 19.9525 3.08198 20.2885 3.19498L20.6065 2.24698Z" fill="#A41F57"/>
<path d="M9.3535 26.3535L8.6465 25.6465L5.293 29L6.793 30.5H1.5V25.207L3 26.707L6.3535 23.3535L5.6465 22.6465L4.785 23.508C4.2935 22.775 3.87 21.998 3.532 21.186L2.609 21.571C2.997 22.5035 3.49 23.3925 4.066 24.227L3 25.293L0.5 22.793V31.5H9.207L6.707 29L7.773 27.934C8.6075 28.5105 9.497 29.003 10.429 29.391L10.814 28.468C10.002 28.13 9.225 27.7065 8.492 27.215L9.3535 26.3535Z" fill="#A41F57"/>
<path d="M7.14608 24.1465L6.14624 25.1463L6.85334 25.8534L7.85318 24.8536L7.14608 24.1465Z" fill="#A41F57"/>
<path d="M5.14608 26.1464L4.14624 27.1462L4.85334 27.8533L5.85318 26.8535L5.14608 26.1464Z" fill="#A41F57"/>
<path d="M11.3936 29.753C11.7556 29.874 12.1271 29.9825 12.4986 30.0745L12.7386 29.104C12.3936 29.0185 12.0476 28.918 11.7116 28.805L11.3936 29.753Z" fill="#A41F57"/>
<path d="M2.89653 19.261L1.92603 19.501C2.01803 19.8725 2.12603 20.244 2.24753 20.606L3.19553 20.2875C3.08253 19.952 2.98203 19.6065 2.89653 19.261Z" fill="#A41F57"/>
</svg>
