<svg width="1440" height="642" viewBox="0 0 1440 642" fill="none" xmlns="http://www.w3.org/2000/svg">
<path opacity="0.5" d="M765.003 348.888C630.769 388.632 441.07 552.024 363 628.752L1442 642V21.0001C1394 -7.99997 1248 -22 1140 95.0001C1063.2 178.203 932.796 299.208 765.003 348.888Z" fill="url(#paint0_linear)"/>
<path opacity="0.5" d="M861 465C745.8 489 583 587.667 516 634L1442 642V267C1378 315 1226 383 1172 399C1082.44 425.536 1005 435 861 465Z" fill="url(#paint1_linear)"/>
<path opacity="0.5" d="M1284 636H0V100C102.911 150.566 491 235 661 430C859.583 657.786 1129.08 587.273 1284 636Z" fill="url(#paint2_linear)"/>
<path opacity="0.5" d="M920 636H0V262C73.7367 297.283 345.389 286.567 486.369 413.717C653 564 785 625 920 636Z" fill="url(#paint3_linear)"/>
<path opacity="0.5" d="M628 636H0V424C50.3333 444 187.2 489.2 332 510C476.8 530.8 589.667 602.667 628 636Z" fill="url(#paint4_linear)"/>
<defs>
<linearGradient id="paint0_linear" x1="605" y1="648" x2="1498.94" y2="159.396" gradientUnits="userSpaceOnUse">
<stop stop-color="#28ABBD"/>
<stop offset="1" stop-color="#1A79BD" stop-opacity="0"/>
</linearGradient>
<linearGradient id="paint1_linear" x1="1175.11" y1="599.547" x2="514.841" y2="557.682" gradientUnits="userSpaceOnUse">
<stop stop-color="#139A90"/>
<stop offset="0.410033" stop-color="#139A90" stop-opacity="0"/>
</linearGradient>
<linearGradient id="paint2_linear" x1="913.93" y1="575.321" x2="-1.82279" y2="518.993" gradientUnits="userSpaceOnUse">
<stop stop-color="#2899BD"/>
<stop offset="1" stop-color="#1A2ABD" stop-opacity="0"/>
</linearGradient>
<linearGradient id="paint3_linear" x1="654.841" y1="593.66" x2="-1.17138" y2="552.225" gradientUnits="userSpaceOnUse">
<stop stop-color="#34C5BA"/>
<stop offset="1" stop-color="#1ABDB0" stop-opacity="0.43"/>
</linearGradient>
<linearGradient id="paint4_linear" x1="447" y1="612" x2="1.20469e-06" y2="578" gradientUnits="userSpaceOnUse">
<stop stop-color="#139A90"/>
<stop offset="1" stop-color="#139A90" stop-opacity="0.67"/>
</linearGradient>
</defs>
</svg>
