<svg width="103" height="35" viewBox="0 0 103 35" fill="none" xmlns="http://www.w3.org/2000/svg">
<path d="M43.8318 17.9488C43.8318 22.8069 40.0488 26.3868 35.4063 26.3868C30.7637 26.3868 26.9807 22.8069 26.9807 17.9488C26.9807 13.0564 30.7637 9.51074 35.4063 9.51074C40.0488 9.51074 43.8318 13.0564 43.8318 17.9488ZM40.1435 17.9488C40.1435 14.9129 37.951 12.8357 35.4063 12.8357C32.8616 12.8357 30.669 14.9129 30.669 17.9488C30.669 20.9542 32.8616 23.0618 35.4063 23.0618C37.951 23.0618 40.1435 20.9504 40.1435 17.9488Z" fill="#EA4335"/>
<path d="M62.0083 17.9488C62.0083 22.8069 58.2253 26.3868 53.5828 26.3868C48.9402 26.3868 45.1572 22.8069 45.1572 17.9488C45.1572 13.0602 48.9402 9.51074 53.5828 9.51074C58.2253 9.51074 62.0083 13.0564 62.0083 17.9488ZM58.32 17.9488C58.32 14.9129 56.1275 12.8357 53.5828 12.8357C51.0381 12.8357 48.8455 14.9129 48.8455 17.9488C48.8455 20.9542 51.0381 23.0618 53.5828 23.0618C56.1275 23.0618 58.32 20.9504 58.32 17.9488Z" fill="#FBBC05"/>
<path d="M79.4275 10.0205V25.1694C79.4275 31.401 75.7695 33.9461 71.445 33.9461C67.3742 33.9461 64.9242 31.2107 64.0002 28.9738L67.2114 27.6309C67.7832 29.0042 69.1843 30.6249 71.4412 30.6249C74.2093 30.6249 75.9247 28.9091 75.9247 25.6792V24.4656H75.796C74.9705 25.489 73.38 26.383 71.3731 26.383C67.1735 26.383 63.3262 22.708 63.3262 17.9792C63.3262 13.2162 67.1735 9.51074 71.3731 9.51074C73.3763 9.51074 74.9667 10.4048 75.796 11.3977H75.9247V10.0243H79.4275V10.0205ZM76.186 17.9792C76.186 15.008 74.2131 12.8357 71.7025 12.8357C69.1578 12.8357 67.0258 15.008 67.0258 17.9792C67.0258 20.92 69.1578 23.0618 71.7025 23.0618C74.2131 23.0618 76.186 20.92 76.186 17.9792Z" fill="#4285F4"/>
<path d="M85.2022 1.14111V25.8694H81.6047V1.14111H85.2022Z" fill="#34A853"/>
<path d="M99.2208 20.7259L102.084 22.6432C101.16 24.0166 98.933 26.3829 95.0857 26.3829C90.3143 26.3829 86.751 22.6775 86.751 17.9449C86.751 12.9269 90.3446 9.50684 94.6729 9.50684C99.0315 9.50684 101.163 12.9916 101.86 14.8748L102.243 15.8335L91.0149 20.5052C91.8745 22.1981 93.2112 23.0617 95.0857 23.0617C96.9639 23.0617 98.2665 22.1335 99.2208 20.7259ZM90.409 17.69L97.9144 14.559C97.5016 13.5052 96.2595 12.771 94.7979 12.771C92.9234 12.771 90.3143 14.4335 90.409 17.69Z" fill="#EA4335"/>
<path d="M13.3636 15.7537V12.1738H25.3715C25.4889 12.7977 25.5495 13.5358 25.5495 14.3347C25.5495 17.0206 24.8186 20.3418 22.4632 22.7081C20.1722 25.1048 17.2451 26.3831 13.3674 26.3831C6.18015 26.3831 0.136475 20.5015 0.136475 13.2809C0.136475 6.06023 6.18015 0.178711 13.3674 0.178711C17.3435 0.178711 20.176 1.7461 22.3042 3.78904L19.7898 6.31512C18.2637 4.87708 16.1961 3.7586 13.3636 3.7586C8.11519 3.7586 4.01034 8.00806 4.01034 13.2809C4.01034 18.5537 8.11519 22.8032 13.3636 22.8032C16.7679 22.8032 18.7068 21.4298 19.9488 20.182C20.9561 19.17 21.6188 17.7244 21.8801 15.7499L13.3636 15.7537Z" fill="#4285F4"/>
</svg>
