<svg width="35" height="35" viewBox="0 0 35 35" fill="none" xmlns="http://www.w3.org/2000/svg">
<g clip-path="url(#clip0)">
<path d="M6.60883 28.8688C6.55455 29.146 6.28521 29.3281 6.00809 29.2739C5.73103 29.2196 5.54885 28.9503 5.60312 28.6731C5.68064 28.2856 5.88989 27.9465 6.18445 27.7043C6.47512 27.466 6.84521 27.3226 7.24635 27.3226C7.7075 27.3226 8.12606 27.5105 8.42835 27.8128C8.73262 28.1151 8.91862 28.5337 8.91862 28.9948C8.91862 29.4463 8.74041 29.8552 8.45166 30.1575C8.74041 30.4579 8.91862 30.8667 8.91862 31.3182C8.91862 31.7793 8.73262 32.1979 8.42835 32.5002C8.12606 32.8044 7.7075 32.9905 7.24635 32.9905C6.82778 32.9905 6.44415 32.8355 6.14952 32.5797C5.78523 32.2638 5.57209 31.7987 5.57209 31.3182C5.57209 31.0333 5.80082 30.8046 6.08567 30.8046C6.36855 30.8046 6.59721 31.0333 6.59721 31.3182C6.59721 31.5081 6.67274 31.6805 6.82006 31.8084C6.93244 31.9053 7.0816 31.9654 7.24635 31.9654C7.42463 31.9654 7.58739 31.8937 7.7036 31.7755C7.8218 31.6593 7.89351 31.4964 7.89351 31.3182C7.89351 31.138 7.8218 30.9771 7.7036 30.8589C7.58158 30.7368 7.41875 30.669 7.24635 30.669C6.96341 30.669 6.73283 30.4404 6.73283 30.1575C6.73283 29.8726 6.96341 29.644 7.24635 29.644C7.42463 29.644 7.58739 29.5723 7.7036 29.4541C7.8218 29.3379 7.89351 29.175 7.89351 28.9948C7.89351 28.8166 7.8218 28.6538 7.7036 28.5376C7.58739 28.4194 7.42463 28.3477 7.24635 28.3477C7.08741 28.3477 6.94399 28.402 6.83359 28.493C6.71923 28.586 6.63979 28.7178 6.60883 28.8688ZM18.2121 4.68166L18.8419 5.70671L20.0104 5.98767C20.2333 6.04194 20.4135 6.18146 20.524 6.36166C20.6344 6.54384 20.6751 6.76669 20.6228 6.98954C20.6053 7.05735 20.584 7.11744 20.5569 7.17165C20.5278 7.22784 20.491 7.28212 20.4464 7.33441L19.6675 8.24906L19.7604 9.45444L19.7623 9.47188C19.774 9.69274 19.6964 9.90015 19.5588 10.059C19.4212 10.2199 19.2217 10.3283 18.993 10.3458C18.9175 10.3516 18.8438 10.3458 18.7741 10.3322C18.7043 10.3187 18.6365 10.2973 18.5745 10.2663L17.5009 9.82263L16.3848 10.2838C16.1717 10.371 15.945 10.3652 15.7512 10.2838C15.5535 10.2004 15.3888 10.0435 15.3016 9.83233C15.2765 9.77225 15.259 9.71031 15.2493 9.64824C15.2376 9.58241 15.2357 9.51651 15.2396 9.45451L15.3326 8.24913L14.5536 7.33448C14.4044 7.1601 14.3405 6.94306 14.3559 6.73189C14.3734 6.51875 14.4703 6.3134 14.6447 6.1641C14.7029 6.1157 14.761 6.07694 14.821 6.04591C14.8346 6.0401 14.8481 6.03429 14.8617 6.02841C14.916 6.00708 14.9683 5.98972 15.0226 5.9781L15.042 5.97618L16.1601 5.70486L16.7917 4.6779V4.67599C16.9119 4.48027 17.0999 4.35237 17.3072 4.30199C17.5145 4.25353 17.7413 4.28265 17.9369 4.40275C17.9525 4.41246 17.968 4.42408 17.9815 4.43563C18.0222 4.46284 18.059 4.49572 18.0919 4.53065C18.1385 4.57707 18.1792 4.62738 18.2121 4.68166ZM18.0784 6.42175L17.499 5.48003L16.9216 6.41983V6.41792C16.8538 6.53023 16.7434 6.61562 16.6058 6.6485L15.5342 6.90819L16.2318 7.72591C16.3267 7.82667 16.3829 7.96619 16.3713 8.11733L16.286 9.22004L17.3053 8.79758C17.4254 8.74904 17.5649 8.74515 17.6947 8.79758L18.716 9.22004L18.6288 8.11733H18.6307C18.621 7.98752 18.6598 7.85388 18.7509 7.74724L19.4659 6.90826L18.4331 6.65827C18.2916 6.63496 18.1598 6.55354 18.0784 6.42175ZM21.1189 9.27028C21.2332 9.01257 21.5354 8.89629 21.7932 9.01257C22.0509 9.12687 22.1672 9.42915 22.0509 9.68687C21.7274 10.4116 21.3746 11.0627 21.02 11.6246C21.2991 11.5685 21.5897 11.4774 21.8824 11.3514C22.5141 11.0782 23.1458 10.6499 23.6922 10.0783C24.0023 9.75475 24.2659 9.41363 24.479 9.06678C24.6979 8.71213 24.8666 8.34976 24.9847 7.99128C25.1552 7.47202 25.2114 6.97402 25.1475 6.53796C25.0894 6.15433 24.9382 5.82299 24.6824 5.58072C24.4653 5.37346 24.2135 5.25328 23.9422 5.19511C23.762 5.15635 23.5721 5.14473 23.3783 5.15061C23.2659 5.92375 23.0954 6.69108 22.8764 7.44099C22.7969 7.7123 22.5141 7.86926 22.2428 7.78982C21.9714 7.71231 21.8165 7.42745 21.8939 7.15613C22.0935 6.47985 22.2543 5.759 22.3648 5.00719C22.4424 4.48198 22.4927 3.94331 22.5141 3.39302H12.488C12.5539 5.22806 12.9706 6.95652 13.5383 8.43698C14.0325 9.72754 15.0594 11.8048 16.2279 12.7718C17.4526 13.7833 16.6387 14.9789 15.7454 16.2888C15.3424 16.8818 14.916 17.5057 14.7397 18.0813H20.2604C20.084 17.5057 19.6597 16.8818 19.2547 16.2888C18.3633 14.9789 17.5475 13.7833 18.7721 12.7718C19.1248 12.4811 19.5376 12.0025 19.9619 11.3747C20.3592 10.7856 20.7584 10.0726 21.1189 9.27028ZM20.2488 12.7079C19.962 13.0605 19.683 13.3473 19.4252 13.5605C18.9195 13.979 19.4834 14.8066 20.0996 15.7114C20.6111 16.4613 21.1498 17.252 21.3164 18.0813H22.6283C22.9112 18.0813 23.1398 18.3119 23.1398 18.5948V21.3291H32.881C33.1658 21.3291 33.3946 21.5577 33.3946 21.8406V23.8442C33.3946 24.1272 33.1658 24.3558 32.881 24.3558C32.598 24.3558 32.3694 24.1271 32.3694 23.8442V22.3541H23.1399V33.9749H32.3695V26.1657C32.3695 25.8828 32.5982 25.6542 32.881 25.6542C33.1659 25.6542 33.3946 25.8828 33.3946 26.1657V34.4885C33.3946 34.7713 33.1659 35 32.881 35C22.6283 35 12.3736 35 2.11898 35C1.83604 35 1.60547 34.7713 1.60547 34.4885V30.2273C1.60547 29.9443 1.83604 29.7158 2.11898 29.7158C2.40192 29.7158 2.63052 29.9444 2.63052 30.2273V33.9749H11.8601V26.3382H2.63059V27.9059C2.63059 28.1888 2.40192 28.4174 2.11905 28.4174C1.83611 28.4174 1.60554 28.1887 1.60554 27.9059V25.8247C1.60554 25.5417 1.83611 25.3131 2.11905 25.3131H11.8602V23.2998C11.8602 23.0169 12.0889 22.7863 12.3737 22.7863C12.6567 22.7863 12.8853 23.0169 12.8853 23.2998V33.975H22.1149V19.1083H20.8572H14.1428H12.8852V20.9763C12.8852 21.2612 12.6565 21.4899 12.3736 21.4899C12.0889 21.4899 11.8601 21.2612 11.8601 20.9763V18.5948C11.8601 18.3118 12.0889 18.0813 12.3736 18.0813H13.6836C13.8522 17.2519 14.3909 16.4613 14.9005 15.7114C15.5187 14.8065 16.0807 13.9789 15.5768 13.5604C15.3211 13.3492 15.0421 13.0625 14.7552 12.7078C14.1177 12.7369 13.4123 12.5934 12.7128 12.2931C11.9629 11.9695 11.2149 11.4599 10.5657 10.7836C9.64918 9.82249 9.06977 8.70044 8.87802 7.66186C8.67068 6.55156 8.89928 5.52255 9.6124 4.83854C9.9786 4.48971 10.3991 4.29017 10.8468 4.19521C11.0618 4.14866 11.2828 4.1274 11.5036 4.12542C11.4823 3.858 11.4669 3.58866 11.4591 3.31543C11.1956 3.2321 10.9572 3.08677 10.7673 2.89495C10.4592 2.58877 10.2693 2.16433 10.2693 1.69736C10.2693 1.23033 10.4592 0.805957 10.7673 0.497861C11.0734 0.191885 11.4978 0 11.9648 0H23.0352C23.5022 0 23.9266 0.191885 24.2328 0.497998C24.5409 0.806094 24.7308 1.23047 24.7308 1.6975C24.7308 2.16446 24.5409 2.58884 24.2328 2.89509C24.0429 3.08697 23.8065 3.2323 23.541 3.31557C23.5333 3.5888 23.5177 3.85813 23.4965 4.12556C23.7173 4.12747 23.9383 4.1488 24.1533 4.19535C24.6009 4.29037 25.0215 4.48991 25.3878 4.83868C25.816 5.24952 26.0699 5.7843 26.1609 6.39078C26.2481 6.98182 26.1765 7.64066 25.9575 8.30724C25.8179 8.73742 25.6125 9.1754 25.349 9.60367C25.0952 10.0125 24.7909 10.4098 24.4344 10.7838C23.7871 11.46 23.0372 11.9697 22.2873 12.2914C21.5896 12.5936 20.8843 12.7369 20.2488 12.7079ZM13.982 11.6266C13.4821 10.836 12.9918 9.87882 12.581 8.80141C12.1585 7.69679 11.8136 6.46242 11.6198 5.15067C11.428 5.14479 11.2381 5.15642 11.0579 5.19518C10.7866 5.25335 10.5347 5.37346 10.3177 5.58079C9.87196 6.00708 9.73825 6.70086 9.8816 7.47783C10.0405 8.33048 10.5289 9.26256 11.3079 10.0784C11.8542 10.65 12.486 11.0783 13.1177 11.3515C13.4123 11.4774 13.703 11.5704 13.982 11.6266ZM11.9648 2.36797H23.0352C23.2193 2.36797 23.386 2.29243 23.508 2.17027C23.6301 2.04825 23.7057 1.88152 23.7057 1.6975C23.7057 1.51341 23.6302 1.34483 23.508 1.22274C23.386 1.10072 23.2193 1.02512 23.0352 1.02512H11.9648C11.7807 1.02512 11.614 1.10072 11.4919 1.22274C11.3699 1.34483 11.2943 1.51341 11.2943 1.6975C11.2943 1.88152 11.3699 2.04825 11.4919 2.17027C11.614 2.29236 11.7807 2.36797 11.9648 2.36797ZM29.1025 27.8419C29.3834 27.84 29.616 28.0647 29.6179 28.3476C29.6218 28.6286 29.3951 28.8611 29.1141 28.863C29.1083 28.863 26.8217 28.894 26.6337 28.8301C26.2617 28.7061 26.1455 28.4367 26.3218 28.0802C26.3702 27.9756 26.4573 27.8612 26.6143 27.6558C26.8526 27.3439 27.2867 26.7742 27.9921 25.7664C28.1064 25.6017 28.1956 25.4525 28.2634 25.3169C28.4126 25.0108 28.4881 24.7162 28.213 24.441C28.0968 24.3228 27.9339 24.2511 27.7557 24.2511C27.5969 24.2511 27.4534 24.3054 27.343 24.3964C27.2286 24.4894 27.1473 24.6212 27.1182 24.7723C27.0639 25.0495 26.7946 25.2316 26.5175 25.1774C26.2403 25.1231 26.0582 24.8538 26.1125 24.5767C26.19 24.1892 26.3993 23.8481 26.6938 23.6078C26.9845 23.3695 27.3546 23.2261 27.7557 23.2261C28.2169 23.2261 28.6354 23.4121 28.9377 23.7163C29.3136 24.0922 29.5113 24.6639 29.3912 25.189C29.3505 25.3654 29.2827 25.5572 29.18 25.7664C29.0908 25.9486 28.9746 26.1444 28.8292 26.3517C28.3429 27.0454 27.994 27.524 27.7441 27.8573C28.3544 27.8516 29.0985 27.8419 29.1025 27.8419ZM17.0146 21.0054C16.7317 21.0054 16.503 20.7748 16.503 20.4919C16.503 20.2089 16.7318 19.9783 17.0146 19.9783H17.9854C18.2683 19.9783 18.4969 20.2089 18.4969 20.4919V25.0281C18.4969 25.7024 17.4719 25.7024 17.4719 25.0281V21.0053H17.0146V21.0054Z" fill="#7835DB"/>
</g>
<defs>
<clipPath id="clip0">
<rect width="35" height="35" fill="white"/>
</clipPath>
</defs>
</svg>
