<svg width="363" height="203" viewBox="0 0 363 203" fill="none" xmlns="http://www.w3.org/2000/svg">
<circle cx="68.5" cy="87.5" r="68" fill="#ECF0F1" stroke="#D7D7D7"/>
<mask id="mask0" mask-type="alpha" maskUnits="userSpaceOnUse" x="0" y="19" width="137" height="137">
<circle cx="68.5" cy="87.5" r="68" fill="#8BC6D5" stroke="#D7D7D7"/>
</mask>
<g mask="url(#mask0)">
<path d="M173 38.5002L77.5 -6.49987L-8 25.5L-21 91.0001L-1.50003 155L82.4998 191L150.5 139.5L173 38.5002Z" fill="#1EA4A2"/>
<path d="M68.9006 90.7046V18.5994L106.956 21.4035L166.5 51.8479L144.5 90.7046H68.9006Z" fill="#FBBC05"/>
<path d="M105.438 66H98.7451V64.8584L102.061 61.2422C102.539 60.709 102.879 60.2646 103.079 59.9092C103.284 59.5492 103.387 59.1891 103.387 58.8291C103.387 58.3551 103.252 57.9723 102.983 57.6807C102.719 57.389 102.361 57.2432 101.91 57.2432C101.372 57.2432 100.955 57.4072 100.659 57.7354C100.363 58.0635 100.215 58.5124 100.215 59.082H98.5537C98.5537 58.4759 98.6904 57.9313 98.9639 57.4482C99.2419 56.9606 99.6361 56.5824 100.146 56.3135C100.661 56.0446 101.254 55.9102 101.924 55.9102C102.89 55.9102 103.651 56.154 104.207 56.6416C104.768 57.1247 105.048 57.7946 105.048 58.6514C105.048 59.1481 104.907 59.6699 104.624 60.2168C104.346 60.7591 103.888 61.3766 103.25 62.0693L100.816 64.6738H105.438V66ZM107.146 61.0645L107.687 56.0469H113.032V57.4824H109.067L108.794 59.8613C109.254 59.597 109.774 59.4648 110.353 59.4648C111.3 59.4648 112.036 59.7679 112.561 60.374C113.089 60.9801 113.354 61.7959 113.354 62.8213C113.354 63.833 113.062 64.6396 112.479 65.2412C111.895 65.8382 111.095 66.1367 110.079 66.1367C109.168 66.1367 108.411 65.8792 107.81 65.3643C107.213 64.8447 106.889 64.1611 106.839 63.3135H108.445C108.509 63.7965 108.682 64.168 108.965 64.4277C109.247 64.6829 109.617 64.8105 110.072 64.8105C110.583 64.8105 110.979 64.6283 111.262 64.2637C111.549 63.8991 111.692 63.4023 111.692 62.7734C111.692 62.1673 111.535 61.6888 111.221 61.3379C110.906 60.9824 110.473 60.8047 109.922 60.8047C109.621 60.8047 109.366 60.8457 109.156 60.9277C108.947 61.0052 108.719 61.1602 108.473 61.3926L107.146 61.0645ZM114.591 57.9609C114.591 57.3594 114.785 56.8672 115.172 56.4844C115.559 56.097 116.067 55.9033 116.696 55.9033C117.334 55.9033 117.845 56.097 118.228 56.4844C118.615 56.8672 118.809 57.3708 118.809 57.9951V58.4873C118.809 59.0843 118.615 59.5742 118.228 59.957C117.845 60.3398 117.339 60.5312 116.71 60.5312C116.095 60.5312 115.587 60.3444 115.186 59.9707C114.789 59.5924 114.591 59.0843 114.591 58.4463V57.9609ZM115.753 58.4873C115.753 58.8018 115.84 59.057 116.013 59.2529C116.19 59.4443 116.423 59.54 116.71 59.54C116.993 59.54 117.22 59.4443 117.394 59.2529C117.567 59.057 117.653 58.7926 117.653 58.46V57.9609C117.653 57.6465 117.564 57.3913 117.387 57.1953C117.214 56.9993 116.983 56.9014 116.696 56.9014C116.409 56.9014 116.179 57.0016 116.006 57.2021C115.837 57.3981 115.753 57.6579 115.753 57.9814V58.4873ZM119.376 63.5596C119.376 62.9489 119.574 62.4544 119.971 62.0762C120.367 61.6979 120.873 61.5088 121.488 61.5088C122.108 61.5088 122.614 61.6979 123.006 62.0762C123.402 62.4544 123.601 62.9648 123.601 63.6074V64.0928C123.601 64.6852 123.409 65.1751 123.026 65.5625C122.648 65.9453 122.14 66.1367 121.502 66.1367C120.864 66.1367 120.349 65.9476 119.957 65.5693C119.57 65.1865 119.376 64.6829 119.376 64.0586V63.5596ZM120.538 64.0928C120.538 64.4027 120.627 64.6579 120.805 64.8584C120.987 65.0544 121.219 65.1523 121.502 65.1523C121.794 65.1523 122.021 65.0589 122.186 64.8721C122.354 64.6807 122.438 64.4141 122.438 64.0723V63.5596C122.438 63.2406 122.35 62.9854 122.172 62.7939C121.994 62.6025 121.766 62.5068 121.488 62.5068C121.206 62.5068 120.976 62.6025 120.798 62.7939C120.625 62.9854 120.538 63.2497 120.538 63.5869V64.0928ZM117.052 65.2549L116.197 64.7627L121.058 56.9834L121.912 57.4756L117.052 65.2549Z" fill="#3D3D3D"/>
<path d="M101.5 173L153 90.3043L69.0001 90.3042L-31 42.5L-19.5 159L101.5 173Z" fill="#F04B01"/>
<path d="M56.9131 131.999V133.373H56.708C55.7783 133.387 55.0355 133.642 54.4795 134.139C53.9235 134.635 53.5931 135.34 53.4883 136.251C54.0215 135.69 54.7028 135.41 55.5322 135.41C56.4118 135.41 57.1045 135.72 57.6104 136.34C58.1208 136.96 58.376 137.759 58.376 138.739C58.376 139.751 58.0775 140.571 57.4805 141.2C56.888 141.825 56.1087 142.137 55.1426 142.137C54.1491 142.137 53.3424 141.77 52.7227 141.036C52.1074 140.302 51.7998 139.341 51.7998 138.151V137.584C51.7998 135.839 52.2236 134.471 53.0713 133.482C53.9235 132.493 55.1471 131.999 56.7422 131.999H56.9131ZM55.1289 136.75C54.7643 136.75 54.4294 136.853 54.124 137.058C53.8232 137.263 53.6022 137.536 53.4609 137.878V138.384C53.4609 139.122 53.6159 139.71 53.9258 140.147C54.2357 140.58 54.6367 140.797 55.1289 140.797C55.6211 140.797 56.0107 140.612 56.2979 140.243C56.585 139.874 56.7285 139.389 56.7285 138.787C56.7285 138.186 56.5827 137.696 56.291 137.317C55.9993 136.939 55.612 136.75 55.1289 136.75ZM66.1895 137.81C66.1895 139.241 65.9206 140.321 65.3828 141.05C64.8496 141.774 64.0361 142.137 62.9424 142.137C61.8669 142.137 61.0557 141.784 60.5088 141.077C59.9665 140.366 59.6885 139.316 59.6748 137.926V136.203C59.6748 134.772 59.9414 133.699 60.4746 132.983C61.0124 132.268 61.8304 131.91 62.9287 131.91C64.0179 131.91 64.8291 132.259 65.3623 132.956C65.9001 133.653 66.1758 134.697 66.1895 136.087V137.81ZM64.5283 135.95C64.5283 135.016 64.4007 134.332 64.1455 133.899C63.8903 133.462 63.4847 133.243 62.9287 133.243C62.3864 133.243 61.9876 133.451 61.7324 133.865C61.4772 134.275 61.3428 134.918 61.3291 135.793V138.049C61.3291 138.979 61.459 139.671 61.7188 140.127C61.9785 140.583 62.3864 140.811 62.9424 140.811C63.4756 140.811 63.8698 140.601 64.125 140.182C64.3802 139.758 64.5146 139.097 64.5283 138.199V135.95ZM67.5908 133.961C67.5908 133.359 67.7845 132.867 68.1719 132.484C68.5592 132.097 69.0674 131.903 69.6963 131.903C70.3343 131.903 70.8447 132.097 71.2275 132.484C71.6149 132.867 71.8086 133.371 71.8086 133.995V134.487C71.8086 135.084 71.6149 135.574 71.2275 135.957C70.8447 136.34 70.3389 136.531 69.71 136.531C69.0947 136.531 68.5866 136.344 68.1855 135.971C67.7891 135.592 67.5908 135.084 67.5908 134.446V133.961ZM68.7529 134.487C68.7529 134.802 68.8395 135.057 69.0127 135.253C69.1904 135.444 69.4229 135.54 69.71 135.54C69.9925 135.54 70.2204 135.444 70.3936 135.253C70.5667 135.057 70.6533 134.793 70.6533 134.46V133.961C70.6533 133.646 70.5645 133.391 70.3867 133.195C70.2135 132.999 69.9834 132.901 69.6963 132.901C69.4092 132.901 69.179 133.002 69.0059 133.202C68.8372 133.398 68.7529 133.658 68.7529 133.981V134.487ZM72.376 139.56C72.376 138.949 72.5742 138.454 72.9707 138.076C73.3672 137.698 73.873 137.509 74.4883 137.509C75.1081 137.509 75.6139 137.698 76.0059 138.076C76.4023 138.454 76.6006 138.965 76.6006 139.607V140.093C76.6006 140.685 76.4092 141.175 76.0264 141.562C75.6481 141.945 75.14 142.137 74.502 142.137C73.8639 142.137 73.349 141.948 72.957 141.569C72.5697 141.187 72.376 140.683 72.376 140.059V139.56ZM73.5381 140.093C73.5381 140.403 73.627 140.658 73.8047 140.858C73.987 141.054 74.2194 141.152 74.502 141.152C74.7936 141.152 75.0215 141.059 75.1855 140.872C75.3542 140.681 75.4385 140.414 75.4385 140.072V139.56C75.4385 139.241 75.3496 138.985 75.1719 138.794C74.9941 138.603 74.7663 138.507 74.4883 138.507C74.2057 138.507 73.9756 138.603 73.7979 138.794C73.6247 138.985 73.5381 139.25 73.5381 139.587V140.093ZM70.0518 141.255L69.1973 140.763L74.0576 132.983L74.9121 133.476L70.0518 141.255Z" fill="white"/>
</g>
<circle cx="68.5" cy="87.5" r="34" fill="white" stroke="#D7D7D7"/>
<path d="M71.0693 96.1465H68.96V93H60.5312V96.1465H58.3867L58.3164 91.2246H59.3447C59.8545 90.7324 60.2617 90.0176 60.5664 89.0801C60.8711 88.1367 61.0674 87.0703 61.1553 85.8809L61.4893 80.2031H69.5576V91.2246H71.1836L71.0693 96.1465ZM61.8584 91.2246H67.3428V81.9961H63.6074L63.3965 85.5996C63.2383 88.0078 62.7256 89.8828 61.8584 91.2246ZM82.8555 86.9355C82.8555 88.1895 82.6387 89.291 82.2051 90.2402C81.7715 91.1836 81.1504 91.9102 80.3418 92.4199C79.5391 92.9238 78.6133 93.1758 77.5645 93.1758C76.5273 93.1758 75.6016 92.9238 74.7871 92.4199C73.9785 91.9102 73.3516 91.1865 72.9062 90.249C72.4668 89.3115 72.2441 88.2305 72.2383 87.0059V86.2852C72.2383 85.0371 72.458 83.9355 72.8975 82.9805C73.3428 82.0254 73.9668 81.2959 74.7695 80.792C75.5781 80.2822 76.5039 80.0273 77.5469 80.0273C78.5898 80.0273 79.5127 80.2793 80.3154 80.7832C81.124 81.2812 81.748 82.002 82.1875 82.9453C82.627 83.8828 82.8496 84.9756 82.8555 86.2236V86.9355ZM80.6318 86.2676C80.6318 84.8496 80.3623 83.7627 79.8232 83.0068C79.29 82.251 78.5312 81.873 77.5469 81.873C76.5859 81.873 75.833 82.251 75.2881 83.0068C74.749 83.7568 74.4736 84.8203 74.4619 86.1973V86.9355C74.4619 88.3418 74.7344 89.4287 75.2793 90.1963C75.8301 90.9639 76.5918 91.3477 77.5645 91.3477C78.5488 91.3477 79.3047 90.9727 79.832 90.2227C80.3652 89.4727 80.6318 88.377 80.6318 86.9355V86.2676Z" fill="#C8C8C8"/>
<path d="M178 88.5L168 82.7265V94.2735L178 88.5ZM152 89.5H169V87.5H152V89.5Z" fill="#C8C8C8"/>
<circle cx="277.5" cy="85.5" r="85" fill="#ECF0F1" stroke="#D7D7D7"/>
<mask id="mask1" mask-type="alpha" maskUnits="userSpaceOnUse" x="192" y="0" width="171" height="171">
<circle cx="277.5" cy="85.5" r="85" fill="#8BC6D5" stroke="#D7D7D7"/>
</mask>
<g mask="url(#mask1)">
<path d="M381 34.5002L285.5 -10.4999L200 21.5L187 87.0001L206.5 151L290.5 187L358.5 135.5L381 34.5002Z" fill="#1EA4A2"/>
<path d="M278 89.5V-0.5L283 -2L368 13L354.5 30.5L278 89.5Z" fill="#FBBC05"/>
<path d="M279.5 92.0001L196 197.5L357 171L378.5 3.50019L279.5 92.0001Z" fill="#F04B01"/>
</g>
<path d="M315.364 132.452H316.602V133.785H315.364V136H313.703V133.785H309.403L309.355 132.773L313.648 126.047H315.364V132.452ZM311.099 132.452H313.703V128.296L313.58 128.515L311.099 132.452ZM324.189 131.81C324.189 133.241 323.921 134.321 323.383 135.05C322.85 135.774 322.036 136.137 320.942 136.137C319.867 136.137 319.056 135.784 318.509 135.077C317.966 134.366 317.688 133.316 317.675 131.926V130.203C317.675 128.772 317.941 127.699 318.475 126.983C319.012 126.268 319.83 125.91 320.929 125.91C322.018 125.91 322.829 126.259 323.362 126.956C323.9 127.653 324.176 128.697 324.189 130.087V131.81ZM322.528 129.95C322.528 129.016 322.401 128.332 322.146 127.899C321.89 127.462 321.485 127.243 320.929 127.243C320.386 127.243 319.988 127.451 319.732 127.865C319.477 128.275 319.343 128.918 319.329 129.793V132.049C319.329 132.979 319.459 133.671 319.719 134.127C319.979 134.583 320.386 134.811 320.942 134.811C321.476 134.811 321.87 134.601 322.125 134.182C322.38 133.758 322.515 133.097 322.528 132.199V129.95ZM325.591 127.961C325.591 127.359 325.785 126.867 326.172 126.484C326.559 126.097 327.067 125.903 327.696 125.903C328.334 125.903 328.845 126.097 329.228 126.484C329.615 126.867 329.809 127.371 329.809 127.995V128.487C329.809 129.084 329.615 129.574 329.228 129.957C328.845 130.34 328.339 130.531 327.71 130.531C327.095 130.531 326.587 130.344 326.186 129.971C325.789 129.592 325.591 129.084 325.591 128.446V127.961ZM326.753 128.487C326.753 128.802 326.84 129.057 327.013 129.253C327.19 129.444 327.423 129.54 327.71 129.54C327.993 129.54 328.22 129.444 328.394 129.253C328.567 129.057 328.653 128.793 328.653 128.46V127.961C328.653 127.646 328.564 127.391 328.387 127.195C328.214 126.999 327.983 126.901 327.696 126.901C327.409 126.901 327.179 127.002 327.006 127.202C326.837 127.398 326.753 127.658 326.753 127.981V128.487ZM330.376 133.56C330.376 132.949 330.574 132.454 330.971 132.076C331.367 131.698 331.873 131.509 332.488 131.509C333.108 131.509 333.614 131.698 334.006 132.076C334.402 132.454 334.601 132.965 334.601 133.607V134.093C334.601 134.685 334.409 135.175 334.026 135.562C333.648 135.945 333.14 136.137 332.502 136.137C331.864 136.137 331.349 135.948 330.957 135.569C330.57 135.187 330.376 134.683 330.376 134.059V133.56ZM331.538 134.093C331.538 134.403 331.627 134.658 331.805 134.858C331.987 135.054 332.219 135.152 332.502 135.152C332.794 135.152 333.021 135.059 333.186 134.872C333.354 134.681 333.438 134.414 333.438 134.072V133.56C333.438 133.241 333.35 132.985 333.172 132.794C332.994 132.603 332.766 132.507 332.488 132.507C332.206 132.507 331.976 132.603 331.798 132.794C331.625 132.985 331.538 133.25 331.538 133.587V134.093ZM328.052 135.255L327.197 134.763L332.058 126.983L332.912 127.476L328.052 135.255Z" fill="white"/>
<circle cx="278" cy="86" r="42.5" fill="white" stroke="#D7D7D7"/>
<path d="M259.426 92H257.211V80.9961H251.577V92H249.362V79.2031H259.426V92ZM272.328 85.9355C272.328 87.1895 272.111 88.291 271.678 89.2402C271.244 90.1836 270.623 90.9102 269.814 91.4199C269.012 91.9238 268.086 92.1758 267.037 92.1758C266 92.1758 265.074 91.9238 264.26 91.4199C263.451 90.9102 262.824 90.1865 262.379 89.249C261.939 88.3115 261.717 87.2305 261.711 86.0059V85.2852C261.711 84.0371 261.931 82.9355 262.37 81.9805C262.815 81.0254 263.439 80.2959 264.242 79.792C265.051 79.2822 265.977 79.0273 267.02 79.0273C268.062 79.0273 268.985 79.2793 269.788 79.7832C270.597 80.2812 271.221 81.002 271.66 81.9453C272.1 82.8828 272.322 83.9756 272.328 85.2236V85.9355ZM270.104 85.2676C270.104 83.8496 269.835 82.7627 269.296 82.0068C268.763 81.251 268.004 80.873 267.02 80.873C266.059 80.873 265.306 81.251 264.761 82.0068C264.222 82.7568 263.946 83.8203 263.935 85.1973V85.9355C263.935 87.3418 264.207 88.4287 264.752 89.1963C265.303 89.9639 266.064 90.3477 267.037 90.3477C268.021 90.3477 268.777 89.9727 269.305 89.2227C269.838 88.4727 270.104 87.377 270.104 85.9355V85.2676ZM284.308 87.834C284.179 89.1992 283.675 90.2656 282.796 91.0332C281.917 91.7949 280.748 92.1758 279.289 92.1758C278.27 92.1758 277.37 91.9355 276.591 91.4551C275.817 90.9688 275.22 90.2803 274.798 89.3896C274.376 88.499 274.156 87.4648 274.139 86.2871V85.0918C274.139 83.8848 274.353 82.8213 274.78 81.9014C275.208 80.9814 275.82 80.2725 276.617 79.7744C277.42 79.2764 278.346 79.0273 279.395 79.0273C280.807 79.0273 281.943 79.4111 282.805 80.1787C283.666 80.9463 284.167 82.0303 284.308 83.4307H282.093C281.987 82.5107 281.718 81.8486 281.284 81.4443C280.856 81.0342 280.227 80.8291 279.395 80.8291C278.428 80.8291 277.684 81.1836 277.162 81.8926C276.646 82.5957 276.383 83.6299 276.371 84.9951V86.1289C276.371 87.5117 276.617 88.5664 277.109 89.293C277.607 90.0195 278.334 90.3828 279.289 90.3828C280.162 90.3828 280.818 90.1865 281.258 89.7939C281.697 89.4014 281.976 88.748 282.093 87.834H284.308ZM296.366 79.2031V92H294.151V80.9961H290.231L290.003 85.9443C289.915 87.4912 289.725 88.6924 289.432 89.5479C289.145 90.3975 288.726 91.0186 288.175 91.4111C287.624 91.8037 286.886 92 285.96 92H285.397V90.2246L285.749 90.1982C286.259 90.1514 286.651 89.9727 286.927 89.6621C287.208 89.3516 287.419 88.8828 287.56 88.2559C287.706 87.623 287.809 86.6943 287.867 85.4697L288.113 79.2031H296.366ZM306.526 86.2871H301.271V90.2246H307.414V92H299.047V79.2031H307.353V80.9961H301.271V84.5293H306.526V86.2871Z" fill="#C8C8C8"/>
<path d="M300.243 34H298.589V26.0088L296.148 26.8428V25.4414L300.031 24.0127H300.243V34ZM304.146 29.0645L304.687 24.0469H310.032V25.4824H306.067L305.794 27.8613C306.254 27.597 306.774 27.4648 307.353 27.4648C308.3 27.4648 309.036 27.7679 309.561 28.374C310.089 28.9801 310.354 29.7959 310.354 30.8213C310.354 31.833 310.062 32.6396 309.479 33.2412C308.895 33.8382 308.095 34.1367 307.079 34.1367C306.168 34.1367 305.411 33.8792 304.81 33.3643C304.213 32.8447 303.889 32.1611 303.839 31.3135H305.445C305.509 31.7965 305.682 32.168 305.965 32.4277C306.247 32.6829 306.617 32.8105 307.072 32.8105C307.583 32.8105 307.979 32.6283 308.262 32.2637C308.549 31.8991 308.692 31.4023 308.692 30.7734C308.692 30.1673 308.535 29.6888 308.221 29.3379C307.906 28.9824 307.473 28.8047 306.922 28.8047C306.621 28.8047 306.366 28.8457 306.156 28.9277C305.947 29.0052 305.719 29.1602 305.473 29.3926L304.146 29.0645ZM311.591 25.9609C311.591 25.3594 311.785 24.8672 312.172 24.4844C312.559 24.097 313.067 23.9033 313.696 23.9033C314.334 23.9033 314.845 24.097 315.228 24.4844C315.615 24.8672 315.809 25.3708 315.809 25.9951V26.4873C315.809 27.0843 315.615 27.5742 315.228 27.957C314.845 28.3398 314.339 28.5312 313.71 28.5312C313.095 28.5312 312.587 28.3444 312.186 27.9707C311.789 27.5924 311.591 27.0843 311.591 26.4463V25.9609ZM312.753 26.4873C312.753 26.8018 312.84 27.057 313.013 27.2529C313.19 27.4443 313.423 27.54 313.71 27.54C313.993 27.54 314.22 27.4443 314.394 27.2529C314.567 27.057 314.653 26.7926 314.653 26.46V25.9609C314.653 25.6465 314.564 25.3913 314.387 25.1953C314.214 24.9993 313.983 24.9014 313.696 24.9014C313.409 24.9014 313.179 25.0016 313.006 25.2021C312.837 25.3981 312.753 25.6579 312.753 25.9814V26.4873ZM316.376 31.5596C316.376 30.9489 316.574 30.4544 316.971 30.0762C317.367 29.6979 317.873 29.5088 318.488 29.5088C319.108 29.5088 319.614 29.6979 320.006 30.0762C320.402 30.4544 320.601 30.9648 320.601 31.6074V32.0928C320.601 32.6852 320.409 33.1751 320.026 33.5625C319.648 33.9453 319.14 34.1367 318.502 34.1367C317.864 34.1367 317.349 33.9476 316.957 33.5693C316.57 33.1865 316.376 32.6829 316.376 32.0586V31.5596ZM317.538 32.0928C317.538 32.4027 317.627 32.6579 317.805 32.8584C317.987 33.0544 318.219 33.1523 318.502 33.1523C318.794 33.1523 319.021 33.0589 319.186 32.8721C319.354 32.6807 319.438 32.4141 319.438 32.0723V31.5596C319.438 31.2406 319.35 30.9854 319.172 30.7939C318.994 30.6025 318.766 30.5068 318.488 30.5068C318.206 30.5068 317.976 30.6025 317.798 30.7939C317.625 30.9854 317.538 31.2497 317.538 31.5869V32.0928ZM314.052 33.2549L313.197 32.7627L318.058 24.9834L318.912 25.4756L314.052 33.2549Z" fill="#3D3D3D"/>
<path d="M65.7227 200V192.891H68.1592C68.9632 192.891 69.5752 193.052 69.9951 193.374C70.415 193.696 70.625 194.176 70.625 194.814C70.625 195.14 70.5371 195.433 70.3613 195.693C70.1855 195.954 69.9284 196.156 69.5898 196.299C69.974 196.403 70.2702 196.6 70.4785 196.89C70.6901 197.176 70.7959 197.521 70.7959 197.925C70.7959 198.592 70.5811 199.105 70.1514 199.463C69.7249 199.821 69.113 200 68.3154 200H65.7227ZM66.958 196.792V199.014H68.3301C68.7174 199.014 69.0202 198.918 69.2383 198.726C69.4564 198.534 69.5654 198.267 69.5654 197.925C69.5654 197.186 69.1878 196.808 68.4326 196.792H66.958ZM66.958 195.884H68.1689C68.5531 195.884 68.8525 195.798 69.0674 195.625C69.2855 195.449 69.3945 195.202 69.3945 194.883C69.3945 194.531 69.2936 194.277 69.0918 194.121C68.8932 193.965 68.5824 193.887 68.1592 193.887H66.958V195.884ZM77.7051 196.631C77.7051 197.327 77.5846 197.939 77.3438 198.467C77.1029 198.991 76.7578 199.395 76.3086 199.678C75.8626 199.958 75.3483 200.098 74.7656 200.098C74.1895 200.098 73.6751 199.958 73.2227 199.678C72.7734 199.395 72.4251 198.993 72.1777 198.472C71.9336 197.951 71.8099 197.35 71.8066 196.67V196.27C71.8066 195.576 71.9287 194.964 72.1729 194.434C72.4202 193.903 72.7669 193.498 73.2129 193.218C73.6621 192.935 74.1764 192.793 74.7559 192.793C75.3353 192.793 75.848 192.933 76.2939 193.213C76.7432 193.49 77.0898 193.89 77.334 194.414C77.5781 194.935 77.7018 195.542 77.7051 196.235V196.631ZM76.4697 196.26C76.4697 195.472 76.32 194.868 76.0205 194.448C75.7243 194.028 75.3027 193.818 74.7559 193.818C74.222 193.818 73.8037 194.028 73.501 194.448C73.2015 194.865 73.0485 195.456 73.042 196.221V196.631C73.042 197.412 73.1934 198.016 73.4961 198.442C73.8021 198.869 74.2253 199.082 74.7656 199.082C75.3125 199.082 75.7324 198.874 76.0254 198.457C76.3216 198.04 76.4697 197.432 76.4697 196.631V196.26ZM85.3076 201.748H84.1357V200H79.4531V201.748H78.2617L78.2227 199.014H78.7939C79.0771 198.74 79.3034 198.343 79.4727 197.822C79.6419 197.298 79.751 196.706 79.7998 196.045L79.9854 192.891H84.4678V199.014H85.3711L85.3076 201.748ZM80.1904 199.014H83.2373V193.887H81.1621L81.0449 195.889C80.957 197.227 80.6722 198.268 80.1904 199.014ZM90.3564 198.345H87.6025L87.0264 200H85.7422L88.4277 192.891H89.5361L92.2266 200H90.9375L90.3564 198.345ZM87.9492 197.349H90.0098L88.9795 194.399L87.9492 197.349Z" fill="#777777"/>
<circle cx="52.5" cy="196.5" r="4.5" fill="#FBBC05"/>
<path d="M128.277 194.829C128.277 194.51 128.157 194.256 127.916 194.067C127.675 193.879 127.348 193.784 126.935 193.784C126.58 193.784 126.284 193.879 126.046 194.067C125.808 194.253 125.689 194.494 125.689 194.79H124.459C124.459 194.403 124.566 194.058 124.781 193.755C124.996 193.452 125.294 193.218 125.675 193.052C126.056 192.882 126.476 192.798 126.935 192.798C127.748 192.798 128.38 192.975 128.829 193.33C129.282 193.685 129.508 194.181 129.508 194.819C129.508 195.142 129.41 195.438 129.215 195.708C129.02 195.978 128.746 196.191 128.395 196.348C128.792 196.484 129.094 196.693 129.303 196.973C129.514 197.249 129.62 197.594 129.62 198.008C129.62 198.646 129.376 199.154 128.888 199.531C128.399 199.906 127.748 200.093 126.935 200.093C126.433 200.093 125.979 200.003 125.572 199.824C125.169 199.645 124.864 199.401 124.659 199.092C124.457 198.783 124.356 198.428 124.356 198.027H125.587C125.587 198.333 125.714 198.592 125.968 198.804C126.222 199.012 126.544 199.116 126.935 199.116C127.371 199.116 127.721 199.014 127.984 198.809C128.251 198.604 128.385 198.337 128.385 198.008C128.385 197.607 128.268 197.318 128.033 197.139C127.802 196.956 127.462 196.865 127.013 196.865H126.178V195.889H126.969C127.841 195.889 128.277 195.535 128.277 194.829ZM134.747 198.345H131.993L131.417 200H130.133L132.818 192.891H133.927L136.617 200H135.328L134.747 198.345ZM132.34 197.349H134.4L133.37 194.399L132.34 197.349ZM142.745 197.686C142.674 198.444 142.394 199.036 141.905 199.463C141.417 199.886 140.768 200.098 139.957 200.098C139.391 200.098 138.891 199.964 138.458 199.697C138.028 199.427 137.696 199.045 137.462 198.55C137.228 198.055 137.105 197.48 137.096 196.826V196.162C137.096 195.492 137.215 194.901 137.452 194.39C137.69 193.879 138.03 193.485 138.473 193.208C138.919 192.931 139.433 192.793 140.016 192.793C140.8 192.793 141.432 193.006 141.91 193.433C142.389 193.859 142.667 194.461 142.745 195.239H141.515C141.456 194.728 141.306 194.36 141.065 194.136C140.828 193.908 140.478 193.794 140.016 193.794C139.479 193.794 139.065 193.991 138.775 194.385C138.489 194.775 138.342 195.35 138.336 196.108V196.738C138.336 197.507 138.473 198.092 138.746 198.496C139.023 198.9 139.426 199.102 139.957 199.102C140.442 199.102 140.807 198.993 141.051 198.774C141.295 198.556 141.45 198.193 141.515 197.686H142.745ZM149.479 200H148.248V193.887H145.118V200H143.888V192.891H149.479V200ZM154.952 198.345H152.198L151.622 200H150.338L153.023 192.891H154.132L156.822 200H155.533L154.952 198.345ZM152.545 197.349H154.605L153.575 194.399L152.545 197.349ZM159.234 192.891L161.285 198.34L163.331 192.891H164.928V200H163.697V197.656L163.819 194.521L161.72 200H160.836L158.741 194.526L158.863 197.656V200H157.633V192.891H159.234ZM172.071 192.891V200H170.841V193.887H168.663L168.536 196.636C168.487 197.495 168.382 198.162 168.219 198.638C168.059 199.11 167.826 199.455 167.521 199.673C167.215 199.891 166.804 200 166.29 200H165.978V199.014L166.173 198.999C166.456 198.973 166.674 198.874 166.827 198.701C166.983 198.529 167.101 198.268 167.179 197.92C167.26 197.568 167.317 197.052 167.35 196.372L167.486 192.891H172.071ZM177.716 196.826H174.796V199.014H178.209V200H173.561V192.891H178.175V193.887H174.796V195.85H177.716V196.826ZM184.859 200H183.629V196.841H180.45V200H179.215V192.891H180.45V195.85H183.629V192.891H184.859V200ZM191.969 200H190.738V196.841H187.56V200H186.324V192.891H187.56V195.85H190.738V192.891H191.969V200ZM199.107 196.631C199.107 197.327 198.987 197.939 198.746 198.467C198.505 198.991 198.16 199.395 197.711 199.678C197.265 199.958 196.751 200.098 196.168 200.098C195.592 200.098 195.077 199.958 194.625 199.678C194.176 199.395 193.827 198.993 193.58 198.472C193.336 197.951 193.212 197.35 193.209 196.67V196.27C193.209 195.576 193.331 194.964 193.575 194.434C193.823 193.903 194.169 193.498 194.615 193.218C195.064 192.935 195.579 192.793 196.158 192.793C196.738 192.793 197.25 192.933 197.696 193.213C198.146 193.49 198.492 193.89 198.736 194.414C198.98 194.935 199.104 195.542 199.107 196.235V196.631ZM197.872 196.26C197.872 195.472 197.722 194.868 197.423 194.448C197.127 194.028 196.705 193.818 196.158 193.818C195.624 193.818 195.206 194.028 194.903 194.448C194.604 194.865 194.451 195.456 194.444 196.221V196.631C194.444 197.412 194.596 198.016 194.898 198.442C195.204 198.869 195.628 199.082 196.168 199.082C196.715 199.082 197.135 198.874 197.428 198.457C197.724 198.04 197.872 197.432 197.872 196.631V196.26ZM205.763 197.686C205.691 198.444 205.411 199.036 204.923 199.463C204.435 199.886 203.785 200.098 202.975 200.098C202.408 200.098 201.909 199.964 201.476 199.697C201.046 199.427 200.714 199.045 200.479 198.55C200.245 198.055 200.123 197.48 200.113 196.826V196.162C200.113 195.492 200.232 194.901 200.47 194.39C200.707 193.879 201.048 193.485 201.49 193.208C201.936 192.931 202.451 192.793 203.033 192.793C203.818 192.793 204.449 193.006 204.928 193.433C205.406 193.859 205.685 194.461 205.763 195.239H204.532C204.474 194.728 204.324 194.36 204.083 194.136C203.845 193.908 203.495 193.794 203.033 193.794C202.496 193.794 202.083 193.991 201.793 194.385C201.507 194.775 201.36 195.35 201.354 196.108V196.738C201.354 197.507 201.49 198.092 201.764 198.496C202.04 198.9 202.444 199.102 202.975 199.102C203.46 199.102 203.824 198.993 204.068 198.774C204.312 198.556 204.467 198.193 204.532 197.686H205.763ZM211.861 193.887H209.645V200H208.419V193.887H206.222V192.891H211.861V193.887ZM214.093 195.61H215.548C216.069 195.61 216.523 195.7 216.91 195.879C217.298 196.058 217.592 196.312 217.794 196.641C217.996 196.969 218.097 197.35 218.097 197.783C218.097 198.447 217.87 198.981 217.418 199.385C216.969 199.788 216.355 199.993 215.577 200H212.857V192.891H214.093V195.61ZM214.093 196.602V199.014H215.543C215.96 199.014 216.284 198.901 216.515 198.677C216.749 198.449 216.866 198.148 216.866 197.773C216.866 197.415 216.752 197.132 216.524 196.924C216.297 196.715 215.981 196.608 215.577 196.602H214.093Z" fill="#777777"/>
<circle cx="114.5" cy="196.5" r="4.5" fill="#F04B01"/>
<path d="M257.396 196.631C257.396 197.327 257.276 197.939 257.035 198.467C256.794 198.991 256.449 199.395 256 199.678C255.554 199.958 255.04 200.098 254.457 200.098C253.881 200.098 253.367 199.958 252.914 199.678C252.465 199.395 252.117 198.993 251.869 198.472C251.625 197.951 251.501 197.35 251.498 196.67V196.27C251.498 195.576 251.62 194.964 251.864 194.434C252.112 193.903 252.458 193.498 252.904 193.218C253.354 192.935 253.868 192.793 254.447 192.793C255.027 192.793 255.539 192.933 255.985 193.213C256.435 193.49 256.781 193.89 257.025 194.414C257.27 194.935 257.393 195.542 257.396 196.235V196.631ZM256.161 196.26C256.161 195.472 256.011 194.868 255.712 194.448C255.416 194.028 254.994 193.818 254.447 193.818C253.913 193.818 253.495 194.028 253.192 194.448C252.893 194.865 252.74 195.456 252.733 196.221V196.631C252.733 197.412 252.885 198.016 253.188 198.442C253.493 198.869 253.917 199.082 254.457 199.082C255.004 199.082 255.424 198.874 255.717 198.457C256.013 198.04 256.161 197.432 256.161 196.631V196.26ZM264.052 197.686C263.98 198.444 263.7 199.036 263.212 199.463C262.724 199.886 262.074 200.098 261.264 200.098C260.697 200.098 260.198 199.964 259.765 199.697C259.335 199.427 259.003 199.045 258.769 198.55C258.534 198.055 258.412 197.48 258.402 196.826V196.162C258.402 195.492 258.521 194.901 258.759 194.39C258.996 193.879 259.337 193.485 259.779 193.208C260.225 192.931 260.74 192.793 261.322 192.793C262.107 192.793 262.738 193.006 263.217 193.433C263.695 193.859 263.974 194.461 264.052 195.239H262.821C262.763 194.728 262.613 194.36 262.372 194.136C262.134 193.908 261.785 193.794 261.322 193.794C260.785 193.794 260.372 193.991 260.082 194.385C259.796 194.775 259.649 195.35 259.643 196.108V196.738C259.643 197.507 259.779 198.092 260.053 198.496C260.329 198.9 260.733 199.102 261.264 199.102C261.749 199.102 262.113 198.993 262.357 198.774C262.602 198.556 262.756 198.193 262.821 197.686H264.052ZM270.15 193.887H267.934V200H266.708V193.887H264.511V192.891H270.15V193.887ZM274.481 198.345H271.728L271.151 200H269.867L272.553 192.891H273.661L276.352 200H275.062L274.481 198.345ZM272.074 197.349H274.135L273.104 194.399L272.074 197.349ZM282.841 192.891V200H281.61V193.887H279.433L279.306 196.636C279.257 197.495 279.151 198.162 278.988 198.638C278.829 199.11 278.596 199.455 278.29 199.673C277.984 199.891 277.574 200 277.06 200H276.747V199.014L276.942 198.999C277.226 198.973 277.444 198.874 277.597 198.701C277.753 198.529 277.87 198.268 277.948 197.92C278.03 197.568 278.087 197.052 278.119 196.372L278.256 192.891H282.841ZM285.546 195.61H287.001C287.522 195.61 287.976 195.7 288.363 195.879C288.751 196.058 289.045 196.312 289.247 196.641C289.449 196.969 289.55 197.35 289.55 197.783C289.55 198.447 289.324 198.981 288.871 199.385C288.422 199.788 287.808 199.993 287.03 200H284.311V192.891H285.546V195.61ZM285.546 196.602V199.014H286.996C287.413 199.014 287.737 198.901 287.968 198.677C288.202 198.449 288.319 198.148 288.319 197.773C288.319 197.415 288.205 197.132 287.978 196.924C287.75 196.715 287.434 196.608 287.03 196.602H285.546ZM296.264 200H295.033V196.841H291.854V200H290.619V192.891H291.854V195.85H295.033V192.891H296.264V200ZM303.402 196.631C303.402 197.327 303.282 197.939 303.041 198.467C302.8 198.991 302.455 199.395 302.006 199.678C301.56 199.958 301.046 200.098 300.463 200.098C299.887 200.098 299.372 199.958 298.92 199.678C298.471 199.395 298.122 198.993 297.875 198.472C297.631 197.951 297.507 197.35 297.504 196.67V196.27C297.504 195.576 297.626 194.964 297.87 194.434C298.118 193.903 298.464 193.498 298.91 193.218C299.359 192.935 299.874 192.793 300.453 192.793C301.033 192.793 301.545 192.933 301.991 193.213C302.44 193.49 302.787 193.89 303.031 194.414C303.275 194.935 303.399 195.542 303.402 196.235V196.631ZM302.167 196.26C302.167 195.472 302.017 194.868 301.718 194.448C301.422 194.028 301 193.818 300.453 193.818C299.919 193.818 299.501 194.028 299.198 194.448C298.899 194.865 298.746 195.456 298.739 196.221V196.631C298.739 197.412 298.891 198.016 299.193 198.442C299.499 198.869 299.923 199.082 300.463 199.082C301.01 199.082 301.43 198.874 301.723 198.457C302.019 198.04 302.167 197.432 302.167 196.631V196.26ZM308.988 192.891H310.224V200H308.988V194.937L305.868 200H304.633V192.891H305.868V197.959L308.988 192.891ZM309.027 191.079C309.027 191.489 308.884 191.821 308.598 192.075C308.311 192.329 307.929 192.456 307.45 192.456C306.972 192.456 306.589 192.329 306.303 192.075C306.016 191.821 305.873 191.489 305.873 191.079H306.762C306.762 191.294 306.822 191.462 306.942 191.582C307.066 191.699 307.235 191.758 307.45 191.758C307.665 191.758 307.833 191.699 307.953 191.582C308.074 191.462 308.134 191.294 308.134 191.079H309.027ZM319.037 193.887H316.82V200H315.595V193.887H313.397V192.891H319.037V193.887ZM324.13 196.826H321.21V199.014H324.623V200H319.975V192.891H324.589V193.887H321.21V195.85H324.13V196.826ZM327.733 196.953H326.894V200H325.663V192.891H326.894V195.879H327.572L329.662 192.891H331.176L328.734 196.294L331.391 200H329.906L327.733 196.953ZM337.343 197.686C337.271 198.444 336.991 199.036 336.503 199.463C336.015 199.886 335.365 200.098 334.555 200.098C333.988 200.098 333.489 199.964 333.056 199.697C332.626 199.427 332.294 199.045 332.06 198.55C331.825 198.055 331.703 197.48 331.693 196.826V196.162C331.693 195.492 331.812 194.901 332.05 194.39C332.287 193.879 332.628 193.485 333.07 193.208C333.516 192.931 334.031 192.793 334.613 192.793C335.398 192.793 336.029 193.006 336.508 193.433C336.986 193.859 337.265 194.461 337.343 195.239H336.112C336.054 194.728 335.904 194.36 335.663 194.136C335.425 193.908 335.076 193.794 334.613 193.794C334.076 193.794 333.663 193.991 333.373 194.385C333.087 194.775 332.94 195.35 332.934 196.108V196.738C332.934 197.507 333.07 198.092 333.344 198.496C333.62 198.9 334.024 199.102 334.555 199.102C335.04 199.102 335.404 198.993 335.648 198.774C335.893 198.556 336.047 198.193 336.112 197.686H337.343ZM343.441 193.887H341.225V200H339.999V193.887H337.802V192.891H343.441V193.887Z" fill="#777777"/>
<circle cx="240.5" cy="196.5" r="4.5" fill="#1EA4A2"/>
</svg>
