<svg width="37" height="37" viewBox="0 0 37 37" fill="none" xmlns="http://www.w3.org/2000/svg">
<g clip-path="url(#clip0)">
<path d="M1.85104 31.4501H19.1173C19.4577 31.4501 19.7338 31.1741 19.7338 30.8333C19.7338 30.4929 19.4577 30.2168 19.1173 30.2168H1.85104C1.51061 30.2168 1.23426 29.9408 1.23426 29.6001V26.517C1.23426 26.1763 1.51061 25.9002 1.85104 25.9002H19.1173C19.4577 25.9002 19.7338 25.6241 19.7338 25.2837C19.7338 24.943 19.4577 24.6669 19.1173 24.6669H1.85104C0.829469 24.6669 0.000976562 25.4951 0.000976562 26.517V29.6001C0.000976562 30.6219 0.829469 31.4501 1.85104 31.4501Z" fill="#4257DB"/>
<path d="M27.7502 33.9167C29.1726 33.9179 30.551 33.4247 31.6499 32.522L35.9473 36.8194C36.1895 37.0532 36.574 37.0498 36.8119 36.8118C37.0496 36.5738 37.053 36.1894 36.8193 35.9475L32.5219 31.65C34.344 29.4169 34.375 26.2192 32.5967 23.9514C30.8183 21.6833 27.7056 20.9507 25.1024 22.1874C22.4992 23.4241 21.1008 26.2997 21.7354 29.1109C22.3699 31.9224 24.8684 33.9184 27.7502 33.9167ZM27.7502 22.8169C30.4748 22.8169 32.6836 25.0257 32.6836 27.7503C32.6836 30.4749 30.4748 32.6835 27.7502 32.6835C25.0259 32.6835 22.8171 30.4749 22.8171 27.7503C22.8202 25.0269 25.027 22.82 27.7502 22.8169Z" fill="#4257DB"/>
<path d="M27.7501 31.4501C29.7936 31.4501 31.4503 29.7937 31.4503 27.7503C31.4503 25.7069 29.7936 24.0502 27.7501 24.0502C25.7067 24.0502 24.0503 25.7069 24.0503 27.7503C24.0523 29.7929 25.7076 31.4482 27.7501 31.4501ZM27.7501 25.2837C29.1124 25.2837 30.217 26.388 30.217 27.7503C30.217 29.1126 29.1124 30.2169 27.7501 30.2169C26.3879 30.2169 25.2836 29.1126 25.2836 27.7503C25.2836 26.388 26.3879 25.2837 27.7501 25.2837Z" fill="#4257DB"/>
<path d="M2.46777 27.1335V28.9836C2.46777 29.324 2.74384 29.6001 3.08427 29.6001C3.42499 29.6001 3.70106 29.324 3.70106 28.9836V27.1335C3.70106 26.7931 3.42499 26.517 3.08427 26.517C2.74384 26.517 2.46777 26.7931 2.46777 27.1335Z" fill="#4257DB"/>
<path d="M2.46777 18.5005V22.8169C2.46777 23.1576 2.74384 23.4337 3.08427 23.4337H10.484C10.8247 23.4337 11.1008 23.1576 11.1008 22.8169V18.5005C11.1008 17.4787 10.2725 16.6505 9.25069 16.6505H4.31756C3.29598 16.6505 2.46777 17.4787 2.46777 18.5005ZM9.86747 18.5005V22.2004H3.70106V18.5005C3.70106 18.1598 3.97713 17.8837 4.31756 17.8837H9.25069C9.5914 17.8837 9.86747 18.1598 9.86747 18.5005Z" fill="#4257DB"/>
<path d="M14.8006 23.4337H22.2006C22.541 23.4337 22.8171 23.1576 22.8171 22.8169V14.1839C22.8171 13.1624 21.9889 12.3339 20.9673 12.3339H16.0339C15.0123 12.3339 14.1841 13.1624 14.1841 14.1839V22.8169C14.1841 23.1576 14.4602 23.4337 14.8006 23.4337ZM15.4174 14.1839C15.4174 13.8432 15.6934 13.5671 16.0339 13.5671H20.9673C21.3077 13.5671 21.5838 13.8432 21.5838 14.1839V22.2004H15.4174V14.1839Z" fill="#4257DB"/>
<path d="M25.9004 9.25076V19.7338C25.9004 20.0742 26.1765 20.3503 26.5169 20.3503C26.8576 20.3503 27.1337 20.0742 27.1337 19.7338V9.25076C27.1337 8.91005 27.4097 8.63398 27.7502 8.63398H32.6836C33.024 8.63398 33.3001 8.91005 33.3001 9.25076V22.8169C33.3001 23.1576 33.5762 23.4336 33.9169 23.4336C34.2573 23.4336 34.5334 23.1576 34.5334 22.8169V9.25076C34.5334 8.22891 33.7052 7.4007 32.6836 7.4007H27.7502C26.7286 7.4007 25.9004 8.22891 25.9004 9.25076Z" fill="#4257DB"/>
<path d="M25.2834 4.93423C24.9429 4.93423 24.6669 4.65816 24.6669 4.31745C24.6669 3.97702 24.3908 3.70095 24.0501 3.70095C23.7097 3.70095 23.4336 3.97702 23.4336 4.31745C23.4336 5.3393 24.2618 6.16751 25.2834 6.16751C26.2942 6.14182 27.1078 5.32857 27.1334 4.31745C27.1334 3.31987 26.2231 2.86483 25.5592 2.53231C25.0367 2.27148 24.6669 2.06937 24.6669 1.85088C24.6875 1.51948 24.952 1.25499 25.2834 1.23438C25.6241 1.23438 25.9002 1.51045 25.9002 1.85088C25.9002 2.19159 26.1762 2.46766 26.5167 2.46766C26.8574 2.46766 27.1334 2.19159 27.1334 1.85088C27.1334 0.829309 26.3052 0.00109863 25.2834 0.00109863C24.2725 0.0265039 23.459 0.840036 23.4336 1.85088C23.4336 2.84874 24.3437 3.30378 25.0079 3.6363C25.5301 3.89713 25.9002 4.09924 25.9002 4.31745C25.8793 4.64913 25.6151 4.91334 25.2834 4.93423Z" fill="#4257DB"/>
<path d="M30.8335 1.23438C31.1742 1.23438 31.4503 0.958311 31.4503 0.617599C31.4503 0.277169 31.1742 0.00109863 30.8335 0.00109863H29.6002C28.9191 0.00109863 28.3669 0.553239 28.3669 1.23438V4.93423C28.3669 5.61537 28.9191 6.16751 29.6002 6.16751H30.8335C31.1742 6.16751 31.4503 5.89144 31.4503 5.55073C31.4503 5.2103 31.1742 4.93423 30.8335 4.93423H29.6002V3.70095H30.8335C31.1742 3.70095 31.4503 3.42488 31.4503 3.08416C31.4503 2.74373 31.1742 2.46766 30.8335 2.46766H29.6002V1.23438H30.8335Z" fill="#4257DB"/>
<path d="M36.9999 2.15941C36.9999 0.967344 36.0337 0.00109863 34.8419 0.00109863C33.6498 0.00109863 32.6836 0.967344 32.6836 2.15941V4.0092C32.6836 5.20127 33.6498 6.16751 34.8419 6.16751C36.0337 6.16751 36.9999 5.20127 36.9999 4.0092V2.15941ZM35.7667 4.0092C35.7667 4.52012 35.3526 4.93423 34.8419 4.93423C34.331 4.93423 33.9169 4.52012 33.9169 4.0092V2.15941C33.9169 1.64849 34.331 1.23438 34.8419 1.23438C35.3526 1.23438 35.7667 1.64849 35.7667 2.15941V4.0092Z" fill="#4257DB"/>
<path d="M8.01735 8.01757C8.35806 8.01757 8.63413 7.7415 8.63413 7.40078V2.10634L8.81479 2.28699C9.05671 2.52072 9.44145 2.51734 9.67913 2.27937C9.9171 2.04169 9.92048 1.65694 9.68676 1.41503L8.45347 0.181748C8.39589 0.124163 8.32758 0.0787161 8.25249 0.0479476C8.10147 -0.0144363 7.9321 -0.0144363 7.78137 0.0479476C7.706 0.0787161 7.63768 0.124163 7.5801 0.181748L6.34682 1.41503C6.11337 1.65694 6.11648 2.04169 6.35444 2.27937C6.5924 2.51734 6.97687 2.52072 7.21878 2.28699L7.40085 2.10634V7.40078C7.40085 7.7415 7.67692 8.01757 8.01735 8.01757Z" fill="#4257DB"/>
<path d="M14.184 10.4841C14.5244 10.4841 14.8005 10.208 14.8005 9.86729V5.18934L14.9812 5.37C15.2231 5.60373 15.6078 5.60034 15.8458 5.36266C16.0835 5.1247 16.0868 4.74024 15.8531 4.49832L14.6198 3.26476C14.5625 3.20745 14.4942 3.16172 14.4189 3.13096C14.2681 3.06857 14.0985 3.06857 13.9477 3.13096C13.8724 3.16172 13.804 3.20745 13.7467 3.26476L12.5135 4.49832C12.2797 4.74024 12.2831 5.1247 12.5208 5.36266C12.7588 5.60034 13.1435 5.60373 13.3854 5.37L13.5672 5.18934V9.86729C13.5672 10.208 13.8433 10.4841 14.184 10.4841Z" fill="#4257DB"/>
<path d="M1.05351 5.37L1.23416 5.18934V9.86729C1.23416 10.208 1.51052 10.4841 1.85095 10.4841C2.19138 10.4841 2.46773 10.208 2.46773 9.86729V5.18934L2.64839 5.37C2.8903 5.60373 3.27477 5.60034 3.51273 5.36266C3.75069 5.1247 3.7538 4.74024 3.52035 4.49832L2.28679 3.26476C2.22949 3.20745 2.16117 3.16172 2.0858 3.13096C1.93507 3.06857 1.7657 3.06857 1.61468 3.13096C1.53959 3.16172 1.47128 3.20745 1.4137 3.26476L0.180413 4.49832C-0.0603726 4.73939 -0.0600903 5.13006 0.180977 5.37085C0.422044 5.61163 0.81272 5.61135 1.05351 5.37Z" fill="#4257DB"/>
</g>
<defs>
<clipPath id="clip0">
<rect width="37" height="37" fill="white"/>
</clipPath>
</defs>
</svg>
