<svg width="100" height="29" viewBox="0 0 100 29" fill="none" xmlns="http://www.w3.org/2000/svg">
<g clip-path="url(#clip0)">
<path d="M12.1856 3.36472H10.2545C6.72156 3.36472 4.8503 5.16025 4.8503 7.80073C4.8503 10.8033 6.13772 12.2066 8.78743 13.987L10.9731 15.4506L4.68563 24.8658H0L5.64371 16.4464C2.39521 14.1379 0.568862 11.8897 0.568862 8.05723C0.568862 3.25911 3.89222 0 10.2246 0H16.512V24.8809H12.1856V3.36472Z" fill="#FC3F1D"/>
<path d="M51.5869 6.88037H39.1767V8.41939C39.1767 12.8252 38.8923 18.5136 37.3952 21.5162H36.0779V29H40.015V24.8809H49.5509V29H53.4881V21.5162H51.5869V6.88037ZM47.3354 21.5162H41.3324C42.515 18.8002 42.8294 13.8965 42.8294 10.7732V10.23H47.3354V21.5162Z" fill="black"/>
<path d="M30.0297 14.0021H24.3411V6.88037H20.0896V24.8809H24.3411V17.3668H30.0297V24.8809H34.2812V6.88037H30.0297V14.0021Z" fill="black"/>
<path d="M95.8982 9.88279C97.5449 9.88279 99.1467 10.4562 100.015 10.9993V7.37811C99.1168 6.88019 97.5449 6.51807 95.4341 6.51807C90 6.51807 87.1707 10.426 87.1707 15.9031C87.1707 21.9234 89.9251 25.2428 95.6138 25.2428C97.5748 25.2428 98.982 24.8807 100.015 24.1263V20.6559C98.9371 21.4104 97.6497 21.8781 95.8683 21.8781C92.8293 21.8781 91.5719 19.5092 91.5719 15.7975C91.5719 11.8896 93.0988 9.88279 95.8982 9.88279Z" fill="black"/>
<path d="M86.6019 6.88037H82.3055L76.3025 15.179V6.88037H72.051V24.8809H76.3025V16.0391L82.59 24.8809H87.4253L80.584 15.179L86.6019 6.88037Z" fill="black"/>
<path d="M62.1704 6.51807C56.9908 6.51807 54.5208 10.4863 54.5208 15.9333C54.5208 22.195 57.5896 25.2428 63.0237 25.2428C65.7483 25.2428 67.7393 24.5337 68.9968 23.6736V20.2033C67.6794 21.0935 65.4639 21.8932 63.383 21.8932C60.2692 21.8932 59.0866 20.4296 58.907 17.4119H69.1615V15.1637C69.1764 8.87186 66.4369 6.51807 62.1704 6.51807ZM64.8501 14.2434H58.9219C59.0267 11.3765 60.0597 9.88279 62.1106 9.88279C64.2213 9.88279 64.865 11.6331 64.865 13.8963V14.2434H64.8501Z" fill="black"/>
</g>
<defs>
<clipPath id="clip0">
<rect width="100" height="29" fill="white"/>
</clipPath>
</defs>
</svg>
