<svg width="36" height="36" viewBox="0 0 36 36" fill="none" xmlns="http://www.w3.org/2000/svg">
<g clip-path="url(#clip0)">
<path d="M10.6628 8.3148C10.6791 8.14008 10.7142 7.96866 10.768 7.80202C10.9315 7.57463 11.0646 7.32403 11.1613 7.05614C11.619 6.46678 12.33 6.11719 13.0781 6.11719H15.0469C15.3747 6.11719 15.6924 6.18124 15.9911 6.30752C16.2595 6.42122 16.5688 6.29543 16.6822 6.02726C16.7956 5.75909 16.6702 5.44964 16.4019 5.33623C16.3318 5.30655 16.261 5.27934 16.1895 5.25445C16.7637 4.69814 17.1211 3.91936 17.1211 3.05859C17.1211 1.37208 15.749 0 14.0625 0C12.376 0 11.0039 1.37208 11.0039 3.05859C11.0039 3.92013 11.362 4.69955 11.9371 5.256C11.7174 5.3325 11.5057 5.43073 11.3058 5.54899C11.0785 4.0853 9.80972 2.96149 8.28345 2.96149C6.59693 2.96149 5.22485 4.33357 5.22485 6.02009C5.22485 6.88099 5.58239 7.65991 6.15677 8.21623C6.01861 8.26418 5.8834 8.32092 5.75198 8.38617C5.36055 8.20385 4.92441 8.10197 4.46491 8.10197C2.7784 8.10197 1.40632 9.47405 1.40632 11.1606C1.40632 12.0216 1.764 12.8006 2.33845 13.357C0.978539 13.8308 0 15.1257 0 16.645V19.0356C0 20.2569 0.993586 21.2505 2.21484 21.2505H3.63396C3.9252 21.2505 4.1613 21.0144 4.1613 20.7231C4.1613 20.4318 3.9252 20.1958 3.63396 20.1958H2.21484C1.57514 20.1958 1.05469 19.6753 1.05469 19.0356V16.645C1.05469 15.3075 2.14291 14.2192 3.48047 14.2192H5.44922C6.78677 14.2192 7.875 15.3075 7.875 16.645V19.0356C7.875 19.6753 7.35455 20.1958 6.71484 20.1958H5.91012C5.61888 20.1958 5.38277 20.4318 5.38277 20.7231C5.38277 21.0144 5.61888 21.2505 5.91012 21.2505H6.71484C7.9361 21.2505 8.92969 20.2569 8.92969 19.0356V16.645C8.92969 16.4631 8.91562 16.2844 8.88863 16.1101H10.5335C11.7548 16.1101 12.7484 15.1165 12.7484 13.8952V13.1484H16.3125C17.5338 13.1484 18.5273 12.1549 18.5273 10.9336V8.54297C18.5273 8.08003 18.4378 7.63017 18.2612 7.20584C18.1493 6.93689 17.8406 6.80956 17.5717 6.92163C17.3028 7.03357 17.1755 7.34224 17.2875 7.61112C17.4104 7.90629 17.4727 8.21981 17.4727 8.54297V10.9336C17.4727 11.5733 16.9522 12.0938 16.3125 12.0938H12.7484V11.5045C12.7287 11.1557 12.6358 10.3456 12.0706 9.53508C11.5798 8.83111 10.9733 8.47181 10.6628 8.3148ZM14.0625 1.05469C15.1675 1.05469 16.0664 1.95363 16.0664 3.05859C16.0664 4.16355 15.1675 5.0625 14.0625 5.0625C12.9575 5.0625 12.0586 4.16355 12.0586 3.05859C12.0586 1.95363 12.9575 1.05469 14.0625 1.05469ZM8.28337 4.01618C9.38834 4.01618 10.2873 4.91513 10.2873 6.02009C10.2873 6.21056 10.2606 6.39499 10.2106 6.56972C10.0548 6.79528 9.92672 7.03856 9.82905 7.29408C9.46118 7.73958 8.90487 8.02399 8.28337 8.02399C7.17841 8.02399 6.27947 7.12505 6.27947 6.02009C6.27947 4.91513 7.17841 4.01618 8.28337 4.01618ZM4.46484 9.15673C5.5698 9.15673 6.46875 10.0557 6.46875 11.1606C6.46875 12.2656 5.5698 13.1645 4.46484 13.1645C3.35988 13.1645 2.46094 12.2655 2.46094 11.1606C2.46094 10.0557 3.35988 9.15673 4.46484 9.15673ZM11.6937 13.8952C11.6937 14.5349 11.1732 15.0553 10.5335 15.0553H8.54494C8.13825 14.2665 7.43885 13.6522 6.59123 13.357C7.16576 12.8006 7.52337 12.0216 7.52337 11.1606C7.52337 10.3865 7.23431 9.67866 6.75844 9.13936C6.93471 9.09921 7.11598 9.07875 7.29907 9.07875H9.26782C9.50766 9.07875 9.74454 9.1137 9.97193 9.18267C11.0017 9.49486 11.6936 10.428 11.6936 11.5045L11.6937 13.8952Z" fill="#C02FC2"/>
<path d="M26.2617 18.6328C22.0551 18.6328 18.6328 22.0551 18.6328 26.2617C18.6328 30.4683 22.0551 33.8906 26.2617 33.8906C30.4683 33.8906 33.8906 30.4683 33.8906 26.2617C33.8906 22.0551 30.4683 18.6328 26.2617 18.6328ZM26.2617 32.8359C22.6367 32.8359 19.6875 29.8868 19.6875 26.2617C19.6875 22.6367 22.6367 19.6875 26.2617 19.6875C29.8868 19.6875 32.8359 22.6367 32.8359 26.2617C32.8359 29.8868 29.8868 32.8359 26.2617 32.8359Z" fill="#C02FC2"/>
<path d="M34.1527 20.5538C33.9818 20.318 33.6521 20.2653 33.4162 20.4362C33.1804 20.6071 33.1277 20.9367 33.2986 21.1726C34.3759 22.6595 34.9453 24.4193 34.9453 26.2617C34.9453 31.0499 31.0499 34.9453 26.2617 34.9453C21.4736 34.9453 17.5781 31.0499 17.5781 26.2617C17.5781 21.4735 21.4736 17.5781 26.2617 17.5781C28.3077 17.5781 30.2946 18.3033 31.8561 19.6201C32.0788 19.8079 32.4115 19.7795 32.5992 19.557C32.7869 19.3343 32.7587 19.0017 32.5361 18.8139C30.7845 17.3368 28.5562 16.5234 26.2617 16.5234C20.892 16.5234 16.5234 20.892 16.5234 26.2617C16.5234 31.6314 20.892 36 26.2617 36C31.6314 36 36 31.6314 36 26.2617C36 24.1955 35.3612 22.2218 34.1527 20.5538Z" fill="#C02FC2"/>
<path d="M26.9189 22.8545V22.1172C26.9189 21.8259 26.6828 21.5899 26.3916 21.5899C26.1004 21.5899 25.8643 21.8259 25.8643 22.1172V22.8545C25.0432 22.9853 24.4136 23.6983 24.4136 24.5557V25.0664C24.4136 26.0164 25.1864 26.7891 26.1362 26.7891H27.1219C27.2283 26.7891 27.315 26.8756 27.315 26.9821V27.9678C27.315 28.3361 27.0153 28.6358 26.647 28.6358H26.1362C25.7679 28.6358 25.4683 28.3361 25.4683 27.9678V27.7124C25.4683 27.4211 25.2322 27.1851 24.9409 27.1851C24.6497 27.1851 24.4136 27.4211 24.4136 27.7124V27.9678C24.4136 28.8252 25.0432 29.5382 25.8643 29.669V30.4063C25.8643 30.6976 26.1004 30.9336 26.3916 30.9336C26.6828 30.9336 26.9189 30.6976 26.9189 30.4063V29.669C27.7401 29.5382 28.3696 28.8252 28.3696 27.9678V26.9821C28.3696 26.2941 27.81 25.7344 27.1219 25.7344H26.1362C25.7679 25.7344 25.4683 25.4347 25.4683 25.0664V24.5557C25.4683 24.1874 25.7679 23.8877 26.1362 23.8877H26.647C27.0153 23.8877 27.315 24.1874 27.315 24.5557V24.8111C27.315 25.1024 27.5511 25.3384 27.8423 25.3384C28.1335 25.3384 28.3696 25.1024 28.3696 24.8111V24.5557C28.3696 23.6982 27.7401 22.9853 26.9189 22.8545Z" fill="#C02FC2"/>
<path d="M23.266 6.13966C26.2067 6.13966 28.646 8.32715 29.0422 11.1604L28.6376 10.8615C28.4033 10.6883 28.0732 10.738 27.9001 10.9723C27.727 11.2066 27.7767 11.5367 28.0109 11.7097L29.3126 12.6712C29.4038 12.7387 29.5138 12.7744 29.6259 12.7744C29.6533 12.7744 29.6808 12.7723 29.7082 12.7679C29.8477 12.7459 29.9725 12.6688 30.0547 12.5539L31.0517 11.1608C31.2212 10.924 31.1666 10.5946 30.9298 10.4251C30.6929 10.2556 30.3635 10.3102 30.194 10.5471L30.0455 10.7545C29.469 7.53564 26.6484 5.0849 23.2661 5.0849C22.9749 5.0849 22.7388 5.32094 22.7388 5.61224C22.7388 5.90355 22.9747 6.13966 23.266 6.13966Z" fill="#C02FC2"/>
<path d="M11.0634 28.9705C10.8902 28.7361 10.56 28.6866 10.3259 28.8597C10.0916 29.0327 10.042 29.3628 10.215 29.5971L10.5139 30.0018C7.68066 29.6055 5.49316 27.1663 5.49316 24.2256C5.49316 23.9343 5.25705 23.6983 4.96582 23.6983C4.67459 23.6983 4.43848 23.9343 4.43848 24.2256C4.43848 27.6079 6.88915 30.4285 10.1081 31.005L9.90056 31.1535C9.66375 31.323 9.60912 31.6524 9.77864 31.8892C9.88158 32.0332 10.0436 32.1098 10.2079 32.1098C10.3141 32.1098 10.4214 32.0777 10.5143 32.0113L11.9075 31.0143C12.0223 30.9321 12.0994 30.8073 12.1215 30.6678C12.1435 30.5282 12.1087 30.3857 12.0248 30.2721L11.0634 28.9705Z" fill="#C02FC2"/>
</g>
<defs>
<clipPath id="clip0">
<rect width="36" height="36" fill="white"/>
</clipPath>
</defs>
</svg>
