<svg width="42" height="42" viewBox="0 0 42 42" fill="none" xmlns="http://www.w3.org/2000/svg">
<g clip-path="url(#clip0)">
<path d="M37.7902 18.2C37.2788 18.2036 36.7722 18.3 36.2954 18.4849C34.7016 12.9821 30.2719 8.761 24.6982 7.4344C25.8816 6.79257 26.6106 5.54608 26.5901 4.19994C26.5901 0.877671 22.9272 2.45764e-07 20.9902 2.45764e-07C20.6034 -0.000320189 20.2897 0.312744 20.2897 0.699509C20.2894 1.08595 20.6024 1.39966 20.9889 1.39998C21.1606 1.40062 25.1901 1.44516 25.1901 4.19994C25.1901 6.95471 21.1606 6.99925 20.9889 6.99989C13.8935 6.97586 7.6447 11.6654 5.6846 18.4849C4.01001 17.8482 2.11592 18.3455 0.970051 19.7227C-0.175824 21.0997 -0.32066 23.0527 0.609562 24.5837C1.5401 26.1148 3.33998 26.8857 5.0902 26.5031C5.15076 26.9373 5.22638 27.3696 5.31643 27.7999C4.93671 27.9868 4.59481 28.2415 4.30738 28.5517C3.43483 29.5934 3.24385 31.0456 3.81775 32.2774C4.39133 33.5091 5.62597 34.2977 6.98461 34.3C7.08843 34.3 7.19289 34.2958 7.29735 34.2859C7.49154 34.266 7.6838 34.2301 7.87221 34.1782C10.9465 39.0834 15.8087 42 20.9902 42C26.1713 42 31.0339 39.0834 34.1081 34.1788C34.2962 34.2304 34.4885 34.2663 34.683 34.2865C34.7874 34.2958 34.8916 34.3003 34.9957 34.3003C36.6181 34.3762 38.0713 33.3028 38.475 31.7291C38.8787 30.1558 38.1225 28.5152 36.6639 27.8003C36.7536 27.369 36.8292 26.9367 36.8901 26.5035C38.4609 26.846 40.0897 26.2619 41.0846 24.9987C42.0792 23.7355 42.2657 22.0155 41.5646 20.5684C40.8635 19.1216 39.3979 18.202 37.7902 18.2ZM1.39014 22.4C1.39174 20.8542 2.64432 19.6016 4.1901 19.6C4.58071 19.6013 4.96683 19.6837 5.32412 19.8413C5.03572 21.1413 4.88993 22.4686 4.88993 23.8C4.88993 24.2325 4.90947 24.6619 4.93767 25.0871C4.09557 25.3358 3.18554 25.1695 2.48539 24.6395C1.78556 24.1092 1.37893 23.278 1.39014 22.4ZM7.17463 32.892C6.32868 32.9663 5.52086 32.5241 5.12833 31.7708C4.73548 31.0177 4.83513 30.1023 5.38051 29.4511C5.86309 28.875 7.80941 28.2633 9.41671 27.9041C9.34493 29.5492 9.08281 31.5718 8.5996 32.1486C8.24295 32.577 7.72994 32.8445 7.17463 32.892ZM36.339 32.4088C35.9122 32.7667 35.3607 32.9404 34.8057 32.8913C34.251 32.8426 33.7383 32.5754 33.3804 32.1486C32.8978 31.5727 32.6357 29.5495 32.5636 27.9041C34.1709 28.263 36.1172 28.8747 36.5995 29.4508C36.9574 29.8776 37.1308 30.4291 37.0817 30.9838C37.033 31.5388 36.7658 32.0511 36.339 32.4088ZM31.9667 26.3551C31.7622 26.3183 31.5523 26.374 31.3931 26.5076C31.2341 26.6409 31.1425 26.838 31.1428 27.0453C31.1441 27.8172 31.2066 31.7342 32.3073 33.048C32.4678 33.2374 32.6479 33.4091 32.8443 33.5607C30.0245 37.9785 25.64 40.6 20.9902 40.6C16.34 40.6 11.9558 37.9785 9.13569 33.561C9.33243 33.4095 9.51252 33.2377 9.67273 33.0483C10.7734 31.7346 10.8359 27.8176 10.8372 27.0456C10.8378 26.838 10.7462 26.6409 10.5869 26.5076C10.428 26.3743 10.2178 26.3186 10.0137 26.3554C8.86524 26.5627 7.73378 26.8559 6.62925 27.2325C6.5187 26.6573 6.42545 26.0802 6.37098 25.5043C6.31746 24.9481 6.29023 24.3748 6.29023 23.8C6.28574 22.399 6.45749 21.0032 6.801 19.6452C8.3471 13.0567 14.2245 8.39955 20.9918 8.40019C27.759 8.40083 33.6358 13.0593 35.1806 19.6478C35.5235 21.0051 35.6946 22.4 35.6901 23.8C35.6901 24.3748 35.6629 24.9481 35.609 25.5056C35.5546 26.0805 35.4613 26.6576 35.3511 27.2325C34.2465 26.8559 33.1151 26.5624 31.9667 26.3551ZM37.7902 25.1999C37.5368 25.1964 37.2852 25.1586 37.0423 25.0871C37.0705 24.6616 37.0901 24.2322 37.0901 23.8C37.0901 22.4686 36.9446 21.1413 36.6562 19.8413C37.0135 19.6837 37.3996 19.6013 37.7902 19.6C39.3363 19.6 40.5902 20.8536 40.5902 22.4C40.5902 23.9464 39.3363 25.1999 37.7902 25.1999Z" fill="white"/>
<path d="M20.9904 26.5999C22.5362 26.5983 23.7887 25.3457 23.7903 23.8C23.7903 23.4135 23.477 23.1001 23.0902 23.1001C22.7038 23.1001 22.3904 23.4135 22.3904 23.8C22.3904 24.5732 21.7636 25.1999 20.9904 25.1999C20.2172 25.1999 19.5904 24.5732 19.5904 23.8C19.5904 23.4135 19.277 23.1001 18.8903 23.1001C18.5038 23.1001 18.1904 23.4135 18.1904 23.8C18.192 25.3457 19.4446 26.5983 20.9904 26.5999Z" fill="white"/>
<path d="M17.2299 21.728C17.5215 21.8447 17.8548 21.753 18.0457 21.504C18.2364 21.2551 18.2383 20.9093 18.0502 20.6581C15.7216 17.5528 11.2647 18.2555 11.075 18.2875C10.6953 18.3526 10.4396 18.7124 10.503 19.0928C10.5665 19.4728 10.9251 19.7301 11.3054 19.6683C12.5275 19.5052 13.7711 19.6314 14.9356 20.0361C13.3286 20.1329 11.8162 20.8273 10.6953 21.9831C10.5139 22.159 10.4415 22.4189 10.5056 22.6631C10.5697 22.9075 10.7607 23.0985 11.0048 23.1626C11.2493 23.2267 11.5092 23.1543 11.6851 22.9729C13.1402 21.5258 15.2961 21.042 17.2299 21.728Z" fill="white"/>
<path d="M27.0538 20.0368C28.217 19.6366 29.4568 19.5106 30.6764 19.6683C31.0538 19.7237 31.406 19.4667 31.4685 19.0902C31.531 18.714 31.2804 18.3571 30.9055 18.2875C30.7164 18.2555 26.2588 17.5534 23.9302 20.6581C23.7428 20.909 23.7444 21.2538 23.9344 21.5025C24.1244 21.7514 24.4567 21.8437 24.748 21.7287C26.6825 21.042 28.8393 21.5258 30.2954 22.9729C30.4713 23.1543 30.7312 23.2267 30.9753 23.1626C31.2198 23.0985 31.4105 22.9076 31.4749 22.6631C31.539 22.4189 31.4665 22.159 31.2852 21.9831C30.1669 20.8292 28.6576 20.1352 27.0538 20.0368Z" fill="white"/>
<path d="M20.9903 27.9999C16.8433 27.9999 13.2903 31.8493 13.2903 35.0001C13.2903 37.7869 15.881 39.2 20.9903 39.2C26.0993 39.2 28.6904 37.7869 28.6904 35.0001C28.6904 31.8493 25.1374 27.9999 20.9903 27.9999ZM16.4632 37.1717C17.2124 35.8855 19.0023 35.0001 20.9903 35.0001C22.9783 35.0001 24.7682 35.8855 25.5171 37.1717C24.0582 37.6517 22.5249 37.8645 20.9903 37.8C19.4558 37.8645 17.9222 37.6517 16.4632 37.1717ZM26.7053 36.434C25.6943 34.7293 23.4884 33.6001 20.9903 33.6001C18.4922 33.6001 16.2863 34.7293 15.2751 36.434C14.8928 36.0559 14.6816 35.5378 14.6903 35.0001C14.6903 32.7974 17.3954 29.3999 20.9903 29.3999C24.585 29.3999 27.2904 32.7974 27.2904 35.0001C27.299 35.5378 27.0876 36.0559 26.7053 36.434Z" fill="white"/>
<path d="M2.26216 5.77231C1.17332 6.77655 1.0993 8.47165 2.09681 9.5669C2.93058 10.401 5.77668 10.8144 6.62936 10.9211C6.6582 10.9246 6.68736 10.9265 6.71652 10.9265C6.91711 10.9265 7.10841 10.8403 7.24107 10.6897C7.37405 10.5394 7.43589 10.3391 7.4109 10.1398C7.30388 9.28748 6.89051 6.44074 6.05642 5.60697C4.96118 4.60945 3.2664 4.68315 2.26216 5.77231ZM3.08696 8.57708C2.63835 8.02817 2.71173 7.221 3.2523 6.76213C3.71052 6.22092 4.51834 6.14722 5.06692 6.59647C5.5056 7.47222 5.78277 8.42006 5.88467 9.39386C4.91119 9.28876 3.96399 9.01223 3.08696 8.57708Z" fill="white"/>
<path d="M35.9233 5.60698C35.0899 6.44107 34.6762 9.28749 34.5692 10.1398C34.5442 10.3392 34.606 10.5394 34.739 10.69C34.872 10.8406 35.063 10.9268 35.2639 10.9268C35.293 10.9265 35.3219 10.9249 35.351 10.9214C36.2034 10.8147 39.0495 10.401 39.8836 9.56691C40.8808 8.47166 40.8071 6.77688 39.7182 5.77232C38.7137 4.68348 37.0186 4.60946 35.9233 5.60698ZM38.8937 8.57708C38.0177 9.01576 37.0698 9.29261 36.0957 9.39483C36.1976 8.42039 36.4748 7.47255 36.9138 6.5968C37.1157 6.40005 37.388 6.29271 37.67 6.29879C38.0699 6.30809 38.4503 6.47439 38.7284 6.76214C39.2687 7.22101 39.3424 8.02818 38.8937 8.57708Z" fill="white"/>
</g>
<defs>
<clipPath id="clip0">
<rect width="42" height="42" fill="white"/>
</clipPath>
</defs>
</svg>
