<svg width="35" height="35" viewBox="0 0 35 35" fill="none" xmlns="http://www.w3.org/2000/svg">
<path d="M15.0377 1.02539H17.0709C17.1862 1.02539 17.2991 1.03927 17.4089 1.06381V7.65871C17.4089 8.96301 18.4682 10.0242 19.7702 10.0242H26.3507C26.3749 10.1332 26.3885 10.2453 26.3885 10.3597V13.8086C26.3885 14.0917 26.618 14.3213 26.9012 14.3213C27.1843 14.3213 27.4139 14.0917 27.4139 13.8086V10.3597C27.4139 9.676 27.1479 9.03294 26.665 8.54895L18.8854 0.752773C18.401 0.267354 17.7566 0 17.0708 0H15.0376C14.7545 0 14.5249 0.229551 14.5249 0.512695C14.5249 0.79584 14.7545 1.02539 15.0377 1.02539ZM25.6653 8.99876H19.7702C19.0336 8.99876 18.4343 8.39768 18.4343 7.65871V1.75239L25.6653 8.99876Z" fill="#9131D0"/>
<path d="M2.63354 7.69043C2.91669 7.69043 3.14624 7.46088 3.14624 7.17773V3.24707C3.14624 2.02207 4.14292 1.02539 5.36792 1.02539H12.645C12.9282 1.02539 13.1577 0.79584 13.1577 0.512695C13.1577 0.229551 12.9282 0 12.645 0H5.36792C3.57752 0 2.12085 1.45667 2.12085 3.24707V7.17773C2.12085 7.46088 2.3504 7.69043 2.63354 7.69043Z" fill="#9131D0"/>
<path d="M6.55786 10.7666H15.014C15.2971 10.7666 15.5267 10.5371 15.5267 10.2539C15.5267 9.97076 15.2971 9.74121 15.014 9.74121H6.55786C6.27472 9.74121 6.04517 9.97076 6.04517 10.2539C6.04517 10.5371 6.27472 10.7666 6.55786 10.7666Z" fill="#9131D0"/>
<path d="M6.55786 22.0459C6.27472 22.0459 6.04517 22.2754 6.04517 22.5586C6.04517 22.8418 6.27472 23.0713 6.55786 23.0713H15.014C15.2971 23.0713 15.5267 22.8418 15.5267 22.5586C15.5267 22.2754 15.2971 22.0459 15.014 22.0459H6.55786Z" fill="#9131D0"/>
<path d="M21.7336 13.8428H6.42114C6.138 13.8428 5.90845 14.0723 5.90845 14.3555C5.90845 14.6386 6.138 14.8682 6.42114 14.8682H21.7336C22.0168 14.8682 22.2463 14.6386 22.2463 14.3555C22.2463 14.0723 22.0169 13.8428 21.7336 13.8428Z" fill="#9131D0"/>
<path d="M22.2463 18.457C22.2463 18.1738 22.0168 17.9443 21.7336 17.9443H6.42114C6.138 17.9443 5.90845 18.1738 5.90845 18.457C5.90845 18.7402 6.138 18.9697 6.42114 18.9697H21.7336C22.0169 18.9697 22.2463 18.7402 22.2463 18.457Z" fill="#9131D0"/>
<path d="M27.4138 20.3667V16.2012C27.4138 15.918 27.1843 15.6885 26.9011 15.6885C26.618 15.6885 26.3884 15.918 26.3884 16.2012V20.1594C26.074 20.1188 25.7535 20.0977 25.4282 20.0977C24.45 20.0977 23.4988 20.2844 22.6012 20.6528C22.3393 20.7603 22.2141 21.0598 22.3216 21.3218C22.4291 21.5837 22.7285 21.709 22.9906 21.6014C23.764 21.284 24.5842 21.123 25.4283 21.123C25.8977 21.123 26.3553 21.1741 26.7964 21.2702C26.7972 21.2703 26.798 21.2705 26.7988 21.2707C29.6857 21.9004 31.8541 24.4759 31.8541 27.5489C31.8541 31.0921 28.9715 33.9747 25.4283 33.9747C21.8851 33.9747 19.0025 31.0921 19.0025 27.5489C19.0025 25.7376 19.7731 24.001 21.1167 22.7843C21.3265 22.5943 21.3427 22.27 21.1526 22.0601C20.9625 21.8503 20.6384 21.8341 20.4284 22.0242C18.8705 23.435 17.9771 25.4486 17.9771 27.5489C17.9771 28.6452 18.2152 29.6868 18.6422 30.6251H5.36792C4.14292 30.6251 3.14624 29.6285 3.14624 28.4034V9.57031C3.14624 9.28717 2.91669 9.05762 2.63354 9.05762C2.3504 9.05762 2.12085 9.28717 2.12085 9.57031V28.4033C2.12085 30.1937 3.57752 31.6504 5.36792 31.6504H19.2108C20.5455 33.6671 22.834 35 25.4282 35C29.5368 35 32.8794 31.6574 32.8794 27.5488C32.8794 24.1276 30.5616 21.238 27.4138 20.3667Z" fill="#9131D0"/>
<path d="M25.4282 23.2422C24.5801 23.2422 23.8901 23.9322 23.8901 24.7803V26.0107H22.6597C21.8115 26.0107 21.1216 26.7008 21.1216 27.5488C21.1216 28.3969 21.8115 29.0869 22.6597 29.0869H23.8901V30.3174C23.8901 31.1654 24.5801 31.8555 25.4282 31.8555C26.2764 31.8555 26.9663 31.1654 26.9663 30.3174V29.0869H28.1968C29.0449 29.0869 29.7349 28.3969 29.7349 27.5488C29.7349 26.7008 29.0449 26.0107 28.1968 26.0107H26.9663V24.7803C26.9663 23.9322 26.2764 23.2422 25.4282 23.2422ZM28.1968 27.0361C28.4795 27.0361 28.7095 27.2661 28.7095 27.5488C28.7095 27.8316 28.4795 28.0615 28.1968 28.0615H26.4536C26.1705 28.0615 25.9409 28.291 25.9409 28.5742V30.3174C25.9409 30.6001 25.711 30.8301 25.4282 30.8301C25.1455 30.8301 24.9155 30.6001 24.9155 30.3174V28.5742C24.9155 28.291 24.686 28.0615 24.4028 28.0615H22.6597C22.3769 28.0615 22.147 27.8316 22.147 27.5488C22.147 27.2661 22.3769 27.0361 22.6597 27.0361H24.4028C24.686 27.0361 24.9155 26.8067 24.9155 26.5234V24.7803C24.9155 24.4975 25.1455 24.2676 25.4282 24.2676C25.711 24.2676 25.9409 24.4975 25.9409 24.7803V26.5234C25.9409 26.8067 26.1705 27.0361 26.4536 27.0361H28.1968Z" fill="#9131D0"/>
</svg>
