<svg width="36" height="36" viewBox="0 0 36 36" fill="none" xmlns="http://www.w3.org/2000/svg">
<path d="M24.1875 29.8125H20.8125V26.7491L25.8114 23.625L20.8125 20.5009V16.875H24.1875V12.375H20.8125V8.4375H25.3125V0.5625H15.1875V8.4375H19.6875V12.375H16.3125V14.0625H11.25V15.1875H16.3125V16.875H19.6875V20.5009L14.6886 23.625L19.6875 26.7491V29.8125H16.3125C15.3821 29.8125 14.625 30.5696 14.625 31.5V33.75C14.625 34.6804 15.3821 35.4375 16.3125 35.4375H24.1875C25.1179 35.4375 25.875 34.6804 25.875 33.75V31.5C25.875 30.5696 25.1179 29.8125 24.1875 29.8125ZM16.3125 1.6875H24.1875V7.3125H16.3125V1.6875ZM17.4375 13.5H23.0625V15.75H17.4375V13.5ZM20.25 21.4757L23.6886 23.625L20.25 25.7743L16.8114 23.625L20.25 21.4757ZM24.75 33.75C24.75 34.0599 24.4974 34.3125 24.1875 34.3125H16.3125C16.0026 34.3125 15.75 34.0599 15.75 33.75V31.5C15.75 31.1901 16.0026 30.9375 16.3125 30.9375H24.1875C24.4974 30.9375 24.75 31.1901 24.75 31.5V33.75Z" fill="#9733D9"/>
<path d="M10.2898 30.7727L11.5796 32.0625H6.6465C6.47662 31.5861 6.10144 31.2109 5.625 31.041V19.125H4.5V31.041C3.84694 31.2739 3.375 31.8926 3.375 32.625C3.375 33.5554 4.13212 34.3125 5.0625 34.3125C5.79488 34.3125 6.41363 33.8406 6.6465 33.1875H11.5796L10.2898 34.4773L11.0852 35.2727L13.7329 32.625L11.0852 29.9773L10.2898 30.7727ZM5.0625 33.1875C4.75256 33.1875 4.5 32.9349 4.5 32.625C4.5 32.3151 4.75256 32.0625 5.0625 32.0625C5.37244 32.0625 5.625 32.3151 5.625 32.625C5.625 32.9349 5.37244 33.1875 5.0625 33.1875Z" fill="#9733D9"/>
<path d="M34.3125 22.041V6.084C34.9655 5.85113 35.4375 5.23238 35.4375 4.5C35.4375 3.56962 34.6803 2.8125 33.75 2.8125C33.0176 2.8125 32.3988 3.28444 32.166 3.9375H26.4375V5.0625H32.166C32.3358 5.53894 32.711 5.91412 33.1875 6.084V22.0416C32.711 22.2114 32.3358 22.5866 32.166 23.0631H28.3578L29.6477 21.7733L28.8523 20.9779L26.2046 23.625L28.8523 26.2727L29.6477 25.4773L28.3578 24.1875H32.166C32.3988 24.8406 33.0176 25.3125 33.75 25.3125C34.6803 25.3125 35.4375 24.5554 35.4375 23.625C35.4375 22.8926 34.9655 22.2739 34.3125 22.041ZM33.75 3.9375C34.0599 3.9375 34.3125 4.19006 34.3125 4.5C34.3125 4.80994 34.0599 5.0625 33.75 5.0625C33.44 5.0625 33.1875 4.80994 33.1875 4.5C33.1875 4.19006 33.44 3.9375 33.75 3.9375ZM33.75 24.1875C33.44 24.1875 33.1875 23.9349 33.1875 23.625C33.1875 23.3151 33.44 23.0625 33.75 23.0625C34.0599 23.0625 34.3125 23.3151 34.3125 23.625C34.3125 23.9349 34.0599 24.1875 33.75 24.1875Z" fill="#9733D9"/>
<path d="M9.96811 14.625L5.06255 11.1212L0.156982 14.625L5.06255 18.1288L9.96811 14.625ZM5.06255 12.5038L8.03198 14.625L5.06255 16.7462L2.09311 14.625L5.06255 12.5038Z" fill="#9733D9"/>
<path d="M17.4375 2.8125H23.0625V3.9375H17.4375V2.8125Z" fill="#9733D9"/>
<path d="M17.4375 5.0625H20.8125V6.1875H17.4375V5.0625Z" fill="#9733D9"/>
<path d="M21.9375 5.0625H23.0625V6.1875H21.9375V5.0625Z" fill="#9733D9"/>
<path d="M31.5 32.0625H32.625V33.1875H31.5V32.0625Z" fill="#9733D9"/>
<path d="M29.25 32.0625H30.375V33.1875H29.25V32.0625Z" fill="#9733D9"/>
<path d="M27 32.0625H28.125V33.1875H27V32.0625Z" fill="#9733D9"/>
<path d="M10.6875 5.0625H11.8125V6.1875H10.6875V5.0625Z" fill="#9733D9"/>
<path d="M12.9375 5.0625H14.0625V6.1875H12.9375V5.0625Z" fill="#9733D9"/>
<path d="M8.4375 5.0625H9.5625V6.1875H8.4375V5.0625Z" fill="#9733D9"/>
</svg>
