<svg width="30" height="30" viewBox="0 0 30 30" fill="none" xmlns="http://www.w3.org/2000/svg">
<path d="M27.1663 8.10307C25.8683 5.88999 24.1076 4.13789 21.8838 2.84638C19.6597 1.5548 17.2316 0.90918 14.5979 0.90918C11.9644 0.90918 9.53555 1.555 7.31189 2.84638C5.08789 4.13783 3.32729 5.88999 2.02927 8.10307C0.73146 10.3161 0.0825195 12.7327 0.0825195 15.3529C0.0825195 18.5003 1.00532 21.3306 2.85139 23.8444C4.69726 26.3583 7.08185 28.0979 10.005 29.0633C10.3452 29.1261 10.5971 29.0819 10.7609 28.9318C10.9247 28.7815 11.0065 28.5932 11.0065 28.3678C11.0065 28.3302 11.0033 27.9918 10.997 27.3522C10.9905 26.7127 10.9875 26.1547 10.9875 25.6787L10.5527 25.7535C10.2756 25.804 9.92592 25.8254 9.50377 25.8194C9.08183 25.8135 8.64379 25.7695 8.19027 25.6877C7.73655 25.6066 7.31453 25.4185 6.9239 25.1239C6.53346 24.8292 6.25629 24.4435 6.09245 23.9674L5.90345 23.5346C5.77748 23.2465 5.57915 22.9264 5.3082 22.5756C5.03725 22.2244 4.76326 21.9863 4.48609 21.861L4.35376 21.7667C4.26558 21.7041 4.18376 21.6285 4.10809 21.5408C4.0325 21.4532 3.9759 21.3654 3.9381 21.2775C3.90023 21.1896 3.93161 21.1175 4.03256 21.0609C4.13351 21.0043 4.31596 20.9768 4.58068 20.9768L4.95854 21.033C5.21056 21.0833 5.52229 21.2334 5.89412 21.4843C6.26576 21.735 6.57126 22.061 6.8107 22.462C7.10065 22.9762 7.44997 23.368 7.85967 23.6376C8.26904 23.9073 8.68179 24.0418 9.09751 24.0418C9.51324 24.0418 9.8723 24.0105 10.1748 23.9481C10.477 23.8854 10.7605 23.7911 11.0253 23.6658C11.1387 22.8254 11.4474 22.1798 11.9512 21.7285C11.2331 21.6534 10.5875 21.5403 10.014 21.3899C9.44088 21.2393 8.84861 20.9949 8.2376 20.6561C7.62626 20.3177 7.11912 19.8975 6.71604 19.3962C6.31289 18.8946 5.98203 18.2362 5.72392 17.4214C5.46569 16.6063 5.33653 15.666 5.33653 14.6003C5.33653 13.0829 5.83434 11.7916 6.82976 10.7258C6.36346 9.58502 6.40749 8.30616 6.96196 6.88936C7.32738 6.77638 7.86927 6.86116 8.58739 7.14317C9.30564 7.4253 9.83152 7.66699 10.1656 7.86738C10.4996 8.0677 10.7672 8.23745 10.9689 8.37513C12.1409 8.04925 13.3504 7.88628 14.5977 7.88628C15.845 7.88628 17.0548 8.04925 18.2269 8.37513L18.9451 7.92396C19.4362 7.62292 20.0162 7.34704 20.6836 7.09626C21.3514 6.84562 21.862 6.77658 22.215 6.88955C22.7818 8.30642 22.8323 9.58522 22.3659 10.726C23.3612 11.7918 23.8592 13.0834 23.8592 14.6005C23.8592 15.6662 23.7296 16.6094 23.4718 17.4308C23.2136 18.2523 22.8799 18.9101 22.4705 19.4056C22.0607 19.901 21.5503 20.318 20.9393 20.6563C20.3282 20.9949 19.7357 21.2393 19.1625 21.3898C18.5891 21.5404 17.9435 21.6536 17.2254 21.7288C17.8804 22.2928 18.2079 23.1831 18.2079 24.3993V28.3673C18.2079 28.5927 18.2867 28.7809 18.4444 28.9313C18.6018 29.0814 18.8506 29.1256 19.1908 29.0627C22.1143 28.0975 24.4989 26.3578 26.3447 23.8438C28.1903 21.33 29.1134 18.4998 29.1134 15.3524C29.1128 12.7325 28.4635 10.3161 27.1663 8.10307Z" fill="white"/>
</svg>
