<svg width="52" height="52" viewBox="0 0 52 52" fill="none" xmlns="http://www.w3.org/2000/svg">
<g clip-path="url(#clip0)">
<path d="M26.0003 17.0256C27.3497 17.0256 28.4479 15.9275 28.4479 14.5781C28.4479 13.2286 27.3497 12.1305 26.0003 12.1305C24.6509 12.1305 23.5527 13.2286 23.5527 14.5781C23.5527 15.9275 24.6501 17.0256 26.0003 17.0256ZM26.0003 13.7622C26.4498 13.7622 26.8161 14.1285 26.8161 14.5781C26.8161 15.0276 26.4498 15.3939 26.0003 15.3939C25.5508 15.3939 25.1844 15.0276 25.1844 14.5781C25.1844 14.1285 25.5499 13.7622 26.0003 13.7622Z" fill="#A41F57"/>
<path d="M26.0003 20.289C29.1495 20.289 31.7112 17.7272 31.7112 14.5781C31.7112 11.4289 29.1495 8.86709 26.0003 8.86709C22.8511 8.86709 20.2893 11.4289 20.2893 14.5781C20.2893 17.7272 22.8511 20.289 26.0003 20.289ZM26.0003 10.4988C28.2496 10.4988 30.0795 12.3288 30.0795 14.5781C30.0795 16.8274 28.2496 18.6573 26.0003 18.6573C23.751 18.6573 21.921 16.8274 21.921 14.5781C21.921 12.3288 23.751 10.4988 26.0003 10.4988Z" fill="#A41F57"/>
<path d="M14.5989 26.6372C14.0752 26.9864 13.7627 27.5713 13.7627 28.2003C13.7627 29.2365 14.6055 30.0793 15.6416 30.0793H20.2895V31.711C20.2895 32.6108 21.0213 33.3427 21.9212 33.3427H30.0798C30.9796 33.3427 31.7115 32.6108 31.7115 31.711V30.0793H36.3594C37.3955 30.0793 38.2383 29.2365 38.2383 28.2003C38.2383 27.5713 37.9258 26.9864 37.402 26.6372L33.9298 24.3218C34.6151 22.1108 34.9757 19.7979 34.9757 17.4849C34.9757 12.2684 33.1808 7.15216 29.9223 3.07943L29.2892 2.28724C28.4848 1.28455 27.2863 0.708561 26.0005 0.708561C24.7147 0.708561 23.5162 1.28455 22.7126 2.28887L22.0795 3.08024C18.821 7.15298 17.0261 12.2692 17.0261 17.4858C17.0261 19.7979 17.3867 22.1108 18.072 24.3218L14.5989 26.6372ZM15.3944 28.2003C15.3944 28.1171 15.4352 28.0404 15.5045 27.9948L18.6317 25.9094C18.8822 26.5499 19.153 27.183 19.4606 27.7973L19.7853 28.4476H15.6416C15.5045 28.4476 15.3944 28.3366 15.3944 28.2003ZM28.1805 26.8158H31.1975C31.1575 26.8991 31.1216 26.9855 31.08 27.0688L30.3914 28.4476H28.3624L28.1805 26.8158ZM23.6386 28.4476H21.6096L20.9202 27.0688C20.8786 26.9855 20.8435 26.8999 20.8027 26.8158H23.8197L23.6386 28.4476ZM30.0798 31.711H21.9212V30.0793H30.0798V31.711ZM25.2801 28.4476L25.905 22.8214C25.9165 22.7243 26.0845 22.7243 26.0951 22.8214L26.7209 28.4476H25.2801ZM36.4956 27.9948C36.565 28.0404 36.6058 28.1171 36.6058 28.2003C36.6058 28.3366 36.4948 28.4476 36.3586 28.4476H32.2148L32.5396 27.7981C32.8471 27.183 33.1172 26.5507 33.3685 25.9102L36.4956 27.9948ZM23.353 4.09924L23.9861 3.30787C24.4781 2.69353 25.2124 2.34027 26.0005 2.34027C26.7886 2.34027 27.5221 2.69353 28.0148 3.30787L28.6479 4.09924C29.0363 4.58549 29.4002 5.08806 29.7436 5.60368H22.2574C22.6 5.08806 22.9647 4.58549 23.353 4.09924ZM21.2775 7.23538H30.7227C32.4245 10.365 33.3424 13.8984 33.3424 17.4858C33.3424 20.1095 32.8431 22.7333 31.9016 25.1841H27.9985L27.7162 22.6411C27.62 21.7657 26.8816 21.1049 26.0005 21.1049C25.1194 21.1049 24.381 21.7657 24.2839 22.6411L24.0008 25.1841H20.0978C19.1563 22.7333 18.657 20.1095 18.657 17.4858C18.6578 13.8984 19.5756 10.365 21.2775 7.23538Z" fill="#A41F57"/>
<path d="M28.4479 41.5012V40.6853C28.4479 39.6231 27.7634 38.7257 26.8161 38.3879V36.6061H25.1844V38.2378H23.5527V40.6853C23.5527 42.0348 24.6509 43.1329 26.0003 43.1329C26.4498 43.1329 26.8161 43.4992 26.8161 43.9487V44.7646H26.0003C25.5508 44.7646 25.1844 44.3983 25.1844 43.9487V43.1329H23.5527V43.9487C23.5527 45.011 24.2372 45.9084 25.1844 46.2462V48.028H26.8161V46.3963H28.4479V43.9487C28.4479 42.5993 27.3497 41.5012 26.0003 41.5012C25.5508 41.5012 25.1844 41.1349 25.1844 40.6853V39.8695H26.0003C26.4498 39.8695 26.8161 40.2358 26.8161 40.6853V41.5012H28.4479Z" fill="#A41F57"/>
<path d="M45.4028 44.7948C44.6359 42.3791 42.3695 40.6853 39.7889 40.6853H39.6878C38.9356 38.2329 36.8315 36.3605 34.2681 35.933L33.4767 35.8008L33.2083 37.4105L33.9997 37.5427C36.1217 37.8968 37.8317 39.5513 38.2535 41.6611L38.3849 42.317H39.7889C41.8114 42.317 43.568 43.757 43.9653 45.7404L44.0958 46.3963H44.7648C46.8746 46.3963 48.7013 47.7049 49.4201 49.6597H42.8802C41.849 46.9633 39.4071 45.0901 36.5606 44.803C36.2653 42.3383 34.5789 40.2366 32.1787 39.4371L31.7112 39.2813V34.9744H30.0795V40.4577L31.6622 40.9856C33.6439 41.6464 34.9746 43.4927 34.9746 45.5805V46.3963H35.7905C38.065 46.3963 40.103 47.6788 41.1114 49.6597H10.889C11.8966 47.678 13.9354 46.3963 16.2092 46.3963H17.025V45.5805C17.025 43.4919 18.3557 41.6456 20.3374 40.9856L21.9201 40.4577V34.9744H20.2884V39.2813L19.821 39.4371C17.4215 40.2366 15.7352 42.3391 15.439 44.803C12.5925 45.0901 10.1507 46.9633 9.11941 49.6597H2.57138C3.27138 47.7245 5.1095 46.3963 7.23561 46.3963H7.90461L8.03596 45.7404C8.43165 43.757 10.1882 42.317 12.2115 42.317H13.6156L13.7469 41.6611C14.1687 39.5513 15.8788 37.8959 18.0008 37.5427L18.7922 37.4105L18.5237 35.8008L17.7324 35.933C15.1698 36.3605 13.0657 38.2329 12.3127 40.6853H12.2115C9.63095 40.6853 7.36451 42.3791 6.5968 44.7948C3.64423 45.0771 1.22685 47.2986 0.719394 50.3401L0.560303 51.2914H50.4758L51.4279 51.2245L51.2696 50.2741C50.772 47.2946 48.3554 45.0771 45.4028 44.7948Z" fill="#A41F57"/>
<path d="M44.765 30.8951V41.5012H46.3967V29.2634H45.4732L47.2126 26.6551L48.9511 29.2634H48.0284V41.5012H49.6601V30.8951H52L47.2126 23.7132L42.4243 30.8951H44.765Z" fill="#A41F57"/>
<path d="M38.2381 25.1841H39.8698V11.3146H38.9463L40.6857 8.70637L42.4243 11.3146H41.5015V28.4476H43.1333V12.9464H45.4731L40.6857 5.7644L35.8975 12.9464H38.2381V25.1841Z" fill="#A41F57"/>
<path d="M2.34068 41.5012H3.97239V29.2634H3.04884L4.78824 26.6551L6.52682 29.2634H5.60409V41.5012H7.2358V30.8951H9.57566L4.78824 23.7132L0 30.8951H2.34068V41.5012Z" fill="#A41F57"/>
<path d="M8.86754 28.4476H10.4992V11.3146H9.5757L11.3151 8.70637L13.0537 11.3146H12.1309V25.1841H13.7626V12.9464H16.1025L11.3151 5.7644L6.52686 12.9464H8.86754V28.4476Z" fill="#A41F57"/>
</g>
<defs>
<clipPath id="clip0">
<rect width="52" height="52" fill="white"/>
</clipPath>
</defs>
</svg>
