<svg width="48" height="48" viewBox="0 0 48 48" fill="none" xmlns="http://www.w3.org/2000/svg">
<path d="M10.0645 10.0645C9.21061 10.0645 8.51616 9.37006 8.51616 8.51613C8.51616 7.66219 9.21061 6.96774 10.0645 6.96774C10.9185 6.96774 11.6129 7.66219 11.6129 8.51613H13.1613C13.1613 6.80826 11.7724 5.41935 10.0645 5.41935C8.35668 5.41935 6.96777 6.80826 6.96777 8.51613C6.96777 10.224 8.35668 11.6129 10.0645 11.6129C10.9185 11.6129 11.6129 12.3074 11.6129 13.1613C11.6129 14.0152 10.9185 14.7097 10.0645 14.7097C9.21061 14.7097 8.51616 14.0152 8.51616 13.1613H6.96777C6.96777 14.8692 8.35668 16.2581 10.0645 16.2581C11.7724 16.2581 13.1613 14.8692 13.1613 13.1613C13.1613 11.4534 11.7724 10.0645 10.0645 10.0645Z" fill="#33C2DB"/>
<path d="M10.8387 3.87097H9.29028V6.19355H10.8387V3.87097Z" fill="#33C2DB"/>
<path d="M10.8387 15.4839H9.29028V17.8065H10.8387V15.4839Z" fill="#33C2DB"/>
<path d="M0 43.3548V48H13.9355V43.3548H0ZM12.3871 46.4516H1.54839V44.9032H12.3871V46.4516Z" fill="#33C2DB"/>
<path d="M0 40.2581V44.9032H13.9355V40.2581H0ZM12.3871 43.3548H1.54839V41.8065H12.3871V43.3548Z" fill="#33C2DB"/>
<path d="M0 37.1613V41.8064H13.9355V37.1613H0ZM12.3871 40.2581H1.54839V38.7097H12.3871V40.2581Z" fill="#33C2DB"/>
<path d="M20.129 43.3548V44.9032H27.871V46.4516H17.0323V44.9032H18.5807V43.3548H15.4839V48H29.4194V43.3548H20.129Z" fill="#33C2DB"/>
<path d="M15.4839 40.2581V44.129H17.0323V41.8065H27.871V44.129H29.4194V40.2581H15.4839Z" fill="#33C2DB"/>
<path d="M15.4839 37.1613V41.8064H29.4194V37.1613H15.4839ZM27.871 40.2581H17.0323V38.7097H27.871V40.2581Z" fill="#33C2DB"/>
<path d="M15.4839 34.0645V38.7097H29.4194V34.0645H15.4839ZM27.871 37.1613H17.0323V35.6129H27.871V37.1613Z" fill="#33C2DB"/>
<path d="M15.4839 30.9677V35.6129H29.4194V30.9677H15.4839ZM27.871 34.0645H17.0323V32.5161H27.871V34.0645Z" fill="#33C2DB"/>
<path d="M30.9678 43.3548V48H44.9033V43.3548H30.9678ZM43.3549 46.4516H32.5162V44.9032H43.3549V46.4516Z" fill="#33C2DB"/>
<path d="M30.9678 40.2581V44.9032H44.9033V40.2581H30.9678ZM43.3549 43.3548H32.5162V41.8065H43.3549V43.3548Z" fill="#33C2DB"/>
<path d="M30.9678 37.1613V41.8064H44.9033V37.1613H30.9678ZM43.3549 40.2581H32.5162V38.7097H43.3549V40.2581Z" fill="#33C2DB"/>
<path d="M30.9678 34.0645V38.7097H44.9033V34.0645H30.9678ZM43.3549 37.1613H32.5162V35.6129H43.3549V37.1613Z" fill="#33C2DB"/>
<path d="M41.8065 30.9677V32.5161H43.3549V34.0645H32.5162V32.5161H40.2581V30.9677H30.9678V35.6129H44.9033V30.9677H41.8065Z" fill="#33C2DB"/>
<path d="M30.9678 27.871V31.7419H32.5162V29.4194H43.3549V31.7419H44.9033V27.871H30.9678Z" fill="#33C2DB"/>
<path d="M30.9678 24.7742V29.4194H44.9033V24.7742H30.9678ZM43.3549 27.871H32.5162V26.3226H43.3549V27.871Z" fill="#33C2DB"/>
<path d="M36.387 0C35.1065 0 34.0644 1.04206 34.0644 2.32258C34.0644 3.6031 35.1065 4.64516 36.387 4.64516H39.9374L28.5336 16.0498L22.4012 12.2168L0.295654 29.5796L1.25256 30.7974L22.5018 14.1066L28.7565 18.0155L43.6752 3.09677H36.387C35.9596 3.09677 35.6128 2.74916 35.6128 2.32258C35.6128 1.896 35.9596 1.54839 36.387 1.54839H46.4515V11.6129C46.4515 12.0395 46.1047 12.3871 45.6773 12.3871C45.25 12.3871 44.9031 12.0395 44.9031 11.6129V5.09884L29.2845 20.7166L22.3733 16.8774L2.61281 32.6857L3.58056 33.895L22.5297 18.7355L29.554 22.6382L43.3547 8.83664V11.6129C43.3547 12.8934 44.3968 13.9355 45.6773 13.9355C46.9578 13.9355 47.9999 12.8934 47.9999 11.6129V0H36.387Z" fill="#33C2DB"/>
<path d="M4.64519 10.0645H3.0968V11.6129H4.64519V10.0645Z" fill="#33C2DB"/>
<path d="M17.0323 10.0645H15.4839V11.6129H17.0323V10.0645Z" fill="#33C2DB"/>
<path d="M10.0645 0.774193C4.5151 0.774193 0 5.28929 0 10.8387C0 16.3881 4.5151 20.9032 10.0645 20.9032C15.6139 20.9032 20.129 16.3881 20.129 10.8387C20.129 5.28929 15.6139 0.774193 10.0645 0.774193ZM10.0645 19.3548C5.36903 19.3548 1.54839 15.5342 1.54839 10.8387C1.54839 6.14322 5.36903 2.32258 10.0645 2.32258C14.76 2.32258 18.5806 6.14322 18.5806 10.8387C18.5806 15.5342 14.76 19.3548 10.0645 19.3548Z" fill="#33C2DB"/>
</svg>
