<svg width="354" height="233" viewBox="0 0 354 233" fill="none" xmlns="http://www.w3.org/2000/svg">
<rect x="0.5" y="0.5" width="198.714" height="132.143" rx="32.5" fill="#ECF0F1" stroke="#D7D7D7"/>
<rect x="0.5" y="0.5" width="198.714" height="128.639" rx="16.5" fill="white" stroke="#D7D7D7"/>
<path d="M0 17C0 7.61116 7.61116 0 17 0H182.714C192.103 0 199.714 7.61116 199.714 17V22.7744H0V17Z" fill="#1EA4A2"/>
<rect x="13.639" y="33.7856" width="55.9361" height="82.2143" fill="white" stroke="#D7D7D7"/>
<rect x="79.3346" y="33.7856" width="32.2857" height="42.797" fill="white" stroke="#D7D7D7"/>
<rect x="79.3346" y="82.8384" width="108.492" height="4.25564" fill="white" stroke="#D7D7D7"/>
<rect x="79.3346" y="92.4736" width="97.9812" height="4.25564" fill="white" stroke="#D7D7D7"/>
<rect x="79.3346" y="111.744" width="74.3308" height="4.25564" fill="white" stroke="#D7D7D7"/>
<rect x="79.3346" y="102.985" width="104.989" height="4.25564" fill="white" stroke="#D7D7D7"/>
<rect x="117" y="33.7856" width="32.2857" height="42.797" fill="white" stroke="#D7D7D7"/>
<rect x="154.666" y="33.7856" width="32.2857" height="42.797" fill="white" stroke="#D7D7D7"/>
<rect x="154.666" y="170.432" width="86.594" height="62.0677" rx="16.5" fill="white" stroke="#D7D7D7"/>
<rect x="293.064" y="71.4512" width="59.4398" height="35.7895" rx="16.5" fill="#FBBC05" stroke="#D7D7D7"/>
<g clip-path="url(#clip0)">
<path d="M318.366 92.735H329.03C329.294 92.735 329.526 92.5604 329.597 92.3068L331.958 84.0433C332.009 83.8652 331.974 83.6738 331.863 83.5258C331.751 83.3783 331.577 83.2911 331.391 83.2911H317.004L316.582 81.3925C316.522 81.1222 316.282 80.9302 316.005 80.9302H312.425C312.099 80.9302 311.834 81.1942 311.834 81.5204C311.834 81.8467 312.099 82.1106 312.425 82.1106H315.532L317.663 91.7019C317.036 91.9746 316.596 92.5988 316.596 93.3252C316.596 94.3016 317.39 95.0959 318.366 95.0959H329.03C329.356 95.0959 329.62 94.832 329.62 94.5057C329.62 94.1795 329.356 93.9155 329.03 93.9155H318.366C318.041 93.9155 317.776 93.6509 317.776 93.3252C317.776 92.9995 318.041 92.735 318.366 92.735Z" fill="#323232"/>
<path d="M317.776 96.8666C317.776 97.8431 318.57 98.6373 319.547 98.6373C320.523 98.6373 321.318 97.8431 321.318 96.8666C321.318 95.8903 320.523 95.0959 319.547 95.0959C318.57 95.0959 317.776 95.8903 317.776 96.8666Z" fill="#323232"/>
<path d="M326.079 96.8666C326.079 97.8431 326.873 98.6373 327.85 98.6373C328.826 98.6373 329.62 97.8431 329.62 96.8666C329.62 95.8903 328.826 95.0959 327.85 95.0959C326.873 95.0959 326.079 95.8903 326.079 96.8666Z" fill="#323232"/>
</g>
<path d="M169.437 66.8495L168.937 66.8806L168.972 67.4397L169.524 67.3418L169.437 66.8495ZM203.218 172.56L202.729 172.454L203.7 172.694L203.218 172.56ZM304 89.3458L301.136 84.3326L298.227 89.3194L304 89.3458ZM56.0601 60.2932C56.5345 60.451 56.5345 60.4511 56.5345 60.4511C56.5345 60.4509 56.5346 60.4508 56.5347 60.4504C56.5349 60.4497 56.5354 60.4484 56.536 60.4465C56.5373 60.4428 56.5393 60.4368 56.5421 60.4287C56.5477 60.4124 56.5564 60.3874 56.5682 60.3539C56.592 60.2869 56.6285 60.1861 56.6785 60.0539C56.7786 59.7896 56.9326 59.3996 57.1466 58.9033C57.5747 57.9105 58.2425 56.4925 59.198 54.8025C61.1093 51.4216 64.1689 46.9566 68.7583 42.627C77.9239 33.9802 93.228 25.8371 117.792 28.0096L117.88 27.0135C93.0228 24.8151 77.4391 33.0628 68.0721 41.8996C63.3952 46.3117 60.2771 50.8617 58.3275 54.3103C57.3525 56.035 56.669 57.4854 56.2283 58.5073C56.008 59.0183 55.8483 59.4223 55.7432 59.7001C55.6907 59.8389 55.6518 59.9462 55.6258 60.0196C55.6128 60.0563 55.603 60.0845 55.5963 60.1039C55.593 60.1136 55.5904 60.1211 55.5887 60.1263C55.5878 60.129 55.5871 60.131 55.5866 60.1326C55.5863 60.1333 55.5861 60.134 55.5859 60.1344C55.5857 60.135 55.5856 60.1354 56.0601 60.2932ZM117.792 28.0096C142.371 30.1835 155.134 39.9524 161.764 49.1128C165.085 53.7017 166.88 58.1547 167.844 61.4577C168.326 63.1089 168.599 64.4716 168.753 65.4184C168.829 65.8917 168.876 66.2608 168.903 66.5099C168.916 66.6344 168.925 66.7289 168.931 66.7914C168.933 66.8226 168.935 66.8458 168.936 66.8608C168.937 66.8683 168.937 66.8737 168.937 66.877C168.937 66.8787 168.937 66.8798 168.937 66.8804C168.937 66.8807 168.937 66.8807 168.937 66.8809C168.937 66.8808 168.937 66.8806 169.437 66.8495C169.936 66.8184 169.936 66.8179 169.935 66.8173C169.935 66.8169 169.935 66.8162 169.935 66.8154C169.935 66.8139 169.935 66.8118 169.935 66.8093C169.935 66.8041 169.934 66.7968 169.933 66.7875C169.932 66.7688 169.93 66.7418 169.927 66.7067C169.921 66.6366 169.911 66.5342 169.897 66.4016C169.868 66.1363 169.819 65.7499 169.74 65.2586C169.581 64.276 169.298 62.8727 168.804 61.1775C167.814 57.7876 165.975 53.2257 162.574 48.5264C155.759 39.1105 142.721 29.2105 117.88 27.0135L117.792 28.0096ZM169.437 66.8495C169.524 67.3418 169.524 67.3419 169.523 67.3419C169.523 67.3419 169.523 67.3419 169.523 67.3419C169.523 67.3419 169.524 67.3418 169.525 67.3417C169.526 67.3414 169.529 67.3409 169.533 67.3402C169.541 67.3389 169.555 67.3368 169.573 67.334C169.609 67.3285 169.666 67.3204 169.741 67.3111C169.891 67.2925 170.116 67.2686 170.41 67.2492C170.997 67.2104 171.856 67.1896 172.927 67.2638C175.071 67.4122 178.066 67.9407 181.447 69.4656C188.196 72.509 196.558 79.555 202.751 95.6569L203.685 95.2979C197.412 78.9899 188.884 71.722 181.858 68.554C178.353 66.9731 175.239 66.4215 172.996 66.2662C171.875 66.1885 170.971 66.2099 170.344 66.2514C170.03 66.2721 169.785 66.2978 169.617 66.3188C169.533 66.3292 169.468 66.3385 169.423 66.3453C169.401 66.3487 169.383 66.3515 169.371 66.3535C169.365 66.3545 169.36 66.3554 169.356 66.356C169.354 66.3563 169.353 66.3565 169.352 66.3568C169.351 66.3568 169.35 66.357 169.35 66.357C169.35 66.3571 169.349 66.3572 169.437 66.8495ZM202.751 95.6569C208.942 111.752 208.95 130.929 207.395 146.121C206.618 153.711 205.453 160.29 204.481 164.972C203.996 167.313 203.559 169.178 203.244 170.458C203.086 171.097 202.959 171.59 202.871 171.923C202.828 172.089 202.794 172.216 202.771 172.3C202.759 172.342 202.751 172.374 202.745 172.395C202.742 172.405 202.74 172.413 202.738 172.418C202.738 172.421 202.737 172.423 202.737 172.424C202.737 172.425 202.737 172.425 202.736 172.425C202.736 172.426 202.736 172.426 203.218 172.56C203.7 172.694 203.7 172.694 203.7 172.694C203.7 172.693 203.7 172.693 203.7 172.692C203.701 172.69 203.701 172.688 203.702 172.685C203.704 172.68 203.706 172.671 203.709 172.66C203.715 172.638 203.724 172.605 203.736 172.562C203.759 172.475 203.794 172.347 203.838 172.178C203.927 171.84 204.056 171.342 204.215 170.697C204.533 169.407 204.972 167.529 205.46 165.175C206.437 160.468 207.609 153.854 208.39 146.223C209.951 130.977 209.959 111.612 203.685 95.2979L202.751 95.6569ZM203.218 172.56C203.707 172.666 203.707 172.666 203.707 172.665C203.707 172.665 203.707 172.664 203.707 172.663C203.708 172.662 203.708 172.659 203.709 172.655C203.71 172.648 203.713 172.637 203.716 172.623C203.722 172.594 203.732 172.551 203.745 172.494C203.77 172.379 203.808 172.208 203.86 171.984C203.962 171.536 204.116 170.875 204.322 170.025C204.733 168.325 205.351 165.87 206.177 162.854C207.831 156.82 210.317 148.542 213.651 139.563C220.327 121.578 230.363 100.888 243.83 89.7308L243.192 88.9608C229.505 100.3 219.395 121.217 212.713 139.215C209.367 148.228 206.872 156.535 205.213 162.589C204.383 165.617 203.763 168.081 203.35 169.79C203.143 170.644 202.988 171.309 202.885 171.761C202.833 171.987 202.794 172.16 202.768 172.277C202.755 172.335 202.746 172.379 202.739 172.409C202.736 172.424 202.733 172.435 202.732 172.443C202.731 172.446 202.73 172.449 202.73 172.451C202.73 172.452 202.73 172.453 202.729 172.453C202.729 172.454 202.729 172.454 203.218 172.56ZM243.83 89.7308C265.137 72.0787 290.328 82.4439 299.877 87.5188L300.347 86.6358C290.766 81.5445 265.022 70.8759 243.192 88.9608L243.83 89.7308Z" fill="#CACACA"/>
<ellipse cx="306" cy="89.5" rx="9" ry="8.5" fill="url(#paint0_radial)"/>
<rect x="171.903" y="183.769" width="53.627" height="35.1652" rx="12" fill="#F04B01" fill-opacity="0.1"/>
<path d="M208.826 201.791L193.661 210.546L193.661 193.035L208.826 201.791Z" fill="#F04B01"/>
<ellipse cx="56" cy="63.5" rx="8" ry="7.5" fill="url(#paint1_radial)"/>
<circle cx="170.37" cy="67.8853" r="5.69361" fill="url(#paint2_radial)"/>
<circle cx="201.904" cy="175.626" r="5.69361" fill="url(#paint3_radial)"/>
<path d="M58.4492 189.908L68.8203 193.846V198.117L54.1074 191.561V188.168L68.8203 181.629V185.9L58.4492 189.908ZM74.709 203.197H71.3516L81.4238 175.406H84.7812L74.709 203.197ZM98.668 189.82L87.8047 185.83V181.629L102.992 188.168V191.561L87.8047 198.1V193.898L98.668 189.82Z" fill="#1DA3A0"/>
<path d="M267.326 40.9219C264.109 40.0195 262.468 37.9642 262.404 34.7559V31.8438C262.404 29.793 261.525 28.7676 259.766 28.7676V26.334C261.525 26.334 262.404 25.304 262.404 23.2441V20.3457C262.432 18.7051 262.855 17.3789 263.676 16.3672C264.505 15.3555 265.722 14.6217 267.326 14.166L267.982 16.0801C266.406 16.5905 265.59 17.985 265.535 20.2637V23.2168C265.535 25.2676 264.747 26.7077 263.17 27.5371C264.747 28.3757 265.535 29.8294 265.535 31.8984V34.8105C265.59 37.0892 266.406 38.4837 267.982 38.9941L267.326 40.9219ZM273.629 30.1348H270.771L270.457 16.0938H273.957L273.629 30.1348ZM270.361 34.4277C270.361 33.9082 270.53 33.4798 270.867 33.1426C271.204 32.7962 271.665 32.623 272.248 32.623C272.831 32.623 273.292 32.7962 273.629 33.1426C273.966 33.4798 274.135 33.9082 274.135 34.4277C274.135 34.929 273.971 35.3483 273.643 35.6855C273.314 36.0228 272.85 36.1914 272.248 36.1914C271.646 36.1914 271.182 36.0228 270.854 35.6855C270.525 35.3483 270.361 34.929 270.361 34.4277ZM284.074 28.877H276.896V26.1973H284.074V28.877ZM293.262 28.877H286.084V26.1973H293.262V28.877ZM294.67 38.9941C296.274 38.4746 297.094 37.0527 297.131 34.7285V31.8848C297.131 29.7793 297.96 28.3346 299.619 27.5508C297.96 26.7669 297.131 25.3086 297.131 23.1758V20.3457C297.094 18.0215 296.274 16.5996 294.67 16.0801L295.326 14.166C296.985 14.6309 298.22 15.3874 299.031 16.4355C299.842 17.4746 300.248 18.8372 300.248 20.5234V23.2578C300.248 25.3086 301.132 26.334 302.9 26.334V28.7676C301.132 28.7676 300.248 29.793 300.248 31.8438V34.5371C300.248 36.2415 299.838 37.6133 299.018 38.6523C298.206 39.7005 296.976 40.457 295.326 40.9219L294.67 38.9941Z" fill="#C8C8C8"/>
<defs>
<radialGradient id="paint0_radial" cx="0" cy="0" r="1" gradientUnits="userSpaceOnUse" gradientTransform="translate(306 89.5) rotate(90) scale(8.5 9)">
<stop stop-color="#FF0000"/>
<stop offset="0.712134" stop-color="#FFEC36"/>
<stop offset="0.925689" stop-color="#5E81FF"/>
</radialGradient>
<radialGradient id="paint1_radial" cx="0" cy="0" r="1" gradientUnits="userSpaceOnUse" gradientTransform="translate(56 63.5) rotate(90) scale(7.5 8)">
<stop stop-color="#FF0000"/>
<stop offset="0.811098" stop-color="#FFEC36"/>
<stop offset="1" stop-color="#5E81FF"/>
</radialGradient>
<radialGradient id="paint2_radial" cx="0" cy="0" r="1" gradientUnits="userSpaceOnUse" gradientTransform="translate(170.37 67.8853) rotate(90) scale(5.69361)">
<stop stop-color="#FF0000"/>
<stop offset="0.811098" stop-color="#FFEC36"/>
<stop offset="1" stop-color="#5E81FF"/>
</radialGradient>
<radialGradient id="paint3_radial" cx="0" cy="0" r="1" gradientUnits="userSpaceOnUse" gradientTransform="translate(201.904 175.626) rotate(90) scale(5.69361)">
<stop stop-color="#FF0000"/>
<stop offset="0.811098" stop-color="#FFEC36"/>
<stop offset="1" stop-color="#5E81FF"/>
</radialGradient>
<clipPath id="clip0">
<rect width="20.1466" height="20.1466" fill="white" transform="translate(311.834 79.7104)"/>
</clipPath>
</defs>
</svg>
