<svg width="389" height="513" viewBox="0 0 389 513" fill="none" xmlns="http://www.w3.org/2000/svg">
<circle cx="17" cy="38.0674" r="13.5" fill="white" stroke="#34BED9" stroke-width="7"/>
<circle cx="181" cy="196.067" r="13.5" fill="white" stroke="#3496D9" stroke-width="7"/>
<path d="M327.5 309.567C327.5 316.649 321.555 322.567 314 322.567C306.445 322.567 300.5 316.649 300.5 309.567C300.5 302.485 306.445 296.567 314 296.567C321.555 296.567 327.5 302.485 327.5 309.567Z" fill="white" stroke="#9733D8" stroke-width="7"/>
<path d="M166.5 476.067C166.5 483.622 160.582 489.567 153.5 489.567C146.418 489.567 140.5 483.622 140.5 476.067C140.5 468.512 146.418 462.567 153.5 462.567C160.582 462.567 166.5 468.512 166.5 476.067Z" fill="white" stroke="#4358DA" stroke-width="7"/>
<path d="M343.5 48.0674C343.5 55.6225 337.582 61.5674 330.5 61.5674C323.418 61.5674 317.5 55.6225 317.5 48.0674C317.5 40.5123 323.418 34.5674 330.5 34.5674C337.582 34.5674 343.5 40.5123 343.5 48.0674Z" fill="white" stroke="#4257D9" stroke-width="7"/>
<path d="M261.933 405.057C259.591 407.399 259.591 411.196 261.933 413.538L263.276 414.881C264.717 416.321 264.717 418.656 263.276 420.096C261.836 421.537 259.501 421.537 258.061 420.096L256.843 418.879C254.432 416.467 250.523 416.467 248.112 418.879L247.219 419.771C245.691 421.299 243.214 421.299 241.686 419.771C240.158 418.243 240.158 415.766 241.686 414.238L242.579 413.346C244.99 410.934 244.99 407.025 242.579 404.614L241.338 403.373C239.898 401.933 239.898 399.598 241.338 398.158C242.778 396.718 245.113 396.718 246.553 398.158L247.92 399.524C250.261 401.866 254.058 401.866 256.4 399.524L257.166 398.758C258.694 397.23 261.171 397.23 262.699 398.758C264.227 400.286 264.227 402.763 262.699 404.291L261.933 405.057Z" fill="#DDDEDF" stroke="#C5C5C5"/>
<path d="M65.5015 373.977C63.1598 376.318 63.1598 380.115 65.5015 382.457L66.8452 383.8C68.2854 385.241 68.2854 387.575 66.8452 389.016C65.4051 390.456 63.0702 390.456 61.63 389.016L60.4121 387.798C58.0009 385.386 54.0916 385.386 51.6804 387.798L50.788 388.69C49.2602 390.218 46.783 390.218 45.2552 388.69C43.7273 387.162 43.7273 384.685 45.2552 383.157L46.1475 382.265C48.5587 379.854 48.5587 375.944 46.1475 373.533L44.9069 372.292C43.4668 370.852 43.4668 368.517 44.9069 367.077C46.3471 365.637 48.682 365.637 50.1221 367.077L51.4885 368.444C53.8302 370.785 57.6269 370.785 59.9687 368.444L60.7352 367.677C62.2631 366.149 64.7402 366.149 66.2681 367.677C67.796 369.205 67.796 371.682 66.2681 373.21L65.5015 373.977Z" fill="#DDDEDF" stroke="#C5C5C5"/>
<path d="M89.1231 152.681C86.7814 155.022 86.7814 158.819 89.1231 161.161L90.4668 162.505C91.907 163.945 91.907 166.28 90.4668 167.72C89.0267 169.16 86.6918 169.16 85.2516 167.72L84.0337 166.502C81.6225 164.091 77.7132 164.091 75.302 166.502L74.4096 167.394C72.8818 168.922 70.4046 168.922 68.8768 167.394C67.3489 165.866 67.3489 163.389 68.8768 161.861L69.7691 160.969C72.1803 158.558 72.1803 154.648 69.7691 152.237L68.5285 150.997C67.0884 149.556 67.0884 147.222 68.5285 145.781C69.9686 144.341 72.3036 144.341 73.7437 145.781L75.1101 147.148C77.4518 149.49 81.2485 149.49 83.5903 147.148L84.3568 146.381C85.8847 144.853 88.3618 144.853 89.8897 146.381C91.4175 147.909 91.4175 150.386 89.8897 151.914L89.1231 152.681Z" fill="#DDDEDF" stroke="#C5C5C5"/>
<path d="M258.203 252.139C255.861 254.481 255.861 258.278 258.203 260.62L259.546 261.963C260.987 263.403 260.987 265.738 259.546 267.178C258.106 268.619 255.771 268.619 254.331 267.178L253.113 265.961C250.702 263.549 246.793 263.549 244.382 265.961L243.489 266.853C241.961 268.381 239.484 268.381 237.956 266.853C236.428 265.325 236.428 262.848 237.956 261.32L238.849 260.428C241.26 258.016 241.26 254.107 238.849 251.696L237.608 250.455C236.168 249.015 236.168 246.68 237.608 245.24C239.048 243.8 241.383 243.8 242.823 245.24L244.19 246.607C246.531 248.948 250.328 248.948 252.67 246.607L253.436 245.84C254.964 244.312 257.441 244.312 258.969 245.84C260.497 247.368 260.497 249.845 258.969 251.373L258.203 252.139Z" fill="#DDDEDF" stroke="#C5C5C5"/>
<path d="M222.934 68.987C220.592 71.3288 220.592 75.1255 222.934 77.4672L224.278 78.8109C225.718 80.251 225.718 82.586 224.278 84.0261C222.838 85.4662 220.503 85.4662 219.063 84.0261L217.845 82.8082C215.434 80.397 211.524 80.397 209.113 82.8082L208.221 83.7005C206.693 85.2284 204.216 85.2284 202.688 83.7005C201.16 82.1727 201.16 79.6955 202.688 78.1677L203.58 77.2753C205.991 74.8641 205.991 70.9548 203.58 68.5436L202.34 67.303C200.899 65.8628 200.899 63.5279 202.34 62.0878C203.78 60.6476 206.115 60.6476 207.555 62.0878L208.921 63.4542C211.263 65.7959 215.06 65.7959 217.401 63.4542L218.168 62.6876C219.696 61.1598 222.173 61.1598 223.701 62.6876C225.229 64.2155 225.229 66.6926 223.701 68.2205L222.934 68.987Z" fill="#DDDEDF" stroke="#C5C5C5"/>
<path d="M344.389 457.941C343.767 459.173 344.262 460.677 345.494 461.299C346.727 461.921 348.23 461.427 348.853 460.194L344.389 457.941ZM339.726 332.675C338.405 332.274 337.009 333.02 336.608 334.342L330.075 355.872C329.674 357.194 330.42 358.59 331.742 358.99C333.063 359.391 334.459 358.645 334.86 357.324L340.666 338.186L359.805 343.992C361.126 344.393 362.522 343.647 362.923 342.326C363.324 341.005 362.578 339.609 361.257 339.208L339.726 332.675ZM348.853 460.194C371.62 415.107 356.607 362.707 341.205 333.889L336.795 336.246C351.878 364.467 366.079 414.988 344.389 457.941L348.853 460.194Z" fill="url(#paint0_linear)"/>
<path d="M156.948 163.428C157.736 164.561 159.294 164.841 160.428 164.052C161.561 163.264 161.841 161.706 161.052 160.572L156.948 163.428ZM46.4567 51.6271C45.1089 51.9272 44.2597 53.263 44.5598 54.6107L49.4499 76.5729C49.75 77.9206 51.0858 78.7699 52.4335 78.4698C53.7812 78.1697 54.6305 76.8339 54.3304 75.4862L49.9836 55.9643L69.5055 51.6175C70.8532 51.3174 71.7025 49.9816 71.4024 48.6339C71.1023 47.2862 69.7665 46.4369 68.4188 46.737L46.4567 51.6271ZM161.052 160.572C130.999 117.37 75.7963 69.4129 48.3413 51.9577L45.6587 56.1771C72.6382 73.33 127.326 120.847 156.948 163.428L161.052 160.572Z" fill="url(#paint1_linear)"/>
<path d="M273.259 325.99C274.602 325.667 275.428 324.317 275.105 322.974C274.782 321.632 273.431 320.806 272.089 321.129L273.259 325.99ZM170.687 435.95C171.212 437.227 172.673 437.837 173.95 437.313L194.763 428.764C196.04 428.24 196.65 426.779 196.125 425.502C195.601 424.225 194.14 423.614 192.863 424.139L174.363 431.738L166.764 413.237C166.24 411.96 164.779 411.35 163.502 411.875C162.225 412.399 161.614 413.86 162.139 415.137L170.687 435.95ZM272.089 321.129C247.299 327.097 225.041 348.11 207.574 370.918C190.039 393.815 176.978 418.989 170.693 434.036L175.307 435.964C181.453 421.25 194.309 396.463 211.544 373.958C228.846 351.365 250.21 331.539 273.259 325.99L272.089 321.129Z" fill="url(#paint2_linear)"/>
<path d="M127.32 437.068C127.834 438.349 127.213 439.805 125.932 440.32C124.651 440.834 123.195 440.213 122.68 438.932L127.32 437.068ZM153.603 223.532C154.966 223.313 156.249 224.24 156.468 225.603L160.039 247.818C160.258 249.181 159.33 250.464 157.967 250.683C156.604 250.902 155.321 249.975 155.102 248.612L151.928 228.865L132.182 232.039C130.819 232.258 129.536 231.33 129.317 229.967C129.098 228.604 130.025 227.321 131.388 227.102L153.603 223.532ZM122.68 438.932C107.7 401.634 102.047 365.911 106.672 330.511C111.297 295.116 126.172 260.22 151.974 224.535L156.026 227.465C130.602 262.627 116.125 296.754 111.63 331.159C107.136 365.558 112.597 400.412 127.32 437.068L122.68 438.932Z" fill="url(#paint3_linear)"/>
<path d="M206 176.067L312 73.0674" stroke="#DDDEDF" stroke-width="5" stroke-linecap="round" stroke-linejoin="round" stroke-dasharray="10 10"/>
<path d="M301 33.0679C238 9.06738 101.241 9.27192 49 25.0675" stroke="#DDDEDF" stroke-width="5" stroke-linecap="round" stroke-linejoin="round" stroke-dasharray="10 10"/>
<path d="M123.009 95.0457L122.135 94.1311L126.728 89.7451L124.377 87.2832L119.784 91.6692L118.906 90.7497L124.255 85.6413L128.358 89.9373L123.009 95.0457ZM133.948 95.7906L128.599 100.899L127.72 99.9795L132.313 95.5935L130.576 93.7742L128.47 95.5775C127.493 96.3964 126.688 96.8694 126.053 96.9966C125.422 97.1271 124.84 96.93 124.307 96.4052L123.958 96.0394L124.763 95.2698L125.033 95.513C125.35 95.7781 125.724 95.827 126.157 95.6597C126.589 95.4924 127.241 95.0271 128.113 94.2639L130.496 92.1768L133.948 95.7906ZM133.155 105.67C133.21 105.516 133.357 105.294 133.595 105.003C132.748 105 132.042 104.703 131.479 104.113C130.975 103.586 130.71 103.011 130.682 102.388C130.661 101.765 130.879 101.235 131.338 100.798C131.895 100.266 132.528 100.064 133.237 100.194C133.953 100.323 134.678 100.771 135.411 101.539L136.261 102.429L136.681 102.028C137.001 101.723 137.163 101.385 137.168 101.014C137.177 100.64 137.003 100.267 136.648 99.8949C136.336 99.5686 135.993 99.3737 135.617 99.3103C135.241 99.2468 134.936 99.3268 134.702 99.5503L133.824 98.6308C134.091 98.3759 134.438 98.2243 134.865 98.1761C135.298 98.128 135.741 98.1962 136.194 98.3807C136.651 98.5685 137.065 98.8569 137.436 99.2458C138.025 99.8621 138.331 100.493 138.355 101.138C138.382 101.78 138.132 102.366 137.604 102.895L135.142 105.246C134.651 105.715 134.32 106.151 134.15 106.553L134.07 106.629L133.155 105.67ZM132.402 103.486C132.676 103.773 133.01 103.974 133.404 104.09C133.797 104.205 134.168 104.207 134.516 104.096L135.613 103.048L134.928 102.331C133.858 101.21 132.995 100.963 132.339 101.59C132.053 101.863 131.92 102.173 131.941 102.518C131.962 102.864 132.116 103.186 132.402 103.486ZM139.434 112.245L138.56 111.33L140.844 109.149L138.498 106.692L136.214 108.873L135.336 107.954L140.685 102.845L141.563 103.765L139.244 105.979L141.591 108.436L143.909 106.222L144.783 107.136L139.434 112.245ZM149.051 118.553L146.171 115.538L143.645 116.655L142.71 115.676L152.533 111.55L153.327 112.381L148.758 122.009L147.828 121.035L149.051 118.553ZM147.225 115.079L149.563 117.526L151.758 113.084L147.225 115.079Z" fill="#777777"/>
<path d="M87.5579 362.529C88.5224 362.673 89.3409 362.962 90.0135 363.394C90.6815 363.826 91.1602 364.368 91.4497 365.02C91.7392 365.671 91.8245 366.394 91.7057 367.187C91.5896 367.962 91.2973 368.621 90.829 369.164C90.3561 369.706 89.7431 370.091 88.9901 370.319C88.2332 370.542 87.3898 370.589 86.46 370.459L85.7502 370.352C84.8037 370.211 83.9923 369.921 83.316 369.483C82.6396 369.045 82.1548 368.498 81.8615 367.841C81.5643 367.179 81.4738 366.461 81.5899 365.686C81.7081 364.897 82.0036 364.231 82.4765 363.689C82.9455 363.142 83.5672 362.761 84.3414 362.545C85.1111 362.328 85.976 362.292 86.936 362.436L87.5579 362.529ZM86.729 363.725C85.5617 363.55 84.632 363.65 83.9398 364.026C83.2431 364.401 82.8317 365.01 82.7054 365.853C82.5825 366.673 82.7989 367.367 83.3545 367.934C83.9063 368.496 84.7355 368.866 85.8422 369.046L86.5656 369.154C87.6968 369.324 88.6224 369.22 89.3423 368.844C90.0584 368.463 90.4788 367.856 90.6037 367.022C90.7293 366.184 90.5223 365.489 89.9827 364.938C89.4386 364.387 88.5974 364.019 87.4592 363.834L86.729 363.725ZM93.3203 355.484L93.133 356.735L86.8524 355.794L86.3482 359.161L92.6287 360.102L92.4403 361.359L85.1254 360.264L86.0054 354.389L93.3203 355.484ZM88.1344 347.097L87.7668 349.551L94.0676 350.495L93.8803 351.746L87.5795 350.802L87.219 353.209L86.2049 353.057L87.1203 346.945L88.1344 347.097ZM88.0114 340.996L88.1988 339.746L95.5136 340.841L95.3263 342.092L89.9923 341.293L94.821 345.465L94.6337 346.716L87.3188 345.62L87.5061 344.37L92.8469 345.17L88.0114 340.996ZM94.7889 334.373L89.503 331.038L89.7369 329.476L97.0518 330.572L96.8645 331.823L91.544 331.026L96.5101 334.189L96.3805 335.054L90.5835 336.654L96.0189 337.468L95.8316 338.718L88.5167 337.623L88.7598 336L94.7889 334.373ZM90.7475 322.729L90.9349 321.479L98.2498 322.574L98.0624 323.825L92.7284 323.026L97.5571 327.198L97.3698 328.449L90.0549 327.353L90.2422 326.103L95.5831 326.903L90.7475 322.729ZM93.8393 315.748C93.4967 315.697 93.2067 315.787 92.9693 316.019C92.7273 316.25 92.5722 316.593 92.504 317.048C92.4379 317.49 92.4974 317.876 92.6827 318.208C92.8687 318.536 93.1172 318.723 93.4282 318.769L93.2419 320.013C92.6064 319.918 92.1256 319.574 91.7997 318.981C91.4737 318.389 91.3705 317.694 91.49 316.896C91.6182 316.04 91.9029 315.4 92.3441 314.978C92.7807 314.555 93.3393 314.394 94.0198 314.496C94.3488 314.546 94.636 314.69 94.8812 314.929C95.1264 315.169 95.3028 315.483 95.4104 315.873C95.8264 315.064 96.4581 314.723 97.3054 314.85C97.977 314.951 98.47 315.29 98.7844 315.867C99.0989 316.444 99.1913 317.165 99.0617 318.03C98.9355 318.873 98.6261 319.539 98.1336 320.027C97.6373 320.51 97.0376 320.699 96.3345 320.594L96.5208 319.35C96.8769 319.403 97.207 319.291 97.5111 319.014C97.8114 318.732 97.9971 318.355 98.0679 317.881C98.1395 317.404 98.0868 317.002 97.9098 316.676C97.7329 316.35 97.4686 316.16 97.1171 316.108C96.7069 316.046 96.3954 316.126 96.1825 316.348C95.9658 316.564 95.8186 316.931 95.7409 317.45L95.5536 318.7L94.499 318.543L94.7025 317.184C94.8076 316.328 94.5198 315.85 93.8393 315.748ZM100.28 309.019C100.125 309.07 99.8594 309.09 99.483 309.08C99.9999 309.752 100.198 310.491 100.077 311.298C99.9691 312.019 99.6775 312.581 99.2023 312.985C98.7233 313.383 98.1706 313.535 97.5441 313.441C96.7824 313.327 96.2352 312.95 95.9025 312.311C95.5659 311.666 95.4762 310.818 95.6335 309.768L95.8158 308.551L95.2412 308.465C94.804 308.4 94.4374 308.478 94.1413 308.701C93.8408 308.924 93.6523 309.289 93.576 309.799C93.5092 310.245 93.5659 310.636 93.746 310.971C93.9261 311.307 94.1762 311.499 94.4962 311.547L94.3078 312.804C93.9427 312.75 93.6104 312.569 93.3109 312.261C93.0075 311.948 92.7897 311.556 92.6576 311.085C92.5261 310.609 92.5002 310.105 92.5799 309.573C92.7061 308.731 93.0168 308.102 93.5121 307.688C94.0028 307.273 94.619 307.112 95.3609 307.204L98.7276 307.709C99.3992 307.809 99.9461 307.804 100.368 307.692L100.477 307.708L100.28 309.019ZM99.016 310.952C99.0747 310.56 99.029 310.173 98.8788 309.791C98.7287 309.409 98.5031 309.115 98.2023 308.909L96.7014 308.684L96.5546 309.664C96.3251 311.196 96.6588 312.03 97.5557 312.164C97.9478 312.223 98.2738 312.138 98.5338 311.91C98.7938 311.681 98.9545 311.362 99.016 310.952ZM93.433 304.8L93.6214 303.543L99.9154 304.486L100.42 301.119L94.1257 300.176L94.313 298.925L100.607 299.868L100.738 298.996L103.91 299.596L103.742 300.718L101.572 300.393L100.748 305.896L93.433 304.8ZM95.355 291.969L95.5423 290.718L102.857 291.814L102.67 293.065L97.3358 292.266L102.165 296.438L101.977 297.689L94.6624 296.593L94.8497 295.342L100.191 296.142L95.355 291.969ZM96.6805 283.119L103.995 284.215L103.807 285.473L100.961 285.046L100.678 286.932L103.266 289.083L103.064 290.435L100.304 288.141C100.062 288.584 99.7446 288.905 99.3507 289.104C98.9531 289.298 98.5153 289.359 98.0376 289.288C97.3706 289.188 96.8717 288.858 96.541 288.296C96.2058 287.735 96.0987 287.034 96.2198 286.195L96.6805 283.119ZM98.2395 288.032C98.5955 288.086 98.9022 288.007 99.1595 287.797C99.4123 287.586 99.571 287.28 99.6356 286.88L99.9333 284.892L97.5062 284.529L97.2369 286.327C97.1674 286.791 97.2269 287.178 97.4156 287.487C97.5998 287.796 97.8744 287.978 98.2395 288.032Z" fill="#777777"/>
<path d="M185.423 361.833C185.023 361.487 184.579 361.359 184.092 361.449C183.603 361.533 183.131 361.838 182.675 362.365C182.293 362.806 182.094 363.283 182.079 363.794C182.064 364.299 182.235 364.707 182.594 365.017L181.735 366.01C181.335 365.663 181.071 365.245 180.942 364.753C180.816 364.258 180.835 363.738 180.999 363.193C181.16 362.646 181.446 362.134 181.858 361.658C182.586 360.818 183.341 360.329 184.122 360.192C184.901 360.052 185.626 360.273 186.298 360.855C186.645 361.156 186.87 361.537 186.971 361.998C187.072 362.46 187.04 362.953 186.874 363.479C187.937 362.85 188.908 362.916 189.786 363.676C190.461 364.261 190.779 364.976 190.74 365.823C190.701 366.669 190.317 367.512 189.589 368.353C189.157 368.852 188.675 369.231 188.144 369.489C187.613 369.74 187.085 369.838 186.561 369.782C186.037 369.726 185.549 369.502 185.098 369.112L185.957 368.119C186.353 368.462 186.82 368.592 187.357 368.508C187.89 368.421 188.365 368.137 188.783 367.655C189.251 367.114 189.498 366.574 189.524 366.036C189.553 365.494 189.361 365.045 188.948 364.687C188.066 363.923 187.143 364.08 186.18 365.157L185.375 366.087L184.558 365.38L185.359 364.455C185.785 363.943 186 363.464 186.007 363.018C186.014 362.571 185.819 362.177 185.423 361.833ZM195.885 360.873C195.727 360.833 195.492 360.707 195.179 360.497C195.256 361.341 195.027 362.072 194.493 362.689C194.016 363.24 193.469 363.559 192.851 363.645C192.234 363.725 191.685 363.558 191.206 363.143C190.624 362.639 190.364 362.028 190.425 361.309C190.486 360.584 190.864 359.82 191.559 359.018L192.365 358.087L191.925 357.707C191.591 357.418 191.239 357.288 190.87 357.318C190.497 357.345 190.142 357.553 189.805 357.942C189.51 358.283 189.348 358.644 189.321 359.024C189.293 359.404 189.402 359.699 189.646 359.911L188.814 360.872C188.535 360.631 188.351 360.3 188.263 359.88C188.174 359.453 188.2 359.006 188.341 358.537C188.484 358.064 188.732 357.625 189.084 357.218C189.642 356.574 190.241 356.21 190.881 356.125C191.518 356.037 192.125 356.231 192.702 356.706L195.275 358.935C195.789 359.379 196.254 359.667 196.67 359.799L196.753 359.87L195.885 360.873ZM193.782 361.829C194.042 361.529 194.21 361.178 194.288 360.775C194.366 360.372 194.333 360.002 194.189 359.667L193.042 358.674L192.393 359.423C191.379 360.594 191.214 361.477 191.9 362.071C192.2 362.33 192.52 362.433 192.862 362.379C193.204 362.326 193.511 362.142 193.782 361.829ZM196.59 350.325L194.966 352.201L199.782 356.372L198.954 357.328L194.138 353.157L192.545 354.997L191.77 354.326L195.815 349.654L196.59 350.325ZM198.957 351.57C198.409 351.096 198.009 350.563 197.757 349.97C197.507 349.374 197.429 348.782 197.522 348.194C197.619 347.602 197.88 347.06 198.307 346.567C198.966 345.806 199.762 345.419 200.695 345.407C201.631 345.391 202.536 345.763 203.411 346.52L203.478 346.578C204.023 347.05 204.421 347.578 204.673 348.164C204.925 348.744 205.003 349.333 204.907 349.931C204.814 350.526 204.55 351.075 204.114 351.578C203.458 352.336 202.662 352.722 201.726 352.738C200.793 352.75 199.893 352.38 199.024 351.629L198.957 351.57ZM199.903 350.708C200.523 351.245 201.145 351.533 201.768 351.572C202.394 351.608 202.916 351.384 203.334 350.902C203.754 350.416 203.899 349.866 203.768 349.252C203.633 348.635 203.223 348.03 202.537 347.436C201.924 346.905 201.301 346.622 200.668 346.587C200.035 346.545 199.51 346.765 199.092 347.248C198.684 347.72 198.542 348.263 198.667 348.877C198.792 349.492 199.204 350.102 199.903 350.708ZM210.906 343.524L210.074 344.486L208.048 342.732C207.794 343.247 207.477 343.726 207.095 344.167C206.489 344.866 205.848 345.245 205.17 345.303C204.496 345.358 203.825 345.103 203.157 344.537L201.488 343.092L202.316 342.136L204.016 343.608C204.865 344.312 205.629 344.272 206.309 343.487C206.691 343.046 207.009 342.567 207.263 342.051L204.482 339.644L205.315 338.683L210.906 343.524ZM211.361 338.185L210.757 338.883L213.139 340.946L212.307 341.907L206.715 337.065L207.547 336.104L209.914 338.153L210.456 337.528L209.718 333.598L210.72 332.44L211.492 336.979L216.473 337.096L215.421 338.31L211.361 338.185ZM220.173 332.822C220.015 332.781 219.78 332.656 219.468 332.446C219.545 333.29 219.316 334.021 218.782 334.637C218.305 335.189 217.757 335.507 217.14 335.594C216.522 335.674 215.974 335.506 215.495 335.092C214.913 334.587 214.652 333.976 214.714 333.258C214.775 332.533 215.153 331.769 215.848 330.966L216.653 330.036L216.214 329.656C215.88 329.366 215.528 329.237 215.159 329.266C214.786 329.293 214.431 329.501 214.094 329.891C213.798 330.232 213.637 330.592 213.609 330.972C213.582 331.352 213.69 331.648 213.935 331.86L213.103 332.821C212.824 332.58 212.64 332.249 212.552 331.829C212.463 331.402 212.489 330.954 212.629 330.485C212.773 330.013 213.021 329.574 213.373 329.167C213.931 328.523 214.53 328.158 215.17 328.073C215.807 327.986 216.413 328.18 216.99 328.655L219.564 330.883C220.077 331.328 220.542 331.616 220.959 331.748L221.041 331.819L220.173 332.822ZM218.071 333.777C218.33 333.478 218.499 333.126 218.577 332.723C218.654 332.32 218.621 331.951 218.478 331.616L217.33 330.622L216.682 331.372C215.667 332.543 215.503 333.426 216.189 334.019C216.488 334.279 216.809 334.382 217.151 334.328C217.493 334.274 217.799 334.091 218.071 333.777Z" fill="#777777"/>
<path d="M378.822 384.77C379.348 384.72 379.747 384.488 380.019 384.074C380.297 383.663 380.403 383.111 380.337 382.416C380.283 381.836 380.076 381.363 379.716 380.999C379.362 380.638 378.949 380.48 378.477 380.525L378.354 379.218C378.881 379.168 379.366 379.267 379.81 379.514C380.255 379.765 380.617 380.138 380.897 380.633C381.182 381.129 381.354 381.689 381.413 382.315C381.517 383.422 381.348 384.306 380.907 384.965C380.47 385.624 379.809 385.995 378.924 386.079C378.466 386.122 378.035 386.02 377.632 385.774C377.229 385.528 376.895 385.164 376.63 384.681C376.349 385.884 375.63 386.539 374.473 386.648C373.584 386.732 372.847 386.467 372.263 385.854C371.679 385.24 371.335 384.38 371.231 383.273C371.169 382.615 371.228 382.005 371.409 381.444C371.595 380.886 371.889 380.437 372.292 380.097C372.695 379.757 373.193 379.559 373.788 379.503L373.911 380.81C373.389 380.859 372.973 381.107 372.662 381.552C372.356 381.998 372.233 382.538 372.293 383.173C372.36 383.886 372.579 384.437 372.95 384.828C373.321 385.223 373.779 385.395 374.323 385.344C375.485 385.235 376.009 384.46 375.897 383.02L375.781 381.794L376.857 381.693L376.971 382.912C377.047 383.573 377.244 384.06 377.562 384.373C377.88 384.687 378.3 384.819 378.822 384.77ZM372.283 392.993C372.421 392.906 372.674 392.823 373.042 392.743C372.379 392.215 372.009 391.544 371.933 390.732C371.864 390.006 372.012 389.39 372.377 388.885C372.746 388.383 373.246 388.103 373.877 388.043C374.644 387.971 375.265 388.206 375.742 388.747C376.224 389.292 376.514 390.093 376.614 391.15L376.729 392.375L377.307 392.321C377.747 392.279 378.084 392.115 378.318 391.828C378.557 391.54 378.652 391.139 378.603 390.627C378.561 390.177 378.412 389.811 378.157 389.529C377.901 389.246 377.613 389.12 377.291 389.15L377.171 387.884C377.539 387.85 377.905 387.946 378.27 388.172C378.639 388.403 378.945 388.731 379.186 389.157C379.428 389.588 379.574 390.071 379.625 390.606C379.704 391.455 379.554 392.139 379.172 392.66C378.796 393.181 378.236 393.485 377.494 393.574L374.104 393.892C373.428 393.956 372.899 394.093 372.516 394.303L372.407 394.313L372.283 392.993ZM373.046 390.813C373.083 391.208 373.22 391.572 373.458 391.907C373.695 392.242 373.985 392.473 374.326 392.601L375.837 392.459L375.744 391.472C375.599 389.93 375.075 389.201 374.172 389.286C373.778 389.323 373.481 389.483 373.284 389.768C373.086 390.052 373.007 390.4 373.046 390.813ZM379.416 400.794L379.183 398.324L372.84 398.921L372.722 397.662L379.065 397.065L378.837 394.642L379.858 394.546L380.437 400.698L379.416 400.794ZM376.88 401.644C377.601 401.576 378.263 401.656 378.866 401.883C379.469 402.115 379.951 402.467 380.311 402.942C380.672 403.42 380.883 403.984 380.944 404.633C381.038 405.636 380.768 406.478 380.131 407.161C379.496 407.848 378.602 408.245 377.449 408.354L377.361 408.362C376.644 408.429 375.986 408.352 375.389 408.129C374.796 407.91 374.317 407.559 373.951 407.076C373.585 406.598 373.372 406.027 373.309 405.365C373.215 404.367 373.486 403.524 374.122 402.837C374.758 402.155 375.648 401.76 376.791 401.652L376.88 401.644ZM376.849 402.924C376.032 403.001 375.394 403.251 374.935 403.674C374.477 404.102 374.277 404.633 374.337 405.268C374.397 405.908 374.694 406.393 375.229 406.722C375.768 407.052 376.489 407.174 377.392 407.089C378.2 407.013 378.835 406.759 379.298 406.326C379.765 405.897 379.969 405.366 379.91 404.73C379.851 404.109 379.557 403.631 379.026 403.296C378.496 402.961 377.77 402.837 376.849 402.924ZM374.432 415.84L374.313 414.574L376.981 414.323C376.783 413.783 376.658 413.223 376.603 412.642C376.516 411.721 376.686 410.996 377.112 410.466C377.539 409.94 378.187 409.632 379.058 409.541L381.256 409.334L381.374 410.594L379.135 410.804C378.039 410.93 377.54 411.51 377.637 412.545C377.692 413.126 377.818 413.686 378.015 414.226L381.677 413.881L381.796 415.147L374.432 415.84ZM377.975 419.86L377.889 418.941L374.751 419.236L374.632 417.97L381.996 417.278L382.115 418.543L378.998 418.837L379.076 419.66L382.426 421.844L382.569 423.369L378.756 420.789L375.228 424.307L375.078 422.707L377.975 419.86ZM375.758 429.935C375.896 429.849 376.149 429.765 376.517 429.685C375.854 429.157 375.484 428.487 375.408 427.675C375.34 426.949 375.488 426.333 375.852 425.827C376.221 425.325 376.721 425.045 377.352 424.986C378.119 424.914 378.741 425.148 379.217 425.689C379.699 426.234 379.989 427.035 380.089 428.093L380.204 429.318L380.782 429.263C381.223 429.222 381.56 429.057 381.793 428.77C382.032 428.482 382.127 428.082 382.079 427.569C382.036 427.12 381.888 426.754 381.632 426.471C381.377 426.189 381.088 426.062 380.766 426.093L380.647 424.827C381.014 424.792 381.38 424.888 381.745 425.115C382.114 425.346 382.42 425.674 382.661 426.1C382.903 426.53 383.049 427.013 383.1 427.548C383.18 428.397 383.029 429.082 382.648 429.603C382.271 430.123 381.711 430.428 380.969 430.516L377.58 430.835C376.904 430.898 376.374 431.035 375.991 431.245L375.882 431.255L375.758 429.935ZM376.521 427.755C376.558 428.15 376.695 428.515 376.933 428.85C377.17 429.184 377.46 429.416 377.801 429.544L379.312 429.402L379.22 428.415C379.074 426.872 378.55 426.143 377.647 426.228C377.253 426.265 376.957 426.426 376.759 426.71C376.561 426.994 376.482 427.342 376.521 427.755Z" fill="#777777"/>
<path d="M326.353 494H325.033V489.399H320.016V494H318.703V484.047H320.016V488.326H325.033V484.047H326.353V494ZM333.052 494C332.979 493.854 332.92 493.594 332.874 493.221C332.286 493.831 331.584 494.137 330.769 494.137C330.039 494.137 329.44 493.932 328.971 493.521C328.506 493.107 328.273 492.583 328.273 491.949C328.273 491.179 328.565 490.582 329.148 490.158C329.736 489.73 330.561 489.516 331.623 489.516H332.854V488.935C332.854 488.493 332.721 488.142 332.457 487.882C332.193 487.618 331.803 487.485 331.288 487.485C330.837 487.485 330.459 487.599 330.153 487.827C329.848 488.055 329.695 488.331 329.695 488.654H328.424C328.424 488.285 328.554 487.93 328.813 487.588C329.078 487.242 329.433 486.968 329.88 486.768C330.331 486.567 330.826 486.467 331.363 486.467C332.215 486.467 332.883 486.681 333.366 487.109C333.849 487.533 334.1 488.119 334.118 488.866V492.271C334.118 492.95 334.205 493.49 334.378 493.891V494H333.052ZM330.953 493.036C331.35 493.036 331.726 492.934 332.081 492.729C332.437 492.523 332.694 492.257 332.854 491.929V490.411H331.862C330.313 490.411 329.538 490.865 329.538 491.771C329.538 492.168 329.67 492.478 329.935 492.701C330.199 492.924 330.538 493.036 330.953 493.036ZM341.686 494H340.414V491.32C339.858 491.466 339.288 491.539 338.705 491.539C337.78 491.539 337.074 491.302 336.586 490.828C336.103 490.354 335.857 489.68 335.848 488.805V486.597H337.112V488.846C337.135 489.949 337.666 490.5 338.705 490.5C339.288 490.5 339.858 490.427 340.414 490.281V486.604H341.686V494ZM348.282 494C348.209 493.854 348.15 493.594 348.104 493.221C347.517 493.831 346.815 494.137 345.999 494.137C345.27 494.137 344.671 493.932 344.201 493.521C343.736 493.107 343.504 492.583 343.504 491.949C343.504 491.179 343.796 490.582 344.379 490.158C344.967 489.73 345.792 489.516 346.854 489.516H348.084V488.935C348.084 488.493 347.952 488.142 347.688 487.882C347.423 487.618 347.034 487.485 346.519 487.485C346.067 487.485 345.689 487.599 345.384 487.827C345.078 488.055 344.926 488.331 344.926 488.654H343.654C343.654 488.285 343.784 487.93 344.044 487.588C344.308 487.242 344.664 486.968 345.11 486.768C345.562 486.567 346.056 486.467 346.594 486.467C347.446 486.467 348.114 486.681 348.597 487.109C349.08 487.533 349.33 488.119 349.349 488.866V492.271C349.349 492.95 349.435 493.49 349.608 493.891V494H348.282ZM346.184 493.036C346.58 493.036 346.956 492.934 347.312 492.729C347.667 492.523 347.924 492.257 348.084 491.929V490.411H347.093C345.543 490.411 344.769 490.865 344.769 491.771C344.769 492.168 344.901 492.478 345.165 492.701C345.429 492.924 345.769 493.036 346.184 493.036ZM357.395 486.604V494H356.123V487.649H353.607L353.457 490.418C353.375 491.689 353.161 492.599 352.814 493.146C352.473 493.692 351.928 493.977 351.181 494H350.675V492.886L351.037 492.858C351.447 492.813 351.741 492.576 351.919 492.147C352.097 491.719 352.211 490.926 352.261 489.769L352.397 486.604H357.395ZM359.09 490.233C359.09 489.509 359.231 488.857 359.514 488.278C359.801 487.7 360.197 487.253 360.703 486.938C361.214 486.624 361.795 486.467 362.446 486.467C363.453 486.467 364.267 486.815 364.887 487.513C365.511 488.21 365.823 489.137 365.823 490.295V490.384C365.823 491.104 365.684 491.751 365.406 492.325C365.133 492.895 364.739 493.339 364.224 493.658C363.713 493.977 363.125 494.137 362.46 494.137C361.457 494.137 360.644 493.788 360.02 493.091C359.4 492.394 359.09 491.471 359.09 490.322V490.233ZM360.361 490.384C360.361 491.204 360.55 491.863 360.929 492.359C361.312 492.856 361.822 493.104 362.46 493.104C363.103 493.104 363.613 492.854 363.991 492.353C364.369 491.847 364.559 491.14 364.559 490.233C364.559 489.422 364.365 488.766 363.978 488.265C363.595 487.759 363.084 487.506 362.446 487.506C361.822 487.506 361.318 487.754 360.936 488.251C360.553 488.748 360.361 489.459 360.361 490.384ZM304.102 510H302.837V503.649H299.433V510H298.161V502.604H304.102V510ZM312.38 506.384C312.38 507.509 312.122 508.416 311.607 509.104C311.092 509.793 310.395 510.137 309.516 510.137C308.618 510.137 307.911 509.852 307.396 509.282V512.844H306.132V502.604H307.287L307.349 503.424C307.864 502.786 308.579 502.467 309.495 502.467C310.384 502.467 311.086 502.802 311.601 503.472C312.12 504.142 312.38 505.074 312.38 506.268V506.384ZM311.115 506.24C311.115 505.406 310.938 504.748 310.582 504.265C310.227 503.782 309.739 503.54 309.119 503.54C308.354 503.54 307.779 503.88 307.396 504.559V508.093C307.775 508.767 308.354 509.104 309.133 509.104C309.739 509.104 310.22 508.865 310.575 508.387C310.935 507.904 311.115 507.188 311.115 506.24ZM313.658 506.233C313.658 505.509 313.799 504.857 314.082 504.278C314.369 503.7 314.766 503.253 315.271 502.938C315.782 502.624 316.363 502.467 317.015 502.467C318.022 502.467 318.835 502.815 319.455 503.513C320.079 504.21 320.392 505.137 320.392 506.295V506.384C320.392 507.104 320.253 507.751 319.975 508.325C319.701 508.895 319.307 509.339 318.792 509.658C318.282 509.977 317.694 510.137 317.028 510.137C316.026 510.137 315.212 509.788 314.588 509.091C313.968 508.394 313.658 507.471 313.658 506.322V506.233ZM314.93 506.384C314.93 507.204 315.119 507.863 315.497 508.359C315.88 508.856 316.39 509.104 317.028 509.104C317.671 509.104 318.181 508.854 318.56 508.353C318.938 507.847 319.127 507.14 319.127 506.233C319.127 505.422 318.933 504.766 318.546 504.265C318.163 503.759 317.653 503.506 317.015 503.506C316.39 503.506 315.887 503.754 315.504 504.251C315.121 504.748 314.93 505.459 314.93 506.384ZM321.424 508.968L321.861 508.428C322.354 507.79 322.634 506.833 322.702 505.557L322.818 502.604H327.583V508.968H328.533V512.174H327.269V510H322.107V512.174H320.843L320.85 508.968H321.424ZM322.921 508.968H326.318V503.772H324.042L323.967 505.536C323.889 507.008 323.541 508.152 322.921 508.968ZM330.051 510V502.604H332.936C333.92 502.604 334.674 502.777 335.198 503.123C335.727 503.465 335.991 503.968 335.991 504.634C335.991 504.976 335.889 505.285 335.684 505.563C335.479 505.837 335.175 506.047 334.774 506.192C335.221 506.297 335.579 506.502 335.848 506.808C336.121 507.113 336.258 507.478 336.258 507.901C336.258 508.58 336.007 509.1 335.506 509.46C335.009 509.82 334.305 510 333.394 510H330.051ZM331.315 506.753V508.981H333.407C333.936 508.981 334.33 508.883 334.59 508.688C334.854 508.492 334.986 508.216 334.986 507.86C334.986 507.122 334.444 506.753 333.359 506.753H331.315ZM331.315 505.741H332.949C334.134 505.741 334.727 505.395 334.727 504.702C334.727 504.009 334.166 503.652 333.045 503.629H331.315V505.741ZM342.718 502.604H343.982V510H342.718V504.606L339.307 510H338.042V502.604H339.307V508.004L342.718 502.604ZM351.912 506.787H351.023V510H349.759V506.787H348.87L346.799 510H345.199L347.845 506.172L345.452 502.604H346.983L348.891 505.666H349.759V502.604H351.023V505.666H351.885L353.806 502.604H355.337L352.938 506.179L355.583 510H353.983L351.912 506.787ZM359.664 510.137C358.661 510.137 357.846 509.809 357.217 509.152C356.588 508.492 356.273 507.61 356.273 506.507V506.274C356.273 505.541 356.412 504.887 356.69 504.312C356.973 503.734 357.365 503.283 357.866 502.959C358.372 502.631 358.919 502.467 359.507 502.467C360.468 502.467 361.216 502.784 361.749 503.417C362.282 504.05 362.549 504.957 362.549 506.138V506.664H357.538C357.556 507.393 357.768 507.983 358.174 508.435C358.584 508.881 359.104 509.104 359.732 509.104C360.179 509.104 360.557 509.013 360.867 508.831C361.177 508.649 361.448 508.407 361.681 508.106L362.453 508.708C361.833 509.66 360.904 510.137 359.664 510.137ZM359.507 503.506C358.996 503.506 358.568 503.693 358.222 504.066C357.875 504.436 357.661 504.955 357.579 505.625H361.284V505.529C361.248 504.887 361.075 504.39 360.765 504.039C360.455 503.684 360.035 503.506 359.507 503.506ZM370.062 510H368.797V506.842H365.399V510H364.128V502.604H365.399V505.81H368.797V502.604H370.062V510ZM376.884 502.604H378.148V510H376.884V504.606L373.473 510H372.208V502.604H373.473V508.004L376.884 502.604ZM385.832 502.604V510H384.561V507.122H382.653L380.91 510H379.543L381.402 506.931C380.928 506.757 380.564 506.491 380.309 506.131C380.058 505.766 379.933 505.342 379.933 504.859C379.933 504.185 380.186 503.643 380.691 503.232C381.197 502.818 381.874 502.608 382.722 502.604H385.832ZM381.204 504.873C381.204 505.233 381.327 505.525 381.573 505.748C381.819 505.967 382.145 506.078 382.551 506.083H384.561V503.629H382.742C382.273 503.629 381.899 503.745 381.621 503.978C381.343 504.205 381.204 504.504 381.204 504.873Z" fill="#777777"/>
<path d="M238.147 120.058L237.253 120.952L232.762 116.461L230.355 118.869L234.846 123.359L233.946 124.258L228.716 119.028L232.917 114.828L238.147 120.058ZM238.64 109.104L243.87 114.334L242.971 115.234L238.48 110.743L236.702 112.522L238.553 114.586C239.394 115.543 239.886 116.337 240.027 116.969C240.172 117.597 239.989 118.184 239.476 118.728L239.119 119.086L238.331 118.298L238.568 118.023C238.825 117.7 238.866 117.325 238.688 116.896C238.511 116.468 238.031 115.826 237.248 114.973L235.107 112.638L238.64 109.104ZM248.535 109.67C248.38 109.618 248.154 109.477 247.858 109.245C247.874 110.092 247.594 110.804 247.017 111.381C246.501 111.897 245.933 112.175 245.311 112.217C244.689 112.253 244.154 112.047 243.706 111.599C243.161 111.054 242.945 110.426 243.058 109.713C243.171 108.995 243.603 108.26 244.353 107.509L245.224 106.639L244.813 106.228C244.5 105.916 244.159 105.761 243.788 105.764C243.414 105.764 243.045 105.946 242.681 106.31C242.362 106.63 242.175 106.978 242.12 107.355C242.066 107.732 242.153 108.035 242.381 108.263L241.482 109.162C241.221 108.901 241.062 108.558 241.004 108.133C240.946 107.701 241.004 107.256 241.178 106.799C241.355 106.338 241.634 105.917 242.014 105.537C242.617 104.934 243.24 104.614 243.885 104.575C244.526 104.533 245.117 104.77 245.659 105.286L248.066 107.693C248.546 108.173 248.989 108.494 249.395 108.655L249.472 108.732L248.535 109.67ZM246.369 110.472C246.65 110.192 246.843 109.854 246.949 109.457C247.056 109.061 247.049 108.69 246.93 108.345L245.857 107.272L245.156 107.973C244.06 109.069 243.833 109.937 244.474 110.579C244.755 110.859 245.067 110.985 245.412 110.956C245.757 110.927 246.076 110.766 246.369 110.472ZM254.964 103.241L254.069 104.135L251.836 101.902L249.434 104.304L251.667 106.538L250.768 107.437L245.538 102.207L246.437 101.308L248.704 103.575L251.106 101.172L248.839 98.9052L249.733 98.011L254.964 103.241ZM257.018 88.6383L253.625 92.0316L255.732 94.1391L257.482 92.3893C258.226 91.6643 258.988 91.2792 259.768 91.2341C260.548 91.1889 261.254 91.4822 261.885 92.1138C262.52 92.7486 262.818 93.4624 262.78 94.2551C262.741 95.0479 262.369 95.81 261.663 96.5415L258.966 99.2387L251.928 92.2008L256.254 87.8746L257.018 88.6383ZM256.496 94.9029L259.14 97.5469L260.837 95.8503C261.297 95.3895 261.533 94.9093 261.542 94.4098C261.555 93.9071 261.355 93.4495 260.943 93.037C260.547 92.6407 260.11 92.4522 259.633 92.4715C259.159 92.4876 258.692 92.7196 258.231 93.1675L256.496 94.9029Z" fill="#777777"/>
<path d="M307.189 309.064L307.729 304.047H313.075V305.482H309.11L308.837 307.861C309.297 307.597 309.817 307.465 310.396 307.465C311.343 307.465 312.079 307.768 312.604 308.374C313.132 308.98 313.396 309.796 313.396 310.821C313.396 311.833 313.105 312.64 312.521 313.241C311.938 313.838 311.138 314.137 310.122 314.137C309.211 314.137 308.454 313.879 307.853 313.364C307.256 312.845 306.932 312.161 306.882 311.313H308.488C308.552 311.797 308.725 312.168 309.008 312.428C309.29 312.683 309.66 312.811 310.115 312.811C310.626 312.811 311.022 312.628 311.305 312.264C311.592 311.899 311.735 311.402 311.735 310.773C311.735 310.167 311.578 309.689 311.264 309.338C310.949 308.982 310.516 308.805 309.965 308.805C309.664 308.805 309.409 308.846 309.199 308.928C308.99 309.005 308.762 309.16 308.516 309.393L307.189 309.064ZM321.189 309.81C321.189 311.241 320.921 312.321 320.383 313.05C319.85 313.774 319.036 314.137 317.942 314.137C316.867 314.137 316.056 313.784 315.509 313.077C314.966 312.366 314.688 311.316 314.675 309.926V308.203C314.675 306.772 314.941 305.699 315.475 304.983C316.012 304.268 316.83 303.91 317.929 303.91C319.018 303.91 319.829 304.259 320.362 304.956C320.9 305.653 321.176 306.697 321.189 308.087V309.81ZM319.528 307.95C319.528 307.016 319.401 306.332 319.146 305.899C318.89 305.462 318.485 305.243 317.929 305.243C317.386 305.243 316.988 305.451 316.732 305.865C316.477 306.275 316.343 306.918 316.329 307.793V310.049C316.329 310.979 316.459 311.671 316.719 312.127C316.979 312.583 317.386 312.811 317.942 312.811C318.476 312.811 318.87 312.601 319.125 312.182C319.38 311.758 319.515 311.097 319.528 310.199V307.95Z" fill="#555555"/>
<path d="M153.438 481H146.745V479.858L150.061 476.242C150.539 475.709 150.879 475.265 151.079 474.909C151.284 474.549 151.387 474.189 151.387 473.829C151.387 473.355 151.252 472.972 150.983 472.681C150.719 472.389 150.361 472.243 149.91 472.243C149.372 472.243 148.955 472.407 148.659 472.735C148.363 473.063 148.215 473.512 148.215 474.082H146.554C146.554 473.476 146.69 472.931 146.964 472.448C147.242 471.961 147.636 471.582 148.146 471.313C148.661 471.045 149.254 470.91 149.924 470.91C150.89 470.91 151.651 471.154 152.207 471.642C152.768 472.125 153.048 472.795 153.048 473.651C153.048 474.148 152.907 474.67 152.624 475.217C152.346 475.759 151.888 476.377 151.25 477.069L148.816 479.674H153.438V481ZM161.395 481H154.702V479.858L158.018 476.242C158.496 475.709 158.836 475.265 159.036 474.909C159.241 474.549 159.344 474.189 159.344 473.829C159.344 473.355 159.209 472.972 158.94 472.681C158.676 472.389 158.318 472.243 157.867 472.243C157.329 472.243 156.912 472.407 156.616 472.735C156.32 473.063 156.172 473.512 156.172 474.082H154.511C154.511 473.476 154.647 472.931 154.921 472.448C155.199 471.961 155.593 471.582 156.104 471.313C156.618 471.045 157.211 470.91 157.881 470.91C158.847 470.91 159.608 471.154 160.164 471.642C160.725 472.125 161.005 472.795 161.005 473.651C161.005 474.148 160.864 474.67 160.581 475.217C160.303 475.759 159.845 476.377 159.207 477.069L156.773 479.674H161.395V481Z" fill="#555555"/>
<path d="M182.455 196.837C181.899 197.425 181.25 197.719 180.507 197.719C179.632 197.719 178.935 197.413 178.415 196.803C177.896 196.188 177.636 195.381 177.636 194.383C177.636 193.727 177.768 193.132 178.032 192.599C178.297 192.065 178.673 191.651 179.16 191.354C179.648 191.058 180.213 190.91 180.855 190.91C181.858 190.91 182.653 191.284 183.241 192.031C183.829 192.779 184.123 193.779 184.123 195.032V195.497C184.123 197.293 183.717 198.662 182.906 199.605C182.095 200.549 180.885 201.027 179.276 201.041H179.078V199.667H179.317C180.297 199.653 181.049 199.419 181.573 198.963C182.097 198.503 182.391 197.794 182.455 196.837ZM180.855 196.42C181.188 196.42 181.5 196.324 181.792 196.133C182.084 195.941 182.309 195.677 182.469 195.34V194.69C182.469 193.957 182.318 193.367 182.018 192.92C181.717 192.473 181.327 192.25 180.849 192.25C180.37 192.25 179.987 192.448 179.7 192.845C179.418 193.237 179.276 193.733 179.276 194.335C179.276 194.959 179.42 195.463 179.707 195.846C179.994 196.229 180.377 196.42 180.855 196.42Z" fill="#555555"/>
<path d="M18.2432 43H16.5889V35.0088L14.1484 35.8428V34.4414L18.0312 33.0127H18.2432V43Z" fill="#555555"/>
<path d="M329.666 48.2646H330.678C331.188 48.2601 331.591 48.1279 331.888 47.8682C332.188 47.6084 332.339 47.2324 332.339 46.7402C332.339 46.2663 332.214 45.8994 331.963 45.6396C331.717 45.3753 331.339 45.2432 330.828 45.2432C330.382 45.2432 330.015 45.373 329.728 45.6328C329.44 45.888 329.297 46.223 329.297 46.6377H327.636C327.636 46.1273 327.77 45.6624 328.039 45.2432C328.312 44.8239 328.691 44.498 329.174 44.2656C329.661 44.0286 330.206 43.9102 330.808 43.9102C331.801 43.9102 332.58 44.1608 333.146 44.6621C333.715 45.1589 334 45.8516 334 46.7402C334 47.1868 333.856 47.6084 333.569 48.0049C333.287 48.3968 332.92 48.693 332.469 48.8936C333.016 49.0804 333.43 49.3743 333.713 49.7754C334 50.1764 334.144 50.6549 334.144 51.2109C334.144 52.1042 333.836 52.8151 333.221 53.3438C332.61 53.8724 331.806 54.1367 330.808 54.1367C329.851 54.1367 329.067 53.8815 328.456 53.3711C327.845 52.8607 327.54 52.1816 327.54 51.334H329.201C329.201 51.7715 329.347 52.127 329.639 52.4004C329.935 52.6738 330.331 52.8105 330.828 52.8105C331.343 52.8105 331.749 52.6738 332.045 52.4004C332.341 52.127 332.489 51.7305 332.489 51.2109C332.489 50.6868 332.334 50.2835 332.024 50.001C331.715 49.7184 331.254 49.5771 330.644 49.5771H329.666V48.2646Z" fill="#555555"/>
<path d="M9.38086 4.70801H6.33203V13H4.28125V4.70801H1.27344V3.04688H9.38086V4.70801ZM18.541 8.24902C18.541 9.22884 18.3678 10.0879 18.0215 10.8262C17.6751 11.5645 17.1784 12.1341 16.5312 12.5352C15.8887 12.9362 15.1504 13.1367 14.3164 13.1367C13.4915 13.1367 12.7555 12.9385 12.1084 12.542C11.4613 12.1455 10.96 11.5804 10.6045 10.8467C10.249 10.1084 10.069 9.26074 10.0645 8.30371V7.81152C10.0645 6.83171 10.2399 5.97038 10.5908 5.22754C10.9463 4.48014 11.4453 3.9082 12.0879 3.51172C12.735 3.11068 13.4733 2.91016 14.3027 2.91016C15.1322 2.91016 15.8682 3.11068 16.5107 3.51172C17.1579 3.9082 17.6569 4.48014 18.0078 5.22754C18.3633 5.97038 18.541 6.82943 18.541 7.80469V8.24902ZM16.4629 7.79785C16.4629 6.75423 16.276 5.96126 15.9023 5.41895C15.5286 4.87663 14.9954 4.60547 14.3027 4.60547C13.6146 4.60547 13.0837 4.87435 12.71 5.41211C12.3363 5.94531 12.1471 6.72917 12.1426 7.76367V8.24902C12.1426 9.2653 12.3294 10.0537 12.7031 10.6143C13.0768 11.1748 13.6146 11.4551 14.3164 11.4551C15.0046 11.4551 15.5332 11.1862 15.9023 10.6484C16.2715 10.1061 16.4583 9.31771 16.4629 8.2832V7.79785ZM28.1387 13H26.0811V4.70801H22.0957V13H20.0449V3.04688H28.1387V13Z" fill="#555555"/>
<defs>
<linearGradient id="paint0_linear" x1="348.5" y1="335.067" x2="348.5" y2="459.067" gradientUnits="userSpaceOnUse">
<stop stop-color="#9633D8"/>
<stop offset="1" stop-color="#A41F57"/>
</linearGradient>
<linearGradient id="paint1_linear" x1="79.0034" y1="50.9717" x2="151.616" y2="176.741" gradientUnits="userSpaceOnUse">
<stop stop-color="#33BED8"/>
<stop offset="1" stop-color="#3496D9"/>
</linearGradient>
<linearGradient id="paint2_linear" x1="175.949" y1="401.688" x2="271.498" y2="322.146" gradientUnits="userSpaceOnUse">
<stop stop-color="#4257D9"/>
<stop offset="1" stop-color="#9633D8"/>
</linearGradient>
<linearGradient id="paint3_linear" x1="125" y1="232.067" x2="125" y2="452.067" gradientUnits="userSpaceOnUse">
<stop stop-color="#3396D8"/>
<stop offset="1" stop-color="#4358DA"/>
</linearGradient>
</defs>
</svg>
