<svg width="538" height="328" viewBox="0 0 538 328" fill="none" xmlns="http://www.w3.org/2000/svg">
<rect x="325.5" y="37.5" width="212" height="68" rx="18.5" fill="white" stroke="#D7D7D7"/>
<circle cx="362" cy="68" r="16.5" fill="#ECF0F1" stroke="#D7D7D7"/>
<path fill-rule="evenodd" clip-rule="evenodd" d="M362.259 67.6296C364.918 67.6296 367.074 65.474 367.074 62.8148C367.074 60.1557 364.918 58 362.259 58C359.6 58 357.445 60.1557 357.445 62.8148C357.445 65.474 359.6 67.6296 362.259 67.6296ZM353 78C353 73.0908 356.98 69.1111 361.889 69.1111C366.798 69.1111 370.778 73.0908 370.778 78H353Z" fill="#868686"/>
<line x1="349.5" y1="94.5" x2="352.958" y2="94.5" stroke="#C4C4C4" stroke-width="3" stroke-linecap="round"/>
<line x1="360.479" y1="94.5" x2="377.5" y2="94.5" stroke="#C4C4C4" stroke-width="3" stroke-linecap="round"/>
<path d="M403.254 60L406.184 65.7602L412.568 66.7666L407.995 71.333L409.01 77.7152L403.254 74.7772L397.498 77.7152L398.514 71.333L393.941 66.7666L400.324 65.7602L403.254 60Z" fill="#FBBC05"/>
<path d="M428.242 60L431.172 65.7602L437.556 66.7666L432.983 71.333L433.998 77.7152L428.242 74.7772L422.486 77.7152L423.502 71.333L418.929 66.7666L425.313 65.7602L428.242 60Z" fill="#FBBC05"/>
<path d="M453.231 60L456.16 65.7602L462.544 66.7666L457.971 71.333L458.987 77.7152L453.231 74.7772L447.475 77.7152L448.49 71.333L443.917 66.7666L450.301 65.7602L453.231 60Z" fill="#FBBC05"/>
<path d="M478.219 60L481.149 65.7602L487.532 66.7666L482.959 71.333L483.975 77.7152L478.219 74.7772L472.463 77.7152L473.478 71.333L468.906 66.7666L475.289 65.7602L478.219 60Z" fill="#FBBC05"/>
<path d="M503.207 60L506.137 65.7602L512.521 66.7666L507.948 71.333L508.963 77.7152L503.207 74.7772L497.451 77.7152L498.467 71.333L493.894 66.7666L500.277 65.7602L503.207 60Z" fill="#FBBC05"/>
<rect x="0.5" y="96.5" width="162.609" height="52" rx="18.5" fill="white" stroke="#D7D7D7"/>
<circle cx="28.4203" cy="119.812" r="12.558" fill="#ECF0F1" stroke="#D7D7D7"/>
<path fill-rule="evenodd" clip-rule="evenodd" d="M29.0186 120.259C30.7471 120.259 32.1482 118.858 32.1482 117.13C32.1482 115.401 30.7471 114 29.0186 114C27.2902 114 25.889 115.401 25.889 117.13C25.889 118.858 27.2902 120.259 29.0186 120.259ZM23 127C23 123.809 25.5868 121.222 28.7778 121.222C31.9688 121.222 34.5556 123.809 34.5556 127H23Z" fill="#868686"/>
<line x1="19.1666" y1="139.819" x2="21.1274" y2="139.819" stroke="#C4C4C4" stroke-width="3" stroke-linecap="round"/>
<line x1="27.6001" y1="139.819" x2="39.9784" y2="139.819" stroke="#C4C4C4" stroke-width="3" stroke-linecap="round"/>
<path d="M60.1082 113.667L62.3587 118.091L67.262 118.864L63.7495 122.372L64.5295 127.274L60.1082 125.017L55.687 127.274L56.467 122.372L52.9545 118.864L57.8578 118.091L60.1082 113.667Z" fill="#FBBC05"/>
<path d="M79.3022 113.667L81.5526 118.091L86.456 118.864L82.9435 122.372L83.7235 127.274L79.3022 125.017L74.8809 127.274L75.6609 122.372L72.1484 118.864L77.0518 118.091L79.3022 113.667Z" fill="#FBBC05"/>
<path d="M98.496 113.667L100.746 118.091L105.65 118.864L102.137 122.372L102.917 127.274L98.496 125.017L94.0748 127.274L94.8548 122.372L91.3423 118.864L96.2456 118.091L98.496 113.667Z" fill="#FBBC05"/>
<path d="M117.69 113.667L119.94 118.091L124.844 118.864L121.331 122.372L122.111 127.274L117.69 125.017L113.269 127.274L114.049 122.372L110.536 118.864L115.44 118.091L117.69 113.667Z" fill="#FBBC05"/>
<path d="M136.884 113.667L139.134 118.091L144.038 118.864L140.525 122.372L141.305 127.274L136.884 125.017L132.463 127.274L133.243 122.372L129.73 118.864L134.633 118.091L136.884 113.667Z" fill="#FBBC05"/>
<g clip-path="url(#clip0)">
<path d="M159.154 42.1227C161.195 42.1227 162.64 41.7547 163.717 40.9623V37.3679C162.611 38.1321 161.28 38.6132 159.409 38.6132C156.264 38.6132 154.96 36.1793 154.96 32.3302C154.96 28.283 156.547 26.217 159.438 26.217C161.138 26.217 162.81 26.8113 163.688 27.3774V23.6415C162.753 23.1321 161.138 22.7642 158.928 22.7642C153.288 22.7642 150.37 26.8113 150.37 32.4717C150.398 38.6698 153.26 42.1227 159.154 42.1227ZM131.582 40.4811V36.8868C130.221 37.8208 127.898 38.6415 125.772 38.6415C122.542 38.6415 121.323 37.1132 121.125 34H131.78V31.6793C131.78 25.1981 128.918 22.7642 124.525 22.7642C119.141 22.7642 116.591 26.8679 116.591 32.5C116.591 38.9811 119.793 42.1227 125.404 42.1227C128.209 42.1227 130.278 41.3585 131.582 40.4811ZM91.1434 23.1038V30.4623H85.2491V23.1038H80.8284V41.7547H85.2491V33.9717H91.1434V41.7547H95.5641V23.1038H91.1434ZM115.486 38.2453H113.53V23.1038H100.665V24.6887C100.665 29.2453 100.382 35.1321 98.8229 38.2453H97.406V46H101.487V41.7547H111.377V46H115.457V38.2453H115.486ZM145.665 41.7547H150.681L143.597 31.7076L149.831 23.1038H145.382L139.148 31.7076V23.1038H134.727V41.7547H139.148V32.5849L145.665 41.7547ZM124.412 26.217C126.594 26.217 127.274 28.0283 127.274 30.3774V30.7453H121.125C121.238 27.7736 122.315 26.217 124.412 26.217ZM109.11 38.2453H102.875C104.094 35.4434 104.434 30.3491 104.434 27.1227V26.5566H109.11V38.2453Z" fill="white"/>
<path d="M77.1444 41.7547H72.6387V19.4811H70.6267C66.9428 19.4811 65.0158 21.3208 65.0158 24.066C65.0158 27.1792 66.3477 28.6226 69.0965 30.4623L71.3635 31.9906L64.8458 41.7547H60L65.8659 33.0377C62.4937 30.6321 60.5951 28.283 60.5951 24.3208C60.5951 19.3679 64.0523 16 70.5984 16H77.1161V41.7547H77.1444Z" fill="#F04B01"/>
</g>
<circle cx="232" cy="34" r="34" fill="white"/>
<g clip-path="url(#clip1)">
<path d="M221.917 31.25C220.309 31.25 219 32.559 219 34.1666V43.5C219 45.1076 220.309 46.4166 221.917 46.4166H225.417C226.074 46.4166 226.678 46.195 227.167 45.8263V31.25H221.917Z" fill="#F04B01"/>
<path d="M247 35.6249C247 34.9238 246.722 34.2704 246.24 33.7885C246.785 33.1924 247.063 32.3932 246.987 31.5614C246.851 30.0785 245.515 28.9165 243.944 28.9165H236.738C237.095 27.8327 237.667 25.8459 237.667 24.2499C237.667 21.7194 235.516 19.5833 234.167 19.5833C232.954 19.5833 232.089 20.2658 232.051 20.2938C231.914 20.4046 231.833 20.5726 231.833 20.7499V24.706L228.473 31.9849L228.333 32.056V44.5604C229.283 45.0084 230.485 45.2499 231.25 45.2499H241.959C243.229 45.2499 244.341 44.3935 244.602 43.2118C244.737 42.6039 244.658 41.9914 244.391 41.4594C245.253 41.0254 245.833 40.1375 245.833 39.1249C245.833 38.7119 245.739 38.3164 245.559 37.9583C246.421 37.5243 247 36.6364 247 35.6249Z" fill="#F04B01"/>
</g>
<path d="M113.491 218.821C113.491 222.291 110.773 224.848 107.437 224.848C104.102 224.848 101.384 222.291 101.384 218.821C101.384 215.326 104.102 212.793 107.437 212.793C110.773 212.793 113.491 215.326 113.491 218.821ZM110.841 218.821C110.841 216.652 109.266 215.168 107.437 215.168C105.609 215.168 104.034 216.652 104.034 218.821C104.034 220.967 105.609 222.473 107.437 222.473C109.266 222.473 110.841 220.965 110.841 218.821Z" fill="white"/>
<path d="M126.55 218.821C126.55 222.291 123.832 224.848 120.496 224.848C117.161 224.848 114.443 222.291 114.443 218.821C114.443 215.329 117.161 212.793 120.496 212.793C123.832 212.793 126.55 215.326 126.55 218.821ZM123.9 218.821C123.9 216.652 122.325 215.168 120.496 215.168C118.668 215.168 117.093 216.652 117.093 218.821C117.093 220.967 118.668 222.473 120.496 222.473C122.325 222.473 123.9 220.965 123.9 218.821Z" fill="white"/>
<path d="M139.064 213.158V223.978C139.064 228.429 136.436 230.247 133.329 230.247C130.405 230.247 128.644 228.293 127.981 226.696L130.288 225.736C130.698 226.717 131.705 227.875 133.327 227.875C135.315 227.875 136.548 226.649 136.548 224.342V223.476H136.455C135.862 224.207 134.72 224.845 133.278 224.845C130.26 224.845 127.496 222.22 127.496 218.842C127.496 215.44 130.26 212.793 133.278 212.793C134.717 212.793 135.859 213.432 136.455 214.141H136.548V213.16H139.064V213.158ZM136.735 218.842C136.735 216.72 135.318 215.168 133.514 215.168C131.686 215.168 130.154 216.72 130.154 218.842C130.154 220.943 131.686 222.473 133.514 222.473C135.318 222.473 136.735 220.943 136.735 218.842Z" fill="white"/>
<path d="M143.213 206.815V224.478H140.629V206.815H143.213Z" fill="white"/>
<path d="M153.285 220.804L155.342 222.174C154.678 223.155 153.078 224.845 150.314 224.845C146.886 224.845 144.326 222.198 144.326 218.818C144.326 215.234 146.908 212.791 150.018 212.791C153.149 212.791 154.681 215.28 155.181 216.625L155.456 217.31L147.389 220.647C148.007 221.856 148.967 222.473 150.314 222.473C151.663 222.473 152.599 221.81 153.285 220.804ZM146.954 218.636L152.346 216.399C152.05 215.647 151.157 215.122 150.107 215.122C148.761 215.122 146.886 216.31 146.954 218.636Z" fill="white"/>
<path d="M91.601 217.253V214.696H100.228C100.312 215.141 100.356 215.668 100.356 216.239C100.356 218.158 99.8308 220.53 98.1386 222.22C96.4927 223.932 94.3896 224.845 91.6038 224.845C86.4401 224.845 82.098 220.644 82.098 215.486C82.098 210.329 86.4401 206.128 91.6038 206.128C94.4604 206.128 96.4954 207.247 98.0243 208.706L96.2179 210.511C95.1215 209.484 93.636 208.685 91.601 208.685C87.8303 208.685 84.8812 211.72 84.8812 215.486C84.8812 219.253 87.8303 222.288 91.601 222.288C94.0468 222.288 95.4398 221.307 96.3321 220.416C97.0558 219.693 97.5319 218.66 97.7196 217.25L91.601 217.253Z" fill="white"/>
<circle cx="47" cy="215" r="25" fill="white"/>
<g clip-path="url(#clip2)">
<path d="M52.2385 207.778C55.3947 207.794 57.9495 210.455 57.9649 213.743C57.9649 219.766 47.4386 225.731 47.4386 225.731C47.4386 225.731 36.9122 219.679 36.9122 213.743C36.9122 210.449 39.476 207.778 42.6386 207.778C44.5745 207.762 46.3844 208.777 47.4386 210.468C48.5 208.785 50.3052 207.773 52.2385 207.778Z" fill="#F04B01"/>
</g>
<path d="M204.5 162C204.5 147.917 215.917 136.5 230 136.5H454C468.083 136.5 479.5 147.917 479.5 162V281C479.5 295.083 468.083 306.5 454 306.5H374.084C367.472 306.5 361.099 308.972 356.216 313.43L349.428 319.627C344.655 323.986 337.345 323.986 332.572 319.627L325.784 313.43C320.901 308.972 314.528 306.5 307.916 306.5H230C215.917 306.5 204.5 295.083 204.5 281V162Z" fill="white" stroke="#D7D7D7"/>
<circle cx="245" cy="187" r="20.5" fill="#ECF0F1" stroke="#D7D7D7"/>
<line x1="225.5" y1="230.5" x2="234.5" y2="230.5" stroke="#C4C4C4" stroke-width="3" stroke-linecap="round"/>
<line x1="246.5" y1="230.5" x2="281.5" y2="230.5" stroke="#C4C4C4" stroke-width="3" stroke-linecap="round"/>
<line x1="225.5" y1="245.5" x2="249.5" y2="245.5" stroke="#C4C4C4" stroke-width="3" stroke-linecap="round"/>
<line x1="272.5" y1="245.5" x2="353.5" y2="245.5" stroke="#C4C4C4" stroke-width="3" stroke-linecap="round"/>
<line x1="376.5" y1="245.5" x2="457.5" y2="245.5" stroke="#C4C4C4" stroke-width="3" stroke-linecap="round"/>
<line x1="1.5" y1="-1.5" x2="25.5" y2="-1.5" transform="matrix(-1 0 0 1 459 262)" stroke="#C4C4C4" stroke-width="3" stroke-linecap="round"/>
<line x1="1.5" y1="-1.5" x2="82.5" y2="-1.5" transform="matrix(-1 0 0 1 412 262)" stroke="#C4C4C4" stroke-width="3" stroke-linecap="round"/>
<line x1="1.5" y1="-1.5" x2="82.5" y2="-1.5" transform="matrix(-1 0 0 1 308 262)" stroke="#C4C4C4" stroke-width="3" stroke-linecap="round"/>
<line x1="353.5" y1="277.5" x2="225.5" y2="277.5" stroke="#C4C4C4" stroke-width="3" stroke-linecap="round"/>
<path d="M296.124 178L299.752 185.132L307.655 186.378L301.994 192.031L303.251 199.933L296.124 196.296L288.998 199.933L290.255 192.031L284.593 186.378L292.497 185.132L296.124 178Z" fill="#FBBC05"/>
<path d="M327.062 178L330.689 185.132L338.593 186.378L332.931 192.031L334.189 199.933L327.062 196.296L319.936 199.933L321.193 192.031L315.531 186.378L323.435 185.132L327.062 178Z" fill="#FBBC05"/>
<path d="M358 178L361.627 185.132L369.531 186.378L363.869 192.031L365.127 199.933L358 196.296L350.874 199.933L352.131 192.031L346.469 186.378L354.373 185.132L358 178Z" fill="#FBBC05"/>
<path d="M388.938 178L392.565 185.132L400.469 186.378L394.807 192.031L396.064 199.933L388.938 196.296L381.811 199.933L383.069 192.031L377.407 186.378L385.31 185.132L388.938 178Z" fill="#FBBC05"/>
<path d="M419.876 178L423.503 185.132L431.407 186.378L425.745 192.031L427.002 199.933L419.876 196.296L412.749 199.933L414.007 192.031L408.345 186.378L416.248 185.132L419.876 178Z" fill="#ECF0F1"/>
<path fill-rule="evenodd" clip-rule="evenodd" d="M245.259 186.63C247.918 186.63 250.074 184.474 250.074 181.815C250.074 179.156 247.918 177 245.259 177C242.6 177 240.445 179.156 240.445 181.815C240.445 184.474 242.6 186.63 245.259 186.63ZM236 197C236 192.091 239.98 188.111 244.889 188.111C249.798 188.111 253.778 192.091 253.778 197H236Z" fill="#868686"/>
<defs>
<clipPath id="clip0">
<rect width="104" height="30" fill="white" transform="translate(60 16)"/>
</clipPath>
<clipPath id="clip1">
<rect width="28" height="28" fill="white" transform="translate(219 19)"/>
</clipPath>
<clipPath id="clip2">
<rect width="21.0526" height="21.9298" fill="white" transform="translate(36.9122 205.79)"/>
</clipPath>
</defs>
</svg>
