<svg width="375" height="419" viewBox="0 0 375 419" fill="none" xmlns="http://www.w3.org/2000/svg">
<rect x="0.5" y="9.5" width="374" height="409" rx="32.5" fill="#ECF0F1" stroke="#D7D7D7"/>
<rect x="0.5" y="0.5" width="374" height="402" rx="32.5" fill="white" stroke="#D7D7D7"/>
<circle cx="188" cy="143" r="108" fill="#EFFAF1"/>
<circle cx="188" cy="143" r="95" stroke="#5AC771" stroke-width="26"/>
<circle cx="188" cy="136" r="95" stroke="#5ECA75" stroke-width="26"/>
<path d="M163.989 158H156.934V130.803L148.511 133.415V127.678L163.232 122.404H163.989V158ZM199.487 143.303C199.487 148.218 198.47 151.978 196.436 154.582C194.401 157.186 191.423 158.488 187.5 158.488C183.626 158.488 180.664 157.211 178.613 154.655C176.562 152.1 175.513 148.438 175.464 143.669V137.126C175.464 132.162 176.489 128.394 178.54 125.822C180.607 123.251 183.577 121.965 187.451 121.965C191.325 121.965 194.287 123.243 196.338 125.798C198.389 128.337 199.438 131.991 199.487 136.76V143.303ZM192.432 136.125C192.432 133.179 192.025 131.039 191.211 129.704C190.413 128.353 189.16 127.678 187.451 127.678C185.791 127.678 184.562 128.321 183.765 129.606C182.983 130.876 182.568 132.87 182.52 135.588V144.23C182.52 147.128 182.91 149.284 183.691 150.7C184.489 152.1 185.758 152.8 187.5 152.8C189.225 152.8 190.47 152.124 191.235 150.773C192 149.423 192.399 147.355 192.432 144.572V136.125ZM228.198 143.303C228.198 148.218 227.181 151.978 225.146 154.582C223.112 157.186 220.133 158.488 216.211 158.488C212.337 158.488 209.375 157.211 207.324 154.655C205.273 152.1 204.224 148.438 204.175 143.669V137.126C204.175 132.162 205.2 128.394 207.251 125.822C209.318 123.251 212.288 121.965 216.162 121.965C220.036 121.965 222.998 123.243 225.049 125.798C227.1 128.337 228.149 131.991 228.198 136.76V143.303ZM221.143 136.125C221.143 133.179 220.736 131.039 219.922 129.704C219.124 128.353 217.871 127.678 216.162 127.678C214.502 127.678 213.273 128.321 212.476 129.606C211.694 130.876 211.279 132.87 211.23 135.588V144.23C211.23 147.128 211.621 149.284 212.402 150.7C213.2 152.1 214.469 152.8 216.211 152.8C217.936 152.8 219.181 152.124 219.946 150.773C220.711 149.423 221.11 147.355 221.143 144.572V136.125Z" fill="#5ECA75"/>
<path d="M122.313 309.692L125.39 299.792H127.807L122.497 315.039C121.675 317.236 120.368 318.334 118.578 318.334L118.151 318.298L117.309 318.139V316.308L117.919 316.357C118.684 316.357 119.278 316.202 119.701 315.893C120.132 315.584 120.486 315.018 120.763 314.196L121.264 312.854L116.552 299.792H119.018L122.313 309.692ZM129.04 306.274C129.04 304.98 129.292 303.816 129.796 302.783C130.309 301.749 131.017 300.952 131.92 300.39C132.832 299.829 133.869 299.548 135.033 299.548C136.832 299.548 138.284 300.17 139.391 301.416C140.506 302.661 141.063 304.317 141.063 306.384V306.542C141.063 307.828 140.815 308.984 140.319 310.009C139.831 311.027 139.127 311.82 138.207 312.39C137.296 312.959 136.246 313.244 135.058 313.244C133.267 313.244 131.815 312.622 130.7 311.376C129.593 310.131 129.04 308.483 129.04 306.433V306.274ZM131.31 306.542C131.31 308.007 131.648 309.183 132.323 310.07C133.007 310.957 133.918 311.401 135.058 311.401C136.205 311.401 137.117 310.953 137.792 310.058C138.467 309.155 138.805 307.893 138.805 306.274C138.805 304.825 138.459 303.653 137.768 302.758C137.084 301.855 136.173 301.403 135.033 301.403C133.918 301.403 133.019 301.847 132.335 302.734C131.652 303.621 131.31 304.89 131.31 306.542ZM152.05 311.694C151.171 312.727 149.881 313.244 148.18 313.244C146.772 313.244 145.698 312.837 144.958 312.023C144.225 311.201 143.855 309.989 143.847 308.386V299.792H146.105V308.325C146.105 310.327 146.919 311.328 148.546 311.328C150.272 311.328 151.419 310.685 151.989 309.399V299.792H154.247V313H152.099L152.05 311.694ZM164.074 301.818C163.732 301.761 163.362 301.733 162.963 301.733C161.482 301.733 160.477 302.364 159.948 303.625V313H157.689V299.792H159.887L159.923 301.318C160.664 300.138 161.714 299.548 163.073 299.548C163.512 299.548 163.846 299.605 164.074 299.719V301.818ZM173.852 309.497C173.852 308.886 173.62 308.414 173.156 308.081C172.7 307.739 171.898 307.446 170.751 307.202C169.612 306.958 168.704 306.665 168.029 306.323C167.361 305.981 166.865 305.574 166.54 305.102C166.222 304.63 166.063 304.069 166.063 303.417C166.063 302.335 166.519 301.42 167.431 300.671C168.35 299.922 169.522 299.548 170.946 299.548C172.444 299.548 173.656 299.934 174.584 300.708C175.52 301.481 175.988 302.469 175.988 303.674H173.717C173.717 303.055 173.453 302.522 172.924 302.075C172.403 301.627 171.744 301.403 170.946 301.403C170.124 301.403 169.481 301.582 169.018 301.94C168.554 302.299 168.322 302.766 168.322 303.344C168.322 303.889 168.537 304.3 168.969 304.577C169.4 304.854 170.177 305.118 171.3 305.371C172.431 305.623 173.347 305.924 174.047 306.274C174.747 306.624 175.264 307.047 175.597 307.543C175.939 308.032 176.11 308.63 176.11 309.338C176.11 310.518 175.638 311.466 174.694 312.182C173.75 312.89 172.525 313.244 171.02 313.244C169.962 313.244 169.026 313.057 168.212 312.683C167.398 312.308 166.759 311.787 166.295 311.12C165.84 310.445 165.612 309.716 165.612 308.935H167.87C167.911 309.692 168.212 310.294 168.773 310.742C169.343 311.181 170.092 311.401 171.02 311.401C171.874 311.401 172.558 311.23 173.07 310.888C173.591 310.538 173.852 310.074 173.852 309.497ZM181.505 313H179.247V299.792H181.505V313ZM179.064 296.289C179.064 295.922 179.174 295.613 179.394 295.361C179.621 295.109 179.955 294.982 180.395 294.982C180.834 294.982 181.168 295.109 181.396 295.361C181.623 295.613 181.737 295.922 181.737 296.289C181.737 296.655 181.623 296.96 181.396 297.204C181.168 297.448 180.834 297.57 180.395 297.57C179.955 297.57 179.621 297.448 179.394 297.204C179.174 296.96 179.064 296.655 179.064 296.289ZM188.195 296.594V299.792H190.661V301.538H188.195V309.729C188.195 310.257 188.305 310.656 188.524 310.925C188.744 311.185 189.118 311.315 189.647 311.315C189.908 311.315 190.266 311.267 190.722 311.169V313C190.128 313.163 189.55 313.244 188.988 313.244C187.979 313.244 187.218 312.939 186.706 312.329C186.193 311.718 185.937 310.852 185.937 309.729V301.538H183.532V299.792H185.937V296.594H188.195ZM198.791 313.244C197 313.244 195.543 312.658 194.42 311.486C193.297 310.306 192.736 308.732 192.736 306.762V306.347C192.736 305.037 192.984 303.869 193.48 302.844C193.985 301.81 194.685 301.005 195.58 300.427C196.483 299.841 197.46 299.548 198.51 299.548C200.227 299.548 201.562 300.113 202.514 301.245C203.466 302.376 203.942 303.995 203.942 306.103V307.043H194.994C195.027 308.345 195.405 309.399 196.129 310.205C196.862 311.002 197.79 311.401 198.913 311.401C199.71 311.401 200.386 311.238 200.939 310.913C201.492 310.587 201.977 310.156 202.392 309.619L203.771 310.693C202.664 312.394 201.004 313.244 198.791 313.244ZM198.51 301.403C197.598 301.403 196.833 301.737 196.215 302.404C195.596 303.063 195.214 303.991 195.067 305.188H201.684V305.017C201.618 303.869 201.309 302.982 200.756 302.355C200.202 301.721 199.454 301.403 198.51 301.403ZM206.615 311.816C206.615 311.425 206.729 311.1 206.957 310.839C207.193 310.579 207.543 310.449 208.007 310.449C208.471 310.449 208.821 310.579 209.057 310.839C209.301 311.1 209.423 311.425 209.423 311.816C209.423 312.19 209.301 312.504 209.057 312.756C208.821 313.008 208.471 313.134 208.007 313.134C207.543 313.134 207.193 313.008 206.957 312.756C206.729 312.504 206.615 312.19 206.615 311.816ZM218.456 311.401C219.262 311.401 219.966 311.157 220.568 310.668C221.17 310.18 221.504 309.57 221.569 308.837H223.705C223.664 309.594 223.404 310.314 222.924 310.998C222.444 311.682 221.801 312.227 220.995 312.634C220.198 313.041 219.351 313.244 218.456 313.244C216.658 313.244 215.225 312.646 214.159 311.45C213.101 310.245 212.572 308.601 212.572 306.518V306.14C212.572 304.854 212.808 303.71 213.28 302.709C213.752 301.708 214.428 300.931 215.307 300.378C216.194 299.825 217.239 299.548 218.444 299.548C219.925 299.548 221.154 299.991 222.13 300.878C223.115 301.765 223.64 302.917 223.705 304.333H221.569C221.504 303.479 221.178 302.779 220.592 302.233C220.014 301.68 219.298 301.403 218.444 301.403C217.296 301.403 216.405 301.818 215.771 302.648C215.144 303.47 214.831 304.663 214.831 306.225V306.652C214.831 308.174 215.144 309.346 215.771 310.168C216.397 310.99 217.292 311.401 218.456 311.401ZM225.646 306.274C225.646 304.98 225.898 303.816 226.403 302.783C226.916 301.749 227.624 300.952 228.527 300.39C229.438 299.829 230.476 299.548 231.64 299.548C233.438 299.548 234.891 300.17 235.998 301.416C237.112 302.661 237.67 304.317 237.67 306.384V306.542C237.67 307.828 237.422 308.984 236.925 310.009C236.437 311.027 235.733 311.82 234.813 312.39C233.902 312.959 232.852 313.244 231.664 313.244C229.874 313.244 228.421 312.622 227.306 311.376C226.199 310.131 225.646 308.483 225.646 306.433V306.274ZM227.917 306.542C227.917 308.007 228.254 309.183 228.93 310.07C229.613 310.957 230.525 311.401 231.664 311.401C232.812 311.401 233.723 310.953 234.398 310.058C235.074 309.155 235.412 307.893 235.412 306.274C235.412 304.825 235.066 303.653 234.374 302.758C233.69 301.855 232.779 301.403 231.64 301.403C230.525 301.403 229.625 301.847 228.942 302.734C228.258 303.621 227.917 304.89 227.917 306.542ZM242.626 299.792L242.687 301.257C243.655 300.118 244.962 299.548 246.605 299.548C248.453 299.548 249.71 300.256 250.377 301.672C250.817 301.037 251.387 300.524 252.086 300.134C252.794 299.743 253.629 299.548 254.589 299.548C257.486 299.548 258.959 301.082 259.008 304.15V313H256.75V304.284C256.75 303.34 256.534 302.636 256.103 302.172C255.671 301.7 254.947 301.464 253.93 301.464C253.091 301.464 252.396 301.717 251.842 302.221C251.289 302.718 250.967 303.389 250.878 304.235V313H248.607V304.345C248.607 302.425 247.667 301.464 245.788 301.464C244.306 301.464 243.293 302.095 242.748 303.356V313H240.49V299.792H242.626Z" fill="#555555"/>
<path d="M89.0879 357.542C89.0879 359.446 88.7627 360.861 88.1123 361.787C87.4619 362.713 86.4453 363.176 85.0625 363.176C83.6973 363.176 82.6865 362.725 82.0303 361.822C81.374 360.914 81.0342 359.561 81.0107 357.762V355.591C81.0107 353.71 81.3359 352.312 81.9863 351.398C82.6367 350.484 83.6562 350.027 85.0449 350.027C86.4219 350.027 87.4355 350.47 88.0859 351.354C88.7363 352.233 89.0703 353.593 89.0879 355.433V357.542ZM87.4619 355.318C87.4619 353.941 87.2686 352.939 86.8818 352.312C86.4951 351.68 85.8828 351.363 85.0449 351.363C84.2129 351.363 83.6064 351.677 83.2256 352.304C82.8447 352.931 82.6484 353.895 82.6367 355.195V357.797C82.6367 359.18 82.8359 360.202 83.2344 360.864C83.6387 361.521 84.248 361.849 85.0625 361.849C85.8652 361.849 86.46 361.538 86.8467 360.917C87.2393 360.296 87.4443 359.317 87.4619 357.981V355.318ZM94.7217 358.228H90.4326V356.9H94.7217V358.228ZM103.01 358.702H104.785V360.029H103.01V363H101.375V360.029H95.5479V359.071L101.278 350.203H103.01V358.702ZM97.3936 358.702H101.375V352.427L101.182 352.778L97.3936 358.702ZM112.484 357.375C112.145 357.779 111.737 358.104 111.263 358.351C110.794 358.597 110.278 358.72 109.716 358.72C108.978 358.72 108.333 358.538 107.782 358.175C107.237 357.812 106.815 357.302 106.517 356.646C106.218 355.983 106.068 355.254 106.068 354.457C106.068 353.602 106.229 352.831 106.552 352.146C106.88 351.46 107.343 350.936 107.94 350.572C108.538 350.209 109.235 350.027 110.032 350.027C111.298 350.027 112.294 350.502 113.021 351.451C113.753 352.395 114.119 353.684 114.119 355.318V355.793C114.119 358.283 113.627 360.103 112.643 361.251C111.658 362.394 110.173 362.979 108.187 363.009H107.87V361.638H108.213C109.555 361.614 110.586 361.266 111.307 360.592C112.027 359.912 112.42 358.84 112.484 357.375ZM109.979 357.375C110.524 357.375 111.025 357.208 111.482 356.874C111.945 356.54 112.282 356.127 112.493 355.635V354.984C112.493 353.918 112.262 353.051 111.799 352.383C111.336 351.715 110.75 351.381 110.041 351.381C109.326 351.381 108.752 351.656 108.318 352.207C107.885 352.752 107.668 353.473 107.668 354.369C107.668 355.242 107.876 355.963 108.292 356.531C108.714 357.094 109.276 357.375 109.979 357.375Z" fill="#555555"/>
<path d="M62 351L68.9282 363H55.0718L62 351Z" fill="#EC5C4C"/>
<path d="M173.811 356.584L174.461 350.203H181.018V351.706H175.841L175.454 355.195C176.081 354.826 176.793 354.642 177.59 354.642C178.756 354.642 179.682 355.028 180.367 355.802C181.053 356.569 181.396 357.609 181.396 358.922C181.396 360.24 181.038 361.28 180.323 362.042C179.614 362.798 178.621 363.176 177.344 363.176C176.213 363.176 175.29 362.862 174.575 362.235C173.86 361.608 173.453 360.741 173.354 359.634H174.892C174.991 360.366 175.252 360.92 175.674 361.295C176.096 361.664 176.652 361.849 177.344 361.849C178.1 361.849 178.691 361.591 179.119 361.075C179.553 360.56 179.77 359.848 179.77 358.939C179.77 358.084 179.535 357.398 179.066 356.883C178.604 356.361 177.985 356.101 177.212 356.101C176.503 356.101 175.946 356.256 175.542 356.566L175.111 356.918L173.811 356.584ZM191.195 357.542C191.195 359.446 190.87 360.861 190.22 361.787C189.569 362.713 188.553 363.176 187.17 363.176C185.805 363.176 184.794 362.725 184.138 361.822C183.481 360.914 183.142 359.561 183.118 357.762V355.591C183.118 353.71 183.443 352.312 184.094 351.398C184.744 350.484 185.764 350.027 187.152 350.027C188.529 350.027 189.543 350.47 190.193 351.354C190.844 352.233 191.178 353.593 191.195 355.433V357.542ZM189.569 355.318C189.569 353.941 189.376 352.939 188.989 352.312C188.603 351.68 187.99 351.363 187.152 351.363C186.32 351.363 185.714 351.677 185.333 352.304C184.952 352.931 184.756 353.895 184.744 355.195V357.797C184.744 359.18 184.943 360.202 185.342 360.864C185.746 361.521 186.355 361.849 187.17 361.849C187.973 361.849 188.567 361.538 188.954 360.917C189.347 360.296 189.552 359.317 189.569 357.981V355.318ZM196.829 358.228H192.54V356.9H196.829V358.228ZM206.014 353.543C206.014 354.182 205.844 354.75 205.504 355.248C205.17 355.746 204.716 356.136 204.142 356.417C204.81 356.704 205.337 357.123 205.724 357.674C206.116 358.225 206.312 358.849 206.312 359.546C206.312 360.653 205.938 361.535 205.188 362.191C204.443 362.848 203.462 363.176 202.243 363.176C201.013 363.176 200.025 362.848 199.281 362.191C198.543 361.529 198.174 360.647 198.174 359.546C198.174 358.854 198.361 358.23 198.736 357.674C199.117 357.117 199.642 356.695 200.31 356.408C199.741 356.127 199.293 355.737 198.965 355.239C198.637 354.741 198.473 354.176 198.473 353.543C198.473 352.465 198.818 351.609 199.51 350.977C200.201 350.344 201.112 350.027 202.243 350.027C203.368 350.027 204.276 350.344 204.968 350.977C205.665 351.609 206.014 352.465 206.014 353.543ZM204.687 359.511C204.687 358.796 204.458 358.213 204.001 357.762C203.55 357.311 202.958 357.085 202.226 357.085C201.493 357.085 200.904 357.308 200.459 357.753C200.02 358.198 199.8 358.784 199.8 359.511C199.8 360.237 200.014 360.809 200.441 361.225C200.875 361.641 201.476 361.849 202.243 361.849C203.005 361.849 203.603 361.641 204.036 361.225C204.47 360.803 204.687 360.231 204.687 359.511ZM202.243 351.363C201.604 351.363 201.086 351.562 200.688 351.961C200.295 352.354 200.099 352.89 200.099 353.569C200.099 354.22 200.292 354.747 200.679 355.151C201.071 355.55 201.593 355.749 202.243 355.749C202.894 355.749 203.412 355.55 203.799 355.151C204.191 354.747 204.388 354.22 204.388 353.569C204.388 352.919 204.186 352.389 203.781 351.979C203.377 351.568 202.864 351.363 202.243 351.363ZM214.592 357.375C214.252 357.779 213.845 358.104 213.37 358.351C212.901 358.597 212.386 358.72 211.823 358.72C211.085 358.72 210.44 358.538 209.89 358.175C209.345 357.812 208.923 357.302 208.624 356.646C208.325 355.983 208.176 355.254 208.176 354.457C208.176 353.602 208.337 352.831 208.659 352.146C208.987 351.46 209.45 350.936 210.048 350.572C210.646 350.209 211.343 350.027 212.14 350.027C213.405 350.027 214.401 350.502 215.128 351.451C215.86 352.395 216.227 353.684 216.227 355.318V355.793C216.227 358.283 215.734 360.103 214.75 361.251C213.766 362.394 212.28 362.979 210.294 363.009H209.978V361.638H210.32C211.662 361.614 212.693 361.266 213.414 360.592C214.135 359.912 214.527 358.84 214.592 357.375ZM212.087 357.375C212.632 357.375 213.133 357.208 213.59 356.874C214.053 356.54 214.39 356.127 214.601 355.635V354.984C214.601 353.918 214.369 353.051 213.906 352.383C213.443 351.715 212.857 351.381 212.148 351.381C211.434 351.381 210.859 351.656 210.426 352.207C209.992 352.752 209.775 353.473 209.775 354.369C209.775 355.242 209.983 355.963 210.399 356.531C210.821 357.094 211.384 357.375 212.087 357.375Z" fill="#555555"/>
<rect x="150" y="351" width="13" height="13" fill="#F2A73B"/>
<path d="M287.295 357.375C286.955 357.779 286.548 358.104 286.073 358.351C285.604 358.597 285.089 358.72 284.526 358.72C283.788 358.72 283.144 358.538 282.593 358.175C282.048 357.812 281.626 357.302 281.327 356.646C281.028 355.983 280.879 355.254 280.879 354.457C280.879 353.602 281.04 352.831 281.362 352.146C281.69 351.46 282.153 350.936 282.751 350.572C283.349 350.209 284.046 350.027 284.843 350.027C286.108 350.027 287.104 350.502 287.831 351.451C288.563 352.395 288.93 353.684 288.93 355.318V355.793C288.93 358.283 288.438 360.103 287.453 361.251C286.469 362.394 284.983 362.979 282.997 363.009H282.681V361.638H283.023C284.365 361.614 285.396 361.266 286.117 360.592C286.838 359.912 287.23 358.84 287.295 357.375ZM284.79 357.375C285.335 357.375 285.836 357.208 286.293 356.874C286.756 356.54 287.093 356.127 287.304 355.635V354.984C287.304 353.918 287.072 353.051 286.609 352.383C286.146 351.715 285.561 351.381 284.852 351.381C284.137 351.381 283.562 351.656 283.129 352.207C282.695 352.752 282.479 353.473 282.479 354.369C282.479 355.242 282.687 355.963 283.103 356.531C283.524 357.094 284.087 357.375 284.79 357.375ZM299.195 357.542C299.195 359.446 298.87 360.861 298.22 361.787C297.569 362.713 296.553 363.176 295.17 363.176C293.805 363.176 292.794 362.725 292.138 361.822C291.481 360.914 291.142 359.561 291.118 357.762V355.591C291.118 353.71 291.443 352.312 292.094 351.398C292.744 350.484 293.764 350.027 295.152 350.027C296.529 350.027 297.543 350.47 298.193 351.354C298.844 352.233 299.178 353.593 299.195 355.433V357.542ZM297.569 355.318C297.569 353.941 297.376 352.939 296.989 352.312C296.603 351.68 295.99 351.363 295.152 351.363C294.32 351.363 293.714 351.677 293.333 352.304C292.952 352.931 292.756 353.895 292.744 355.195V357.797C292.744 359.18 292.943 360.202 293.342 360.864C293.746 361.521 294.355 361.849 295.17 361.849C295.973 361.849 296.567 361.538 296.954 360.917C297.347 360.296 297.552 359.317 297.569 357.981V355.318ZM304.829 358.228H300.54V356.9H304.829V358.228ZM311.597 363H309.962V352.163L306.684 353.367V351.891L311.342 350.142H311.597V363ZM324.385 357.542C324.385 359.446 324.06 360.861 323.409 361.787C322.759 362.713 321.742 363.176 320.359 363.176C318.994 363.176 317.983 362.725 317.327 361.822C316.671 360.914 316.331 359.561 316.308 357.762V355.591C316.308 353.71 316.633 352.312 317.283 351.398C317.934 350.484 318.953 350.027 320.342 350.027C321.719 350.027 322.732 350.47 323.383 351.354C324.033 352.233 324.367 353.593 324.385 355.433V357.542ZM322.759 355.318C322.759 353.941 322.565 352.939 322.179 352.312C321.792 351.68 321.18 351.363 320.342 351.363C319.51 351.363 318.903 351.677 318.522 352.304C318.142 352.931 317.945 353.895 317.934 355.195V357.797C317.934 359.18 318.133 360.202 318.531 360.864C318.936 361.521 319.545 361.849 320.359 361.849C321.162 361.849 321.757 361.538 322.144 360.917C322.536 360.296 322.741 359.317 322.759 357.981V355.318ZM334.492 357.542C334.492 359.446 334.167 360.861 333.517 361.787C332.866 362.713 331.85 363.176 330.467 363.176C329.102 363.176 328.091 362.725 327.435 361.822C326.778 360.914 326.438 359.561 326.415 357.762V355.591C326.415 353.71 326.74 352.312 327.391 351.398C328.041 350.484 329.061 350.027 330.449 350.027C331.826 350.027 332.84 350.47 333.49 351.354C334.141 352.233 334.475 353.593 334.492 355.433V357.542ZM332.866 355.318C332.866 353.941 332.673 352.939 332.286 352.312C331.899 351.68 331.287 351.363 330.449 351.363C329.617 351.363 329.011 351.677 328.63 352.304C328.249 352.931 328.053 353.895 328.041 355.195V357.797C328.041 359.18 328.24 360.202 328.639 360.864C329.043 361.521 329.652 361.849 330.467 361.849C331.27 361.849 331.864 361.538 332.251 360.917C332.644 360.296 332.849 359.317 332.866 357.981V355.318Z" fill="#555555"/>
<rect x="252" y="351" width="14" height="13" rx="6.5" fill="#5ECA75"/>
</svg>
