<svg width="499" height="484" viewBox="0 0 499 484" fill="none" xmlns="http://www.w3.org/2000/svg">
<path opacity="0.5" d="M323.232 406L318.232 403.113V408.887L323.232 406ZM325 436L320 433.113V438.887L325 436ZM297 406.5H318.732V405.5H297V406.5ZM297 411.418H303.853V410.418H297V411.418ZM310.353 417.918V429H311.353V417.918H310.353ZM317.853 436.5H320.5V435.5H317.853V436.5ZM310.353 429C310.353 433.142 313.71 436.5 317.853 436.5V435.5C314.263 435.5 311.353 432.59 311.353 429H310.353ZM303.853 411.418C307.442 411.418 310.353 414.328 310.353 417.918H311.353C311.353 413.776 307.995 410.418 303.853 410.418V411.418Z" fill="white"/>
<path opacity="0.5" d="M188 170.696L193 173.583V167.809L188 170.696ZM188 246.392L193 249.279V243.505L188 246.392ZM188 321L193 323.887V318.113L188 321ZM214.7 98V156.696H215.7V98H214.7ZM201.2 170.196H192.5V171.196H201.2V170.196ZM229.1 98V232.392H230.1V98H229.1ZM215.6 245.892H192.5V246.892H215.6V245.892ZM243.5 98V307H244.5V98H243.5ZM230 320.5H192.5V321.5H230V320.5ZM243.5 307C243.5 314.456 237.456 320.5 230 320.5V321.5C238.008 321.5 244.5 315.008 244.5 307H243.5ZM229.1 232.392C229.1 239.848 223.056 245.892 215.6 245.892V246.892C223.608 246.892 230.1 240.4 230.1 232.392H229.1ZM214.7 156.696C214.7 164.152 208.656 170.196 201.2 170.196V171.196C209.208 171.196 215.7 164.704 215.7 156.696H214.7Z" fill="white"/>
<path opacity="0.5" d="M319 170.696L314 173.583V167.809L319 170.696ZM319 246.392L314 249.279V243.505L319 246.392ZM319 321L314 323.887V318.113L319 321ZM292.3 98V156.696H291.3V98H292.3ZM305.8 170.196H314.5V171.196H305.8V170.196ZM277.9 98V232.392H276.9V98H277.9ZM291.4 245.892H314.5V246.892H291.4V245.892ZM263.5 98V307H262.5V98H263.5ZM277 320.5H314.5V321.5H277V320.5ZM263.5 307C263.5 314.456 269.544 320.5 277 320.5V321.5C268.992 321.5 262.5 315.008 262.5 307H263.5ZM277.9 232.392C277.9 239.848 283.944 245.892 291.4 245.892V246.892C283.392 246.892 276.9 240.4 276.9 232.392H277.9ZM292.3 156.696C292.3 164.152 298.344 170.196 305.8 170.196V171.196C297.792 171.196 291.3 164.704 291.3 156.696H292.3Z" fill="white"/>
<path d="M168.516 406.695C168.516 405.857 168.677 405.109 169 404.453C169.323 403.797 169.786 403.289 170.391 402.93C171 402.57 171.706 402.391 172.508 402.391C173.648 402.391 174.578 402.74 175.297 403.438C176.021 404.135 176.424 405.083 176.508 406.281L176.523 406.859C176.523 408.156 176.161 409.198 175.438 409.984C174.714 410.766 173.742 411.156 172.523 411.156C171.305 411.156 170.331 410.766 169.602 409.984C168.878 409.203 168.516 408.141 168.516 406.797V406.695ZM170.773 406.859C170.773 407.661 170.924 408.276 171.227 408.703C171.529 409.125 171.961 409.336 172.523 409.336C173.07 409.336 173.497 409.128 173.805 408.711C174.112 408.289 174.266 407.617 174.266 406.695C174.266 405.909 174.112 405.299 173.805 404.867C173.497 404.435 173.065 404.219 172.508 404.219C171.956 404.219 171.529 404.435 171.227 404.867C170.924 405.294 170.773 405.958 170.773 406.859ZM177.469 409.18C177.979 408.638 178.326 408.102 178.508 407.57C178.69 407.039 178.792 406.286 178.812 405.312L178.875 402.547H185.094V409.18H186.312V413.539H184.055V411H179.047V413.539H176.742V409.18H177.469ZM180.133 409.18H182.844V404.414H181.086L181.07 405.43C181.023 406.982 180.711 408.232 180.133 409.18ZM194.648 411H192.383V407.75H189.578V411H187.32V402.547H189.578V405.938H192.383V402.547H194.648V411ZM196.047 406.695C196.047 405.857 196.208 405.109 196.531 404.453C196.854 403.797 197.318 403.289 197.922 402.93C198.531 402.57 199.237 402.391 200.039 402.391C201.18 402.391 202.109 402.74 202.828 403.438C203.552 404.135 203.956 405.083 204.039 406.281L204.055 406.859C204.055 408.156 203.693 409.198 202.969 409.984C202.245 410.766 201.273 411.156 200.055 411.156C198.836 411.156 197.862 410.766 197.133 409.984C196.409 409.203 196.047 408.141 196.047 406.797V406.695ZM198.305 406.859C198.305 407.661 198.456 408.276 198.758 408.703C199.06 409.125 199.492 409.336 200.055 409.336C200.602 409.336 201.029 409.128 201.336 408.711C201.643 408.289 201.797 407.617 201.797 406.695C201.797 405.909 201.643 405.299 201.336 404.867C201.029 404.435 200.596 404.219 200.039 404.219C199.487 404.219 199.06 404.435 198.758 404.867C198.456 405.294 198.305 405.958 198.305 406.859ZM208.758 407.883H207.852V411H205.594V402.547H207.852V405.727H208.656L210.5 402.547H213.352L210.586 406.57L213.609 411H210.602L208.758 407.883ZM213.656 406.695C213.656 405.857 213.818 405.109 214.141 404.453C214.464 403.797 214.927 403.289 215.531 402.93C216.141 402.57 216.846 402.391 217.648 402.391C218.789 402.391 219.719 402.74 220.438 403.438C221.161 404.135 221.565 405.083 221.648 406.281L221.664 406.859C221.664 408.156 221.302 409.198 220.578 409.984C219.854 410.766 218.883 411.156 217.664 411.156C216.445 411.156 215.471 410.766 214.742 409.984C214.018 409.203 213.656 408.141 213.656 406.797V406.695ZM215.914 406.859C215.914 407.661 216.065 408.276 216.367 408.703C216.669 409.125 217.102 409.336 217.664 409.336C218.211 409.336 218.638 409.128 218.945 408.711C219.253 408.289 219.406 407.617 219.406 406.695C219.406 405.909 219.253 405.299 218.945 404.867C218.638 404.435 218.206 404.219 217.648 404.219C217.096 404.219 216.669 404.435 216.367 404.867C216.065 405.294 215.914 405.958 215.914 406.859ZM228.203 408.336L230.414 402.547H233.242V411H230.984V405.812L228.961 411H227.445L225.461 405.898V411H223.203V402.547H226.008L228.203 408.336ZM242.539 411H240.273V407.75H237.469V411H235.211V402.547H237.469V405.938H240.273V402.547H242.539V411ZM249.188 411C249.083 410.797 249.008 410.544 248.961 410.242C248.414 410.852 247.703 411.156 246.828 411.156C246 411.156 245.312 410.917 244.766 410.438C244.224 409.958 243.953 409.354 243.953 408.625C243.953 407.729 244.284 407.042 244.945 406.562C245.612 406.083 246.573 405.841 247.828 405.836H248.867V405.352C248.867 404.961 248.766 404.648 248.562 404.414C248.365 404.18 248.049 404.062 247.617 404.062C247.237 404.062 246.938 404.154 246.719 404.336C246.505 404.518 246.398 404.768 246.398 405.086H244.141C244.141 404.596 244.292 404.143 244.594 403.727C244.896 403.31 245.323 402.984 245.875 402.75C246.427 402.51 247.047 402.391 247.734 402.391C248.776 402.391 249.602 402.654 250.211 403.18C250.826 403.701 251.133 404.435 251.133 405.383V409.047C251.138 409.849 251.25 410.456 251.469 410.867V411H249.188ZM247.32 409.43C247.654 409.43 247.961 409.357 248.242 409.211C248.523 409.06 248.732 408.859 248.867 408.609V407.156H248.023C246.893 407.156 246.292 407.547 246.219 408.328L246.211 408.461C246.211 408.742 246.31 408.974 246.508 409.156C246.706 409.339 246.977 409.43 247.32 409.43ZM259.758 404.359H257.047V411H254.781V404.359H252.117V402.547H259.758V404.359ZM268.227 411H265.961V407.75H263.156V411H260.898V402.547H263.156V405.938H265.961V402.547H268.227V411ZM272.391 405.023H274.008C274.737 405.023 275.378 405.146 275.93 405.391C276.482 405.635 276.904 405.987 277.195 406.445C277.492 406.898 277.641 407.427 277.641 408.031C277.641 408.922 277.31 409.641 276.648 410.188C275.992 410.729 275.096 411 273.961 411H270.125V402.547H272.391V405.023ZM281.234 411H278.977V402.547H281.234V411ZM272.391 406.836V409.195H273.992C274.44 409.195 274.784 409.091 275.023 408.883C275.263 408.674 275.383 408.391 275.383 408.031C275.383 407.667 275.266 407.378 275.031 407.164C274.797 406.945 274.451 406.836 273.992 406.836H272.391ZM287.117 411.156C285.878 411.156 284.867 410.776 284.086 410.016C283.31 409.255 282.922 408.242 282.922 406.977V406.758C282.922 405.909 283.086 405.151 283.414 404.484C283.742 403.812 284.206 403.297 284.805 402.938C285.409 402.573 286.096 402.391 286.867 402.391C288.023 402.391 288.932 402.755 289.594 403.484C290.26 404.214 290.594 405.247 290.594 406.586V407.508H285.211C285.284 408.06 285.503 408.503 285.867 408.836C286.237 409.169 286.703 409.336 287.266 409.336C288.135 409.336 288.815 409.021 289.305 408.391L290.414 409.633C290.076 410.112 289.617 410.487 289.039 410.758C288.461 411.023 287.82 411.156 287.117 411.156ZM286.859 404.219C286.411 404.219 286.047 404.37 285.766 404.672C285.49 404.974 285.312 405.406 285.234 405.969H288.375V405.789C288.365 405.289 288.229 404.904 287.969 404.633C287.708 404.357 287.339 404.219 286.859 404.219Z" fill="white"/>
<path d="M342.023 409.82L342.523 409.203C343.086 408.474 343.406 407.38 343.484 405.922L343.617 402.547H349.062V409.82H350.148V413.484H348.703V411H342.805V413.484H341.359L341.367 409.82H342.023ZM343.734 409.82H347.617V403.883H345.016L344.93 405.898C344.841 407.581 344.443 408.888 343.734 409.82ZM351.367 406.695C351.367 405.867 351.529 405.122 351.852 404.461C352.18 403.799 352.633 403.289 353.211 402.93C353.794 402.57 354.458 402.391 355.203 402.391C356.354 402.391 357.284 402.789 357.992 403.586C358.706 404.383 359.062 405.443 359.062 406.766V406.867C359.062 407.69 358.904 408.43 358.586 409.086C358.273 409.737 357.823 410.245 357.234 410.609C356.651 410.974 355.979 411.156 355.219 411.156C354.073 411.156 353.143 410.758 352.43 409.961C351.721 409.164 351.367 408.109 351.367 406.797V406.695ZM352.82 406.867C352.82 407.805 353.036 408.557 353.469 409.125C353.906 409.693 354.49 409.977 355.219 409.977C355.953 409.977 356.536 409.69 356.969 409.117C357.401 408.539 357.617 407.732 357.617 406.695C357.617 405.768 357.396 405.018 356.953 404.445C356.516 403.867 355.932 403.578 355.203 403.578C354.49 403.578 353.914 403.862 353.477 404.43C353.039 404.997 352.82 405.81 352.82 406.867ZM369.445 411H367.992V401.367L365.078 402.438V401.125L369.219 399.57H369.445V411ZM380.812 406.148C380.812 407.841 380.523 409.099 379.945 409.922C379.367 410.745 378.464 411.156 377.234 411.156C376.021 411.156 375.122 410.755 374.539 409.953C373.956 409.146 373.654 407.943 373.633 406.344V404.414C373.633 402.742 373.922 401.5 374.5 400.688C375.078 399.875 375.984 399.469 377.219 399.469C378.443 399.469 379.344 399.862 379.922 400.648C380.5 401.43 380.797 402.638 380.812 404.273V406.148ZM379.367 404.172C379.367 402.948 379.195 402.057 378.852 401.5C378.508 400.938 377.964 400.656 377.219 400.656C376.479 400.656 375.94 400.935 375.602 401.492C375.263 402.049 375.089 402.906 375.078 404.062V406.375C375.078 407.604 375.255 408.513 375.609 409.102C375.969 409.685 376.51 409.977 377.234 409.977C377.948 409.977 378.477 409.701 378.82 409.148C379.169 408.596 379.352 407.727 379.367 406.539V404.172ZM389.797 406.148C389.797 407.841 389.508 409.099 388.93 409.922C388.352 410.745 387.448 411.156 386.219 411.156C385.005 411.156 384.107 410.755 383.523 409.953C382.94 409.146 382.638 407.943 382.617 406.344V404.414C382.617 402.742 382.906 401.5 383.484 400.688C384.062 399.875 384.969 399.469 386.203 399.469C387.427 399.469 388.328 399.862 388.906 400.648C389.484 401.43 389.781 402.638 389.797 404.273V406.148ZM388.352 404.172C388.352 402.948 388.18 402.057 387.836 401.5C387.492 400.938 386.948 400.656 386.203 400.656C385.464 400.656 384.924 400.935 384.586 401.492C384.247 402.049 384.073 402.906 384.062 404.062V406.375C384.062 407.604 384.24 408.513 384.594 409.102C384.953 409.685 385.495 409.977 386.219 409.977C386.932 409.977 387.461 409.701 387.805 409.148C388.154 408.596 388.336 407.727 388.352 406.539V404.172ZM402.906 406.867C402.906 408.154 402.612 409.19 402.023 409.977C401.435 410.763 400.638 411.156 399.633 411.156C398.607 411.156 397.799 410.831 397.211 410.18V414.25H395.766V402.547H397.086L397.156 403.484C397.745 402.755 398.562 402.391 399.609 402.391C400.625 402.391 401.427 402.773 402.016 403.539C402.609 404.305 402.906 405.37 402.906 406.734V406.867ZM401.461 406.703C401.461 405.75 401.258 404.997 400.852 404.445C400.445 403.893 399.888 403.617 399.18 403.617C398.305 403.617 397.648 404.005 397.211 404.781V408.82C397.643 409.591 398.305 409.977 399.195 409.977C399.888 409.977 400.438 409.703 400.844 409.156C401.255 408.604 401.461 407.786 401.461 406.703ZM407.422 408.883L409.391 402.547H410.938L407.539 412.305C407.013 413.711 406.177 414.414 405.031 414.414L404.758 414.391L404.219 414.289V413.117L404.609 413.148C405.099 413.148 405.479 413.049 405.75 412.852C406.026 412.654 406.253 412.292 406.43 411.766L406.75 410.906L403.734 402.547H405.312L407.422 408.883ZM415.945 403.031C417.008 403.031 417.857 403.388 418.492 404.102C419.133 404.81 419.453 405.745 419.453 406.906V407.039C419.453 407.836 419.299 408.549 418.992 409.18C418.685 409.805 418.242 410.292 417.664 410.641C417.091 410.984 416.43 411.156 415.68 411.156C414.544 411.156 413.63 410.779 412.938 410.023C412.245 409.263 411.898 408.245 411.898 406.969V406.266C411.898 404.49 412.227 403.078 412.883 402.031C413.544 400.984 414.518 400.346 415.805 400.117C416.534 399.987 417.026 399.828 417.281 399.641C417.536 399.453 417.664 399.195 417.664 398.867H418.852C418.852 399.518 418.703 400.026 418.406 400.391C418.115 400.755 417.646 401.013 417 401.164L415.922 401.406C415.062 401.609 414.417 401.953 413.984 402.438C413.557 402.917 413.279 403.557 413.148 404.359C413.914 403.474 414.846 403.031 415.945 403.031ZM415.664 404.219C414.956 404.219 414.393 404.458 413.977 404.938C413.56 405.411 413.352 406.07 413.352 406.914V407.039C413.352 407.945 413.56 408.664 413.977 409.195C414.398 409.721 414.966 409.984 415.68 409.984C416.398 409.984 416.966 409.719 417.383 409.188C417.799 408.656 418.008 407.88 418.008 406.859C418.008 406.062 417.797 405.424 417.375 404.945C416.958 404.461 416.388 404.219 415.664 404.219Z" fill="white"/>
<path d="M345.68 436.695C345.68 435.867 345.841 435.122 346.164 434.461C346.492 433.799 346.945 433.289 347.523 432.93C348.107 432.57 348.771 432.391 349.516 432.391C350.667 432.391 351.596 432.789 352.305 433.586C353.018 434.383 353.375 435.443 353.375 436.766V436.867C353.375 437.69 353.216 438.43 352.898 439.086C352.586 439.737 352.135 440.245 351.547 440.609C350.964 440.974 350.292 441.156 349.531 441.156C348.385 441.156 347.456 440.758 346.742 439.961C346.034 439.164 345.68 438.109 345.68 436.797V436.695ZM347.133 436.867C347.133 437.805 347.349 438.557 347.781 439.125C348.219 439.693 348.802 439.977 349.531 439.977C350.266 439.977 350.849 439.69 351.281 439.117C351.714 438.539 351.93 437.732 351.93 436.695C351.93 435.768 351.708 435.018 351.266 434.445C350.828 433.867 350.245 433.578 349.516 433.578C348.802 433.578 348.227 433.862 347.789 434.43C347.352 434.997 347.133 435.81 347.133 436.867ZM361.297 433.719H358.461V441H357.016V433.719H354.234V432.547H361.297V433.719ZM371.273 441H369.82V431.367L366.906 432.438V431.125L371.047 429.57H371.273V441ZM382.641 436.148C382.641 437.841 382.352 439.099 381.773 439.922C381.195 440.745 380.292 441.156 379.062 441.156C377.849 441.156 376.951 440.755 376.367 439.953C375.784 439.146 375.482 437.943 375.461 436.344V434.414C375.461 432.742 375.75 431.5 376.328 430.688C376.906 429.875 377.812 429.469 379.047 429.469C380.271 429.469 381.172 429.862 381.75 430.648C382.328 431.43 382.625 432.638 382.641 434.273V436.148ZM381.195 434.172C381.195 432.948 381.023 432.057 380.68 431.5C380.336 430.938 379.792 430.656 379.047 430.656C378.307 430.656 377.768 430.935 377.43 431.492C377.091 432.049 376.917 432.906 376.906 434.062V436.375C376.906 437.604 377.083 438.513 377.438 439.102C377.797 439.685 378.339 439.977 379.062 439.977C379.776 439.977 380.305 439.701 380.648 439.148C380.997 438.596 381.18 437.727 381.195 436.539V434.172ZM391.625 436.148C391.625 437.841 391.336 439.099 390.758 439.922C390.18 440.745 389.276 441.156 388.047 441.156C386.833 441.156 385.935 440.755 385.352 439.953C384.768 439.146 384.466 437.943 384.445 436.344V434.414C384.445 432.742 384.734 431.5 385.312 430.688C385.891 429.875 386.797 429.469 388.031 429.469C389.255 429.469 390.156 429.862 390.734 430.648C391.312 431.43 391.609 432.638 391.625 434.273V436.148ZM390.18 434.172C390.18 432.948 390.008 432.057 389.664 431.5C389.32 430.938 388.776 430.656 388.031 430.656C387.292 430.656 386.753 430.935 386.414 431.492C386.076 432.049 385.901 432.906 385.891 434.062V436.375C385.891 437.604 386.068 438.513 386.422 439.102C386.781 439.685 387.323 439.977 388.047 439.977C388.76 439.977 389.289 439.701 389.633 439.148C389.982 438.596 390.164 437.727 390.18 436.539V434.172ZM397.523 439.82L398.023 439.203C398.586 438.474 398.906 437.38 398.984 435.922L399.117 432.547H404.562V439.82H405.648V443.484H404.203V441H398.305V443.484H396.859L396.867 439.82H397.523ZM399.234 439.82H403.117V433.883H400.516L400.43 435.898C400.341 437.581 399.943 438.888 399.234 439.82ZM406.867 436.695C406.867 435.867 407.029 435.122 407.352 434.461C407.68 433.799 408.133 433.289 408.711 432.93C409.294 432.57 409.958 432.391 410.703 432.391C411.854 432.391 412.784 432.789 413.492 433.586C414.206 434.383 414.562 435.443 414.562 436.766V436.867C414.562 437.69 414.404 438.43 414.086 439.086C413.773 439.737 413.323 440.245 412.734 440.609C412.151 440.974 411.479 441.156 410.719 441.156C409.573 441.156 408.643 440.758 407.93 439.961C407.221 439.164 406.867 438.109 406.867 436.797V436.695ZM408.32 436.867C408.32 437.805 408.536 438.557 408.969 439.125C409.406 439.693 409.99 439.977 410.719 439.977C411.453 439.977 412.036 439.69 412.469 439.117C412.901 438.539 413.117 437.732 413.117 436.695C413.117 435.768 412.896 435.018 412.453 434.445C412.016 433.867 411.432 433.578 410.703 433.578C409.99 433.578 409.414 433.862 408.977 434.43C408.539 434.997 408.32 435.81 408.32 436.867ZM427.648 441H420.195V439.961L424.133 435.586C424.716 434.924 425.117 434.388 425.336 433.977C425.56 433.56 425.672 433.13 425.672 432.688C425.672 432.094 425.492 431.607 425.133 431.227C424.773 430.846 424.294 430.656 423.695 430.656C422.977 430.656 422.417 430.862 422.016 431.273C421.62 431.68 421.422 432.247 421.422 432.977H419.977C419.977 431.93 420.312 431.083 420.984 430.438C421.661 429.792 422.565 429.469 423.695 429.469C424.753 429.469 425.589 429.747 426.203 430.305C426.818 430.857 427.125 431.594 427.125 432.516C427.125 433.635 426.411 434.969 424.984 436.516L421.938 439.82H427.648V441ZM436.312 436.148C436.312 437.841 436.023 439.099 435.445 439.922C434.867 440.745 433.964 441.156 432.734 441.156C431.521 441.156 430.622 440.755 430.039 439.953C429.456 439.146 429.154 437.943 429.133 436.344V434.414C429.133 432.742 429.422 431.5 430 430.688C430.578 429.875 431.484 429.469 432.719 429.469C433.943 429.469 434.844 429.862 435.422 430.648C436 431.43 436.297 432.638 436.312 434.273V436.148ZM434.867 434.172C434.867 432.948 434.695 432.057 434.352 431.5C434.008 430.938 433.464 430.656 432.719 430.656C431.979 430.656 431.44 430.935 431.102 431.492C430.763 432.049 430.589 432.906 430.578 434.062V436.375C430.578 437.604 430.755 438.513 431.109 439.102C431.469 439.685 432.01 439.977 432.734 439.977C433.448 439.977 433.977 439.701 434.32 439.148C434.669 438.596 434.852 437.727 434.867 436.539V434.172ZM445.297 436.148C445.297 437.841 445.008 439.099 444.43 439.922C443.852 440.745 442.948 441.156 441.719 441.156C440.505 441.156 439.607 440.755 439.023 439.953C438.44 439.146 438.138 437.943 438.117 436.344V434.414C438.117 432.742 438.406 431.5 438.984 430.688C439.562 429.875 440.469 429.469 441.703 429.469C442.927 429.469 443.828 429.862 444.406 430.648C444.984 431.43 445.281 432.638 445.297 434.273V436.148ZM443.852 434.172C443.852 432.948 443.68 432.057 443.336 431.5C442.992 430.938 442.448 430.656 441.703 430.656C440.964 430.656 440.424 430.935 440.086 431.492C439.747 432.049 439.573 432.906 439.562 434.062V436.375C439.562 437.604 439.74 438.513 440.094 439.102C440.453 439.685 440.995 439.977 441.719 439.977C442.432 439.977 442.961 439.701 443.305 439.148C443.654 438.596 443.836 437.727 443.852 436.539V434.172ZM458.406 436.867C458.406 438.154 458.112 439.19 457.523 439.977C456.935 440.763 456.138 441.156 455.133 441.156C454.107 441.156 453.299 440.831 452.711 440.18V444.25H451.266V432.547H452.586L452.656 433.484C453.245 432.755 454.062 432.391 455.109 432.391C456.125 432.391 456.927 432.773 457.516 433.539C458.109 434.305 458.406 435.37 458.406 436.734V436.867ZM456.961 436.703C456.961 435.75 456.758 434.997 456.352 434.445C455.945 433.893 455.388 433.617 454.68 433.617C453.805 433.617 453.148 434.005 452.711 434.781V438.82C453.143 439.591 453.805 439.977 454.695 439.977C455.388 439.977 455.938 439.703 456.344 439.156C456.755 438.604 456.961 437.786 456.961 436.703ZM462.922 438.883L464.891 432.547H466.438L463.039 442.305C462.513 443.711 461.677 444.414 460.531 444.414L460.258 444.391L459.719 444.289V443.117L460.109 443.148C460.599 443.148 460.979 443.049 461.25 442.852C461.526 442.654 461.753 442.292 461.93 441.766L462.25 440.906L459.234 432.547H460.812L462.922 438.883ZM471.445 433.031C472.508 433.031 473.357 433.388 473.992 434.102C474.633 434.81 474.953 435.745 474.953 436.906V437.039C474.953 437.836 474.799 438.549 474.492 439.18C474.185 439.805 473.742 440.292 473.164 440.641C472.591 440.984 471.93 441.156 471.18 441.156C470.044 441.156 469.13 440.779 468.438 440.023C467.745 439.263 467.398 438.245 467.398 436.969V436.266C467.398 434.49 467.727 433.078 468.383 432.031C469.044 430.984 470.018 430.346 471.305 430.117C472.034 429.987 472.526 429.828 472.781 429.641C473.036 429.453 473.164 429.195 473.164 428.867H474.352C474.352 429.518 474.203 430.026 473.906 430.391C473.615 430.755 473.146 431.013 472.5 431.164L471.422 431.406C470.562 431.609 469.917 431.953 469.484 432.438C469.057 432.917 468.779 433.557 468.648 434.359C469.414 433.474 470.346 433.031 471.445 433.031ZM471.164 434.219C470.456 434.219 469.893 434.458 469.477 434.938C469.06 435.411 468.852 436.07 468.852 436.914V437.039C468.852 437.945 469.06 438.664 469.477 439.195C469.898 439.721 470.466 439.984 471.18 439.984C471.898 439.984 472.466 439.719 472.883 439.188C473.299 438.656 473.508 437.88 473.508 436.859C473.508 436.062 473.297 435.424 472.875 434.945C472.458 434.461 471.888 434.219 471.164 434.219Z" fill="white"/>
<path d="M168.984 442.18C169.495 441.638 169.841 441.102 170.023 440.57C170.206 440.039 170.307 439.286 170.328 438.312L170.391 435.547H176.609V442.18H177.828V446.539H175.57V444H170.562V446.539H168.258V442.18H168.984ZM171.648 442.18H174.359V437.414H172.602L172.586 438.43C172.539 439.982 172.227 441.232 171.648 442.18ZM179.125 444V435.547H182.656C183.807 435.547 184.69 435.75 185.305 436.156C185.919 436.562 186.227 437.146 186.227 437.906C186.227 438.297 186.096 438.648 185.836 438.961C185.581 439.268 185.206 439.505 184.711 439.672C185.315 439.786 185.789 440.013 186.133 440.352C186.482 440.685 186.656 441.096 186.656 441.586C186.656 442.372 186.359 442.971 185.766 443.383C185.177 443.794 184.32 444 183.195 444H179.125ZM181.383 440.492V442.195H183.203C184 442.195 184.398 441.917 184.398 441.359C184.398 440.792 184.018 440.503 183.258 440.492H181.383ZM181.383 438.977H182.781C183.573 438.966 183.969 438.711 183.969 438.211C183.969 437.904 183.859 437.685 183.641 437.555C183.427 437.424 183.099 437.359 182.656 437.359H181.383V438.977ZM191.102 440.805L192.664 435.547H195.086L191.688 445.312L191.5 445.758C190.995 446.862 190.161 447.414 189 447.414C188.672 447.414 188.339 447.365 188 447.266V445.555L188.344 445.562C188.771 445.562 189.089 445.497 189.297 445.367C189.51 445.237 189.677 445.021 189.797 444.719L190.062 444.023L187.102 435.547H189.531L191.102 440.805ZM199.195 438.07L200.617 435.547H203.031L200.625 439.688L203.133 444H200.711L199.203 441.344L197.703 444H195.273L197.781 439.688L195.383 435.547H197.805L199.195 438.07ZM207.43 440.883H206.523V444H204.266V435.547H206.523V438.727H207.328L209.172 435.547H212.023L209.258 439.57L212.281 444H209.273L207.43 440.883ZM212.328 439.695C212.328 438.857 212.49 438.109 212.812 437.453C213.135 436.797 213.599 436.289 214.203 435.93C214.812 435.57 215.518 435.391 216.32 435.391C217.461 435.391 218.391 435.74 219.109 436.438C219.833 437.135 220.237 438.083 220.32 439.281L220.336 439.859C220.336 441.156 219.974 442.198 219.25 442.984C218.526 443.766 217.555 444.156 216.336 444.156C215.117 444.156 214.143 443.766 213.414 442.984C212.69 442.203 212.328 441.141 212.328 439.797V439.695ZM214.586 439.859C214.586 440.661 214.737 441.276 215.039 441.703C215.341 442.125 215.773 442.336 216.336 442.336C216.883 442.336 217.31 442.128 217.617 441.711C217.924 441.289 218.078 440.617 218.078 439.695C218.078 438.909 217.924 438.299 217.617 437.867C217.31 437.435 216.878 437.219 216.32 437.219C215.768 437.219 215.341 437.435 215.039 437.867C214.737 438.294 214.586 438.958 214.586 439.859ZM226.875 441.336L229.086 435.547H231.914V444H229.656V438.812L227.633 444H226.117L224.133 438.898V444H221.875V435.547H224.68L226.875 441.336ZM241.211 444H238.945V440.75H236.141V444H233.883V435.547H236.141V438.938H238.945V435.547H241.211V444ZM247.859 444C247.755 443.797 247.68 443.544 247.633 443.242C247.086 443.852 246.375 444.156 245.5 444.156C244.672 444.156 243.984 443.917 243.438 443.438C242.896 442.958 242.625 442.354 242.625 441.625C242.625 440.729 242.956 440.042 243.617 439.562C244.284 439.083 245.245 438.841 246.5 438.836H247.539V438.352C247.539 437.961 247.438 437.648 247.234 437.414C247.036 437.18 246.721 437.062 246.289 437.062C245.909 437.062 245.609 437.154 245.391 437.336C245.177 437.518 245.07 437.768 245.07 438.086H242.812C242.812 437.596 242.964 437.143 243.266 436.727C243.568 436.31 243.995 435.984 244.547 435.75C245.099 435.51 245.719 435.391 246.406 435.391C247.448 435.391 248.273 435.654 248.883 436.18C249.497 436.701 249.805 437.435 249.805 438.383V442.047C249.81 442.849 249.922 443.456 250.141 443.867V444H247.859ZM245.992 442.43C246.326 442.43 246.633 442.357 246.914 442.211C247.195 442.06 247.404 441.859 247.539 441.609V440.156H246.695C245.565 440.156 244.964 440.547 244.891 441.328L244.883 441.461C244.883 441.742 244.982 441.974 245.18 442.156C245.378 442.339 245.648 442.43 245.992 442.43ZM258.43 437.359H255.719V444H253.453V437.359H250.789V435.547H258.43V437.359ZM266.898 444H264.633V440.75H261.828V444H259.57V435.547H261.828V438.938H264.633V435.547H266.898V444ZM271.062 438.023H272.68C273.409 438.023 274.049 438.146 274.602 438.391C275.154 438.635 275.576 438.987 275.867 439.445C276.164 439.898 276.312 440.427 276.312 441.031C276.312 441.922 275.982 442.641 275.32 443.188C274.664 443.729 273.768 444 272.633 444H268.797V435.547H271.062V438.023ZM279.906 444H277.648V435.547H279.906V444ZM271.062 439.836V442.195H272.664C273.112 442.195 273.456 442.091 273.695 441.883C273.935 441.674 274.055 441.391 274.055 441.031C274.055 440.667 273.938 440.378 273.703 440.164C273.469 439.945 273.122 439.836 272.664 439.836H271.062ZM285.789 444.156C284.549 444.156 283.539 443.776 282.758 443.016C281.982 442.255 281.594 441.242 281.594 439.977V439.758C281.594 438.909 281.758 438.151 282.086 437.484C282.414 436.812 282.878 436.297 283.477 435.938C284.081 435.573 284.768 435.391 285.539 435.391C286.695 435.391 287.604 435.755 288.266 436.484C288.932 437.214 289.266 438.247 289.266 439.586V440.508H283.883C283.956 441.06 284.174 441.503 284.539 441.836C284.909 442.169 285.375 442.336 285.938 442.336C286.807 442.336 287.487 442.021 287.977 441.391L289.086 442.633C288.747 443.112 288.289 443.487 287.711 443.758C287.133 444.023 286.492 444.156 285.789 444.156ZM285.531 437.219C285.083 437.219 284.719 437.37 284.438 437.672C284.161 437.974 283.984 438.406 283.906 438.969H287.047V438.789C287.036 438.289 286.901 437.904 286.641 437.633C286.38 437.357 286.01 437.219 285.531 437.219Z" fill="white"/>
<path d="M175.883 470.359H173.172V477H170.906V470.359H168.242V468.547H175.883V470.359ZM184.633 472.852C184.633 474.154 184.336 475.198 183.742 475.984C183.154 476.766 182.357 477.156 181.352 477.156C180.497 477.156 179.807 476.859 179.281 476.266V480.25H177.023V468.547H179.117L179.195 469.375C179.742 468.719 180.456 468.391 181.336 468.391C182.378 468.391 183.188 468.776 183.766 469.547C184.344 470.318 184.633 471.38 184.633 472.734V472.852ZM182.375 472.688C182.375 471.901 182.234 471.294 181.953 470.867C181.677 470.44 181.273 470.227 180.742 470.227C180.034 470.227 179.547 470.497 179.281 471.039V474.5C179.557 475.057 180.049 475.336 180.758 475.336C181.836 475.336 182.375 474.453 182.375 472.688ZM189.93 477.156C188.69 477.156 187.68 476.776 186.898 476.016C186.122 475.255 185.734 474.242 185.734 472.977V472.758C185.734 471.909 185.898 471.151 186.227 470.484C186.555 469.812 187.018 469.297 187.617 468.938C188.221 468.573 188.909 468.391 189.68 468.391C190.836 468.391 191.745 468.755 192.406 469.484C193.073 470.214 193.406 471.247 193.406 472.586V473.508H188.023C188.096 474.06 188.315 474.503 188.68 474.836C189.049 475.169 189.516 475.336 190.078 475.336C190.948 475.336 191.628 475.021 192.117 474.391L193.227 475.633C192.888 476.112 192.43 476.487 191.852 476.758C191.273 477.023 190.633 477.156 189.93 477.156ZM189.672 470.219C189.224 470.219 188.859 470.37 188.578 470.672C188.302 470.974 188.125 471.406 188.047 471.969H191.188V471.789C191.177 471.289 191.042 470.904 190.781 470.633C190.521 470.357 190.151 470.219 189.672 470.219ZM197.914 471.07L199.336 468.547H201.75L199.344 472.688L201.852 477H199.43L197.922 474.344L196.422 477H193.992L196.5 472.688L194.102 468.547H196.523L197.914 471.07ZM206.148 473.883H205.242V477H202.984V468.547H205.242V471.727H206.047L207.891 468.547H210.742L207.977 472.57L211 477H207.992L206.148 473.883ZM211.047 472.695C211.047 471.857 211.208 471.109 211.531 470.453C211.854 469.797 212.318 469.289 212.922 468.93C213.531 468.57 214.237 468.391 215.039 468.391C216.18 468.391 217.109 468.74 217.828 469.438C218.552 470.135 218.956 471.083 219.039 472.281L219.055 472.859C219.055 474.156 218.693 475.198 217.969 475.984C217.245 476.766 216.273 477.156 215.055 477.156C213.836 477.156 212.862 476.766 212.133 475.984C211.409 475.203 211.047 474.141 211.047 472.797V472.695ZM213.305 472.859C213.305 473.661 213.456 474.276 213.758 474.703C214.06 475.125 214.492 475.336 215.055 475.336C215.602 475.336 216.029 475.128 216.336 474.711C216.643 474.289 216.797 473.617 216.797 472.695C216.797 471.909 216.643 471.299 216.336 470.867C216.029 470.435 215.596 470.219 215.039 470.219C214.487 470.219 214.06 470.435 213.758 470.867C213.456 471.294 213.305 471.958 213.305 472.859ZM225.594 474.336L227.805 468.547H230.633V477H228.375V471.812L226.352 477H224.836L222.852 471.898V477H220.594V468.547H223.398L225.594 474.336ZM239.93 477H237.664V473.75H234.859V477H232.602V468.547H234.859V471.938H237.664V468.547H239.93V477ZM246.578 477C246.474 476.797 246.398 476.544 246.352 476.242C245.805 476.852 245.094 477.156 244.219 477.156C243.391 477.156 242.703 476.917 242.156 476.438C241.615 475.958 241.344 475.354 241.344 474.625C241.344 473.729 241.674 473.042 242.336 472.562C243.003 472.083 243.964 471.841 245.219 471.836H246.258V471.352C246.258 470.961 246.156 470.648 245.953 470.414C245.755 470.18 245.44 470.062 245.008 470.062C244.628 470.062 244.328 470.154 244.109 470.336C243.896 470.518 243.789 470.768 243.789 471.086H241.531C241.531 470.596 241.682 470.143 241.984 469.727C242.286 469.31 242.714 468.984 243.266 468.75C243.818 468.51 244.438 468.391 245.125 468.391C246.167 468.391 246.992 468.654 247.602 469.18C248.216 469.701 248.523 470.435 248.523 471.383V475.047C248.529 475.849 248.641 476.456 248.859 476.867V477H246.578ZM244.711 475.43C245.044 475.43 245.352 475.357 245.633 475.211C245.914 475.06 246.122 474.859 246.258 474.609V473.156H245.414C244.284 473.156 243.682 473.547 243.609 474.328L243.602 474.461C243.602 474.742 243.701 474.974 243.898 475.156C244.096 475.339 244.367 475.43 244.711 475.43ZM257.148 470.359H254.438V477H252.172V470.359H249.508V468.547H257.148V470.359ZM265.617 477H263.352V473.75H260.547V477H258.289V468.547H260.547V471.938H263.352V468.547H265.617V477ZM269.781 471.023H271.398C272.128 471.023 272.768 471.146 273.32 471.391C273.872 471.635 274.294 471.987 274.586 472.445C274.883 472.898 275.031 473.427 275.031 474.031C275.031 474.922 274.701 475.641 274.039 476.188C273.383 476.729 272.487 477 271.352 477H267.516V468.547H269.781V471.023ZM278.625 477H276.367V468.547H278.625V477ZM269.781 472.836V475.195H271.383C271.831 475.195 272.174 475.091 272.414 474.883C272.654 474.674 272.773 474.391 272.773 474.031C272.773 473.667 272.656 473.378 272.422 473.164C272.188 472.945 271.841 472.836 271.383 472.836H269.781ZM284.508 477.156C283.268 477.156 282.258 476.776 281.477 476.016C280.701 475.255 280.312 474.242 280.312 472.977V472.758C280.312 471.909 280.477 471.151 280.805 470.484C281.133 469.812 281.596 469.297 282.195 468.938C282.799 468.573 283.487 468.391 284.258 468.391C285.414 468.391 286.323 468.755 286.984 469.484C287.651 470.214 287.984 471.247 287.984 472.586V473.508H282.602C282.674 474.06 282.893 474.503 283.258 474.836C283.628 475.169 284.094 475.336 284.656 475.336C285.526 475.336 286.206 475.021 286.695 474.391L287.805 475.633C287.466 476.112 287.008 476.487 286.43 476.758C285.852 477.023 285.211 477.156 284.508 477.156ZM284.25 470.219C283.802 470.219 283.438 470.37 283.156 470.672C282.88 470.974 282.703 471.406 282.625 471.969H285.766V471.789C285.755 471.289 285.62 470.904 285.359 470.633C285.099 470.357 284.729 470.219 284.25 470.219Z" fill="white"/>
<rect x="0.5" y="145.5" width="188" height="49" rx="9.5" fill="white"/>
<circle cx="23" cy="170" r="6" fill="#33BED8"/>
<path d="M40.7734 175V163.625H44.4922C45.7266 163.625 46.6536 163.88 47.2734 164.391C47.8984 164.901 48.2109 165.656 48.2109 166.656C48.2109 167.188 48.0599 167.659 47.7578 168.07C47.4557 168.477 47.0443 168.792 46.5234 169.016C47.138 169.188 47.6224 169.516 47.9766 170C48.3359 170.479 48.5156 171.052 48.5156 171.719C48.5156 172.74 48.1849 173.542 47.5234 174.125C46.862 174.708 45.9271 175 44.7188 175H40.7734ZM42.2734 169.68V173.773H44.75C45.4479 173.773 45.9974 173.594 46.3984 173.234C46.8047 172.87 47.0078 172.37 47.0078 171.734C47.0078 170.365 46.263 169.68 44.7734 169.68H42.2734ZM42.2734 168.477H44.5391C45.1953 168.477 45.7188 168.312 46.1094 167.984C46.5052 167.656 46.7031 167.211 46.7031 166.648C46.7031 166.023 46.5208 165.57 46.1562 165.289C45.7917 165.003 45.237 164.859 44.4922 164.859H42.2734V168.477ZM56.7969 167.719H53.9609V175H52.5156V167.719H49.7344V166.547H56.7969V167.719ZM57.4922 170.695C57.4922 169.867 57.6536 169.122 57.9766 168.461C58.3047 167.799 58.7578 167.289 59.3359 166.93C59.9193 166.57 60.5833 166.391 61.3281 166.391C62.4792 166.391 63.4089 166.789 64.1172 167.586C64.8307 168.383 65.1875 169.443 65.1875 170.766V170.867C65.1875 171.69 65.0286 172.43 64.7109 173.086C64.3984 173.737 63.9479 174.245 63.3594 174.609C62.776 174.974 62.1042 175.156 61.3438 175.156C60.1979 175.156 59.2682 174.758 58.5547 173.961C57.8464 173.164 57.4922 172.109 57.4922 170.797V170.695ZM58.9453 170.867C58.9453 171.805 59.1615 172.557 59.5938 173.125C60.0312 173.693 60.6146 173.977 61.3438 173.977C62.0781 173.977 62.6615 173.69 63.0938 173.117C63.526 172.539 63.7422 171.732 63.7422 170.695C63.7422 169.768 63.5208 169.018 63.0781 168.445C62.6406 167.867 62.0573 167.578 61.3281 167.578C60.6146 167.578 60.0391 167.862 59.6016 168.43C59.1641 168.997 58.9453 169.81 58.9453 170.867ZM74.1406 170.867C74.1406 172.154 73.8464 173.19 73.2578 173.977C72.6693 174.763 71.8724 175.156 70.8672 175.156C69.8411 175.156 69.0339 174.831 68.4453 174.18V178.25H67V166.547H68.3203L68.3906 167.484C68.9792 166.755 69.7969 166.391 70.8438 166.391C71.8594 166.391 72.6615 166.773 73.25 167.539C73.8438 168.305 74.1406 169.37 74.1406 170.734V170.867ZM72.6953 170.703C72.6953 169.75 72.4922 168.997 72.0859 168.445C71.6797 167.893 71.1224 167.617 70.4141 167.617C69.5391 167.617 68.8828 168.005 68.4453 168.781V172.82C68.8776 173.591 69.5391 173.977 70.4297 173.977C71.1224 173.977 71.6719 173.703 72.0781 173.156C72.4896 172.604 72.6953 171.786 72.6953 170.703ZM81.4531 166.547H82.8984V175H81.4531V168.836L77.5547 175H76.1094V166.547H77.5547V172.719L81.4531 166.547ZM91.6016 175H90.1484V171.938C89.513 172.104 88.862 172.188 88.1953 172.188C87.138 172.188 86.3307 171.917 85.7734 171.375C85.2214 170.833 84.9401 170.062 84.9297 169.062V166.539H86.375V169.109C86.401 170.37 87.0078 171 88.1953 171C88.862 171 89.513 170.917 90.1484 170.75V166.547H91.6016V175ZM100.828 175H99.3828V171.391H95.5V175H94.0469V166.547H95.5V170.211H99.3828V166.547H100.828V175ZM102.773 170.695C102.773 169.867 102.935 169.122 103.258 168.461C103.586 167.799 104.039 167.289 104.617 166.93C105.201 166.57 105.865 166.391 106.609 166.391C107.76 166.391 108.69 166.789 109.398 167.586C110.112 168.383 110.469 169.443 110.469 170.766V170.867C110.469 171.69 110.31 172.43 109.992 173.086C109.68 173.737 109.229 174.245 108.641 174.609C108.057 174.974 107.385 175.156 106.625 175.156C105.479 175.156 104.549 174.758 103.836 173.961C103.128 173.164 102.773 172.109 102.773 170.797V170.695ZM104.227 170.867C104.227 171.805 104.443 172.557 104.875 173.125C105.312 173.693 105.896 173.977 106.625 173.977C107.359 173.977 107.943 173.69 108.375 173.117C108.807 172.539 109.023 171.732 109.023 170.695C109.023 169.768 108.802 169.018 108.359 168.445C107.922 167.867 107.339 167.578 106.609 167.578C105.896 167.578 105.32 167.862 104.883 168.43C104.445 168.997 104.227 169.81 104.227 170.867ZM115.789 175.156C114.643 175.156 113.711 174.781 112.992 174.031C112.273 173.276 111.914 172.268 111.914 171.008V170.742C111.914 169.904 112.073 169.156 112.391 168.5C112.714 167.839 113.161 167.323 113.734 166.953C114.312 166.578 114.938 166.391 115.609 166.391C116.708 166.391 117.562 166.753 118.172 167.477C118.781 168.201 119.086 169.237 119.086 170.586V171.188H113.359C113.38 172.021 113.622 172.695 114.086 173.211C114.555 173.721 115.148 173.977 115.867 173.977C116.378 173.977 116.81 173.872 117.164 173.664C117.518 173.456 117.828 173.18 118.094 172.836L118.977 173.523C118.268 174.612 117.206 175.156 115.789 175.156ZM115.609 167.578C115.026 167.578 114.536 167.792 114.141 168.219C113.745 168.641 113.5 169.234 113.406 170H117.641V169.891C117.599 169.156 117.401 168.589 117.047 168.188C116.693 167.781 116.214 167.578 115.609 167.578ZM131.477 171.328H130.461V175H129.016V171.328H128L125.633 175H123.805L126.828 170.625L124.094 166.547H125.844L128.023 170.047H129.016V166.547H130.461V170.047H131.445L133.641 166.547H135.391L132.648 170.633L135.672 175H133.844L131.477 171.328ZM142.453 166.547H143.898V175H142.453V168.836L138.555 175H137.109V166.547H138.555V172.719L142.453 166.547ZM153.148 166.547V175H151.695V167.742H148.82L148.648 170.906C148.555 172.359 148.31 173.398 147.914 174.023C147.523 174.648 146.901 174.974 146.047 175H145.469V173.727L145.883 173.695C146.352 173.643 146.688 173.372 146.891 172.883C147.094 172.393 147.224 171.487 147.281 170.164L147.438 166.547H153.148ZM157.047 169.461H159.242C160.201 169.471 160.958 169.721 161.516 170.211C162.073 170.701 162.352 171.365 162.352 172.203C162.352 173.047 162.065 173.724 161.492 174.234C160.919 174.745 160.148 175 159.18 175H155.602V166.547H157.047V169.461ZM157.047 170.641V173.82H159.195C159.737 173.82 160.156 173.682 160.453 173.406C160.75 173.125 160.898 172.742 160.898 172.258C160.898 171.789 160.753 171.406 160.461 171.109C160.174 170.807 159.771 170.651 159.25 170.641H157.047ZM167.664 175.156C166.518 175.156 165.586 174.781 164.867 174.031C164.148 173.276 163.789 172.268 163.789 171.008V170.742C163.789 169.904 163.948 169.156 164.266 168.5C164.589 167.839 165.036 167.323 165.609 166.953C166.188 166.578 166.812 166.391 167.484 166.391C168.583 166.391 169.438 166.753 170.047 167.477C170.656 168.201 170.961 169.237 170.961 170.586V171.188H165.234C165.255 172.021 165.497 172.695 165.961 173.211C166.43 173.721 167.023 173.977 167.742 173.977C168.253 173.977 168.685 173.872 169.039 173.664C169.393 173.456 169.703 173.18 169.969 172.836L170.852 173.523C170.143 174.612 169.081 175.156 167.664 175.156ZM167.484 167.578C166.901 167.578 166.411 167.792 166.016 168.219C165.62 168.641 165.375 169.234 165.281 170H169.516V169.891C169.474 169.156 169.276 168.589 168.922 168.188C168.568 167.781 168.089 167.578 167.484 167.578Z" fill="#333333"/>
<rect x="0.5" y="145.5" width="188" height="49" rx="9.5" stroke="white"/>
<rect x="81.5" y="218.5" width="106" height="49" rx="9.5" fill="white"/>
<circle cx="104" cy="243" r="6" fill="#4257D9"/>
<path d="M121.758 248V236.625H125.477C126.711 236.625 127.638 236.88 128.258 237.391C128.883 237.901 129.195 238.656 129.195 239.656C129.195 240.188 129.044 240.659 128.742 241.07C128.44 241.477 128.029 241.792 127.508 242.016C128.122 242.188 128.607 242.516 128.961 243C129.32 243.479 129.5 244.052 129.5 244.719C129.5 245.74 129.169 246.542 128.508 247.125C127.846 247.708 126.911 248 125.703 248H121.758ZM123.258 242.68V246.773H125.734C126.432 246.773 126.982 246.594 127.383 246.234C127.789 245.87 127.992 245.37 127.992 244.734C127.992 243.365 127.247 242.68 125.758 242.68H123.258ZM123.258 241.477H125.523C126.18 241.477 126.703 241.312 127.094 240.984C127.49 240.656 127.688 240.211 127.688 239.648C127.688 239.023 127.505 238.57 127.141 238.289C126.776 238.003 126.221 237.859 125.477 237.859H123.258V241.477ZM136.969 239.547H138.414V248H136.969V241.836L133.07 248H131.625V239.547H133.07V245.719L136.969 239.547ZM147.664 239.547V248H146.211V240.742H143.336L143.164 243.906C143.07 245.359 142.826 246.398 142.43 247.023C142.039 247.648 141.417 247.974 140.562 248H139.984V246.727L140.398 246.695C140.867 246.643 141.203 246.372 141.406 245.883C141.609 245.393 141.74 244.487 141.797 243.164L141.953 239.547H147.664ZM156.914 239.547V248H155.461V240.742H152.586L152.414 243.906C152.32 245.359 152.076 246.398 151.68 247.023C151.289 247.648 150.667 247.974 149.812 248H149.234V246.727L149.648 246.695C150.117 246.643 150.453 246.372 150.656 245.883C150.859 245.393 150.99 244.487 151.047 243.164L151.203 239.547H156.914ZM160.812 242.461H163.008C163.966 242.471 164.724 242.721 165.281 243.211C165.839 243.701 166.117 244.365 166.117 245.203C166.117 246.047 165.831 246.724 165.258 247.234C164.685 247.745 163.914 248 162.945 248H159.367V239.547H160.812V242.461ZM169.133 248H167.68V239.547H169.133V248ZM160.812 243.641V246.82H162.961C163.503 246.82 163.922 246.682 164.219 246.406C164.516 246.125 164.664 245.742 164.664 245.258C164.664 244.789 164.518 244.406 164.227 244.109C163.94 243.807 163.536 243.651 163.016 243.641H160.812Z" fill="#333333"/>
<rect x="81.5" y="218.5" width="106" height="49" rx="9.5" stroke="white"/>
<rect x="57.5" y="291.5" width="130" height="49" rx="9.5" fill="white"/>
<circle cx="80" cy="316" r="6" fill="#9633D8"/>
<path d="M100.367 315.891H98.9844V321H97.4844V309.625H98.9844V314.641H100.156L104.133 309.625H106L101.656 315.141L106.32 321H104.484L100.367 315.891ZM107.602 321V312.547H110.898C112.023 312.547 112.885 312.745 113.484 313.141C114.089 313.531 114.391 314.107 114.391 314.867C114.391 315.258 114.273 315.612 114.039 315.93C113.805 316.242 113.458 316.482 113 316.648C113.51 316.768 113.919 317.003 114.227 317.352C114.539 317.701 114.695 318.117 114.695 318.602C114.695 319.378 114.409 319.971 113.836 320.383C113.268 320.794 112.464 321 111.422 321H107.602ZM109.047 317.289V319.836H111.438C112.042 319.836 112.492 319.724 112.789 319.5C113.091 319.276 113.242 318.961 113.242 318.555C113.242 317.711 112.622 317.289 111.383 317.289H109.047ZM109.047 316.133H110.914C112.268 316.133 112.945 315.737 112.945 314.945C112.945 314.154 112.305 313.745 111.023 313.719H109.047V316.133ZM121.828 321C121.745 320.833 121.677 320.536 121.625 320.109C120.953 320.807 120.151 321.156 119.219 321.156C118.385 321.156 117.701 320.922 117.164 320.453C116.633 319.979 116.367 319.38 116.367 318.656C116.367 317.776 116.701 317.094 117.367 316.609C118.039 316.12 118.982 315.875 120.195 315.875H121.602V315.211C121.602 314.706 121.451 314.305 121.148 314.008C120.846 313.706 120.401 313.555 119.812 313.555C119.297 313.555 118.865 313.685 118.516 313.945C118.167 314.206 117.992 314.521 117.992 314.891H116.539C116.539 314.469 116.688 314.062 116.984 313.672C117.286 313.276 117.693 312.964 118.203 312.734C118.719 312.505 119.284 312.391 119.898 312.391C120.872 312.391 121.635 312.635 122.188 313.125C122.74 313.609 123.026 314.279 123.047 315.133V319.023C123.047 319.799 123.146 320.417 123.344 320.875V321H121.828ZM119.43 319.898C119.883 319.898 120.312 319.781 120.719 319.547C121.125 319.312 121.419 319.008 121.602 318.633V316.898H120.469C118.698 316.898 117.812 317.417 117.812 318.453C117.812 318.906 117.964 319.26 118.266 319.516C118.568 319.771 118.956 319.898 119.43 319.898ZM132.453 316.867C132.453 318.154 132.159 319.19 131.57 319.977C130.982 320.763 130.185 321.156 129.18 321.156C128.154 321.156 127.346 320.831 126.758 320.18V324.25H125.312V312.547H126.633L126.703 313.484C127.292 312.755 128.109 312.391 129.156 312.391C130.172 312.391 130.974 312.773 131.562 313.539C132.156 314.305 132.453 315.37 132.453 316.734V316.867ZM131.008 316.703C131.008 315.75 130.805 314.997 130.398 314.445C129.992 313.893 129.435 313.617 128.727 313.617C127.852 313.617 127.195 314.005 126.758 314.781V318.82C127.19 319.591 127.852 319.977 128.742 319.977C129.435 319.977 129.984 319.703 130.391 319.156C130.802 318.604 131.008 317.786 131.008 316.703ZM139.953 313.719H137.117V321H135.672V313.719H132.891V312.547H139.953V313.719ZM146.828 312.547H148.273V321H146.828V314.836L142.93 321H141.484V312.547H142.93V318.719L146.828 312.547ZM157.734 316.867C157.734 318.154 157.44 319.19 156.852 319.977C156.263 320.763 155.466 321.156 154.461 321.156C153.435 321.156 152.628 320.831 152.039 320.18V324.25H150.594V312.547H151.914L151.984 313.484C152.573 312.755 153.391 312.391 154.438 312.391C155.453 312.391 156.255 312.773 156.844 313.539C157.438 314.305 157.734 315.37 157.734 316.734V316.867ZM156.289 316.703C156.289 315.75 156.086 314.997 155.68 314.445C155.273 313.893 154.716 313.617 154.008 313.617C153.133 313.617 152.477 314.005 152.039 314.781V318.82C152.471 319.591 153.133 319.977 154.023 319.977C154.716 319.977 155.266 319.703 155.672 319.156C156.083 318.604 156.289 317.786 156.289 316.703ZM161.156 315.461H163.352C164.31 315.471 165.068 315.721 165.625 316.211C166.182 316.701 166.461 317.365 166.461 318.203C166.461 319.047 166.174 319.724 165.602 320.234C165.029 320.745 164.258 321 163.289 321H159.711V312.547H161.156V315.461ZM169.477 321H168.023V312.547H169.477V321ZM161.156 316.641V319.82H163.305C163.846 319.82 164.266 319.682 164.562 319.406C164.859 319.125 165.008 318.742 165.008 318.258C165.008 317.789 164.862 317.406 164.57 317.109C164.284 316.807 163.88 316.651 163.359 316.641H161.156Z" fill="#333333"/>
<rect x="57.5" y="291.5" width="130" height="49" rx="9.5" stroke="white"/>
<rect x="320.5" y="145.5" width="178" height="49" rx="9.5" fill="white"/>
<circle cx="343" cy="170" r="6" fill="#3396D8"/>
<path d="M369.219 169.68C369.219 170.794 369.031 171.768 368.656 172.602C368.281 173.43 367.75 174.062 367.062 174.5C366.375 174.938 365.573 175.156 364.656 175.156C363.76 175.156 362.966 174.938 362.273 174.5C361.581 174.057 361.042 173.43 360.656 172.617C360.276 171.799 360.081 170.854 360.07 169.781V168.961C360.07 167.867 360.26 166.901 360.641 166.062C361.021 165.224 361.557 164.583 362.25 164.141C362.948 163.693 363.745 163.469 364.641 163.469C365.552 163.469 366.354 163.69 367.047 164.133C367.745 164.57 368.281 165.208 368.656 166.047C369.031 166.88 369.219 167.852 369.219 168.961V169.68ZM367.727 168.945C367.727 167.596 367.456 166.562 366.914 165.844C366.372 165.12 365.615 164.758 364.641 164.758C363.693 164.758 362.945 165.12 362.398 165.844C361.857 166.562 361.578 167.562 361.562 168.844V169.68C361.562 170.987 361.836 172.016 362.383 172.766C362.935 173.51 363.693 173.883 364.656 173.883C365.625 173.883 366.375 173.531 366.906 172.828C367.438 172.12 367.711 171.107 367.727 169.789V168.945ZM377.523 167.719H374.688V175H373.242V167.719H370.461V166.547H377.523V167.719ZM387.547 168.859C387.547 168.464 387.396 168.151 387.094 167.922C386.792 167.688 386.378 167.57 385.852 167.57C385.341 167.57 384.914 167.703 384.57 167.969C384.232 168.234 384.062 168.547 384.062 168.906H382.625C382.625 168.172 382.932 167.57 383.547 167.102C384.161 166.633 384.93 166.398 385.852 166.398C386.841 166.398 387.612 166.612 388.164 167.039C388.716 167.461 388.992 168.065 388.992 168.852C388.992 169.232 388.878 169.581 388.648 169.898C388.419 170.216 388.094 170.469 387.672 170.656C388.656 170.99 389.148 171.646 389.148 172.625C389.148 173.401 388.849 174.016 388.25 174.469C387.651 174.922 386.852 175.148 385.852 175.148C384.878 175.148 384.073 174.911 383.438 174.438C382.807 173.958 382.492 173.312 382.492 172.5H383.93C383.93 172.911 384.112 173.266 384.477 173.562C384.846 173.854 385.305 174 385.852 174C386.404 174 386.849 173.872 387.188 173.617C387.526 173.362 387.695 173.031 387.695 172.625C387.695 172.151 387.552 171.812 387.266 171.609C386.984 171.401 386.544 171.297 385.945 171.297H384.5V170.078H386.07C387.055 170.052 387.547 169.646 387.547 168.859ZM396.242 175C396.159 174.833 396.091 174.536 396.039 174.109C395.367 174.807 394.565 175.156 393.633 175.156C392.799 175.156 392.115 174.922 391.578 174.453C391.047 173.979 390.781 173.38 390.781 172.656C390.781 171.776 391.115 171.094 391.781 170.609C392.453 170.12 393.396 169.875 394.609 169.875H396.016V169.211C396.016 168.706 395.865 168.305 395.562 168.008C395.26 167.706 394.815 167.555 394.227 167.555C393.711 167.555 393.279 167.685 392.93 167.945C392.581 168.206 392.406 168.521 392.406 168.891H390.953C390.953 168.469 391.102 168.062 391.398 167.672C391.701 167.276 392.107 166.964 392.617 166.734C393.133 166.505 393.698 166.391 394.312 166.391C395.286 166.391 396.049 166.635 396.602 167.125C397.154 167.609 397.44 168.279 397.461 169.133V173.023C397.461 173.799 397.56 174.417 397.758 174.875V175H396.242ZM393.844 173.898C394.297 173.898 394.727 173.781 395.133 173.547C395.539 173.312 395.833 173.008 396.016 172.633V170.898H394.883C393.112 170.898 392.227 171.417 392.227 172.453C392.227 172.906 392.378 173.26 392.68 173.516C392.982 173.771 393.37 173.898 393.844 173.898ZM403.117 173.977C403.633 173.977 404.083 173.82 404.469 173.508C404.854 173.195 405.068 172.805 405.109 172.336H406.477C406.451 172.82 406.284 173.281 405.977 173.719C405.669 174.156 405.258 174.505 404.742 174.766C404.232 175.026 403.69 175.156 403.117 175.156C401.966 175.156 401.049 174.773 400.367 174.008C399.69 173.237 399.352 172.185 399.352 170.852V170.609C399.352 169.786 399.503 169.055 399.805 168.414C400.107 167.773 400.539 167.276 401.102 166.922C401.669 166.568 402.339 166.391 403.109 166.391C404.057 166.391 404.844 166.674 405.469 167.242C406.099 167.81 406.435 168.547 406.477 169.453H405.109C405.068 168.906 404.859 168.458 404.484 168.109C404.115 167.755 403.656 167.578 403.109 167.578C402.375 167.578 401.805 167.844 401.398 168.375C400.997 168.901 400.797 169.664 400.797 170.664V170.938C400.797 171.911 400.997 172.661 401.398 173.188C401.799 173.714 402.372 173.977 403.117 173.977ZM414.383 167.719H411.547V175H410.102V167.719H407.32V166.547H414.383V167.719ZM422.93 170.867C422.93 172.154 422.635 173.19 422.047 173.977C421.458 174.763 420.661 175.156 419.656 175.156C418.63 175.156 417.823 174.831 417.234 174.18V178.25H415.789V166.547H417.109L417.18 167.484C417.768 166.755 418.586 166.391 419.633 166.391C420.648 166.391 421.451 166.773 422.039 167.539C422.633 168.305 422.93 169.37 422.93 170.734V170.867ZM421.484 170.703C421.484 169.75 421.281 168.997 420.875 168.445C420.469 167.893 419.911 167.617 419.203 167.617C418.328 167.617 417.672 168.005 417.234 168.781V172.82C417.667 173.591 418.328 173.977 419.219 173.977C419.911 173.977 420.461 173.703 420.867 173.156C421.279 172.604 421.484 171.786 421.484 170.703ZM424.391 170.695C424.391 169.867 424.552 169.122 424.875 168.461C425.203 167.799 425.656 167.289 426.234 166.93C426.818 166.57 427.482 166.391 428.227 166.391C429.378 166.391 430.307 166.789 431.016 167.586C431.729 168.383 432.086 169.443 432.086 170.766V170.867C432.086 171.69 431.927 172.43 431.609 173.086C431.297 173.737 430.846 174.245 430.258 174.609C429.674 174.974 429.003 175.156 428.242 175.156C427.096 175.156 426.167 174.758 425.453 173.961C424.745 173.164 424.391 172.109 424.391 170.797V170.695ZM425.844 170.867C425.844 171.805 426.06 172.557 426.492 173.125C426.93 173.693 427.513 173.977 428.242 173.977C428.977 173.977 429.56 173.69 429.992 173.117C430.424 172.539 430.641 171.732 430.641 170.695C430.641 169.768 430.419 169.018 429.977 168.445C429.539 167.867 428.956 167.578 428.227 167.578C427.513 167.578 426.938 167.862 426.5 168.43C426.062 168.997 425.844 169.81 425.844 170.867ZM439.367 166.547H440.812V175H439.367V168.836L435.469 175H434.023V166.547H435.469V172.719L439.367 166.547ZM439.758 163.469C439.758 164.099 439.542 164.607 439.109 164.992C438.682 165.372 438.12 165.562 437.422 165.562C436.724 165.562 436.159 165.37 435.727 164.984C435.294 164.599 435.078 164.094 435.078 163.469H436.258C436.258 163.833 436.357 164.12 436.555 164.328C436.753 164.531 437.042 164.633 437.422 164.633C437.786 164.633 438.07 164.531 438.273 164.328C438.482 164.125 438.586 163.839 438.586 163.469H439.758ZM444.625 166.547V173.82H447.719V166.547H449.164V173.82H452.25V166.547H453.703V173.82H454.891L454.75 177.508H453.453V175H443.172V166.547H444.625ZM461.836 166.547H463.281V175H461.836V168.836L457.938 175H456.492V166.547H457.938V172.719L461.836 166.547ZM468.234 171.398H467.18V175H465.727V166.547H467.18V170.125H468.125L470.969 166.547H472.719L469.375 170.609L473 175H471.164L468.234 171.398ZM479.461 175C479.378 174.833 479.31 174.536 479.258 174.109C478.586 174.807 477.784 175.156 476.852 175.156C476.018 175.156 475.333 174.922 474.797 174.453C474.266 173.979 474 173.38 474 172.656C474 171.776 474.333 171.094 475 170.609C475.672 170.12 476.615 169.875 477.828 169.875H479.234V169.211C479.234 168.706 479.083 168.305 478.781 168.008C478.479 167.706 478.034 167.555 477.445 167.555C476.93 167.555 476.497 167.685 476.148 167.945C475.799 168.206 475.625 168.521 475.625 168.891H474.172C474.172 168.469 474.32 168.062 474.617 167.672C474.919 167.276 475.326 166.964 475.836 166.734C476.352 166.505 476.917 166.391 477.531 166.391C478.505 166.391 479.268 166.635 479.82 167.125C480.372 167.609 480.659 168.279 480.68 169.133V173.023C480.68 173.799 480.779 174.417 480.977 174.875V175H479.461ZM477.062 173.898C477.516 173.898 477.945 173.781 478.352 173.547C478.758 173.312 479.052 173.008 479.234 172.633V170.898H478.102C476.331 170.898 475.445 171.417 475.445 172.453C475.445 172.906 475.596 173.26 475.898 173.516C476.201 173.771 476.589 173.898 477.062 173.898Z" fill="#333333"/>
<rect x="320.5" y="145.5" width="178" height="49" rx="9.5" stroke="white"/>
<rect x="320.5" y="218.5" width="97" height="49" rx="9.5" fill="white"/>
<circle cx="343" cy="243" r="6" fill="#C52FC3"/>
<path d="M370.688 250.789H369.195V248H361.031V250.797H359.531L359.523 246.773H360.453C360.943 246.221 361.331 245.482 361.617 244.555C361.909 243.622 362.091 242.602 362.164 241.492L362.414 236.625H369.219V246.773H370.703L370.688 250.789ZM362.164 246.773H367.711V237.859H363.859L363.695 241.203C363.628 242.51 363.453 243.625 363.172 244.547C362.896 245.469 362.56 246.211 362.164 246.773ZM371.875 243.695C371.875 242.867 372.036 242.122 372.359 241.461C372.688 240.799 373.141 240.289 373.719 239.93C374.302 239.57 374.966 239.391 375.711 239.391C376.862 239.391 377.792 239.789 378.5 240.586C379.214 241.383 379.57 242.443 379.57 243.766V243.867C379.57 244.69 379.411 245.43 379.094 246.086C378.781 246.737 378.331 247.245 377.742 247.609C377.159 247.974 376.487 248.156 375.727 248.156C374.581 248.156 373.651 247.758 372.938 246.961C372.229 246.164 371.875 245.109 371.875 243.797V243.695ZM373.328 243.867C373.328 244.805 373.544 245.557 373.977 246.125C374.414 246.693 374.997 246.977 375.727 246.977C376.461 246.977 377.044 246.69 377.477 246.117C377.909 245.539 378.125 244.732 378.125 243.695C378.125 242.768 377.904 242.018 377.461 241.445C377.023 240.867 376.44 240.578 375.711 240.578C374.997 240.578 374.422 240.862 373.984 241.43C373.547 241.997 373.328 242.81 373.328 243.867ZM386.25 246.086L389.125 239.547H390.93V248H389.484V241.852L386.75 248H385.75L382.961 241.719V248H381.516V239.547H383.391L386.25 246.086ZM398.477 248C398.393 247.833 398.326 247.536 398.273 247.109C397.602 247.807 396.799 248.156 395.867 248.156C395.034 248.156 394.349 247.922 393.812 247.453C393.281 246.979 393.016 246.38 393.016 245.656C393.016 244.776 393.349 244.094 394.016 243.609C394.688 243.12 395.63 242.875 396.844 242.875H398.25V242.211C398.25 241.706 398.099 241.305 397.797 241.008C397.495 240.706 397.049 240.555 396.461 240.555C395.945 240.555 395.513 240.685 395.164 240.945C394.815 241.206 394.641 241.521 394.641 241.891H393.188C393.188 241.469 393.336 241.062 393.633 240.672C393.935 240.276 394.341 239.964 394.852 239.734C395.367 239.505 395.932 239.391 396.547 239.391C397.521 239.391 398.284 239.635 398.836 240.125C399.388 240.609 399.674 241.279 399.695 242.133V246.023C399.695 246.799 399.794 247.417 399.992 247.875V248H398.477ZM396.078 246.898C396.531 246.898 396.961 246.781 397.367 246.547C397.773 246.312 398.068 246.008 398.25 245.633V243.898H397.117C395.346 243.898 394.461 244.417 394.461 245.453C394.461 245.906 394.612 246.26 394.914 246.516C395.216 246.771 395.604 246.898 396.078 246.898Z" fill="#333333"/>
<rect x="320.5" y="218.5" width="97" height="49" rx="9.5" stroke="white"/>
<rect x="320.5" y="291.5" width="129" height="49" rx="9.5" fill="white"/>
<circle cx="343" cy="316" r="6" fill="#A41F57"/>
<path d="M363.578 315.891H362.195V321H360.695V309.625H362.195V314.641H363.367L367.344 309.625H369.211L364.867 315.141L369.531 321H367.695L363.578 315.891ZM370.078 316.695C370.078 315.867 370.24 315.122 370.562 314.461C370.891 313.799 371.344 313.289 371.922 312.93C372.505 312.57 373.169 312.391 373.914 312.391C375.065 312.391 375.995 312.789 376.703 313.586C377.417 314.383 377.773 315.443 377.773 316.766V316.867C377.773 317.69 377.615 318.43 377.297 319.086C376.984 319.737 376.534 320.245 375.945 320.609C375.362 320.974 374.69 321.156 373.93 321.156C372.784 321.156 371.854 320.758 371.141 319.961C370.432 319.164 370.078 318.109 370.078 316.797V316.695ZM371.531 316.867C371.531 317.805 371.747 318.557 372.18 319.125C372.617 319.693 373.201 319.977 373.93 319.977C374.664 319.977 375.247 319.69 375.68 319.117C376.112 318.539 376.328 317.732 376.328 316.695C376.328 315.768 376.107 315.018 375.664 314.445C375.227 313.867 374.643 313.578 373.914 313.578C373.201 313.578 372.625 313.862 372.188 314.43C371.75 314.997 371.531 315.81 371.531 316.867ZM385.695 313.719H382.859V321H381.414V313.719H378.633V312.547H385.695V313.719ZM393.383 313.719H390.547V321H389.102V313.719H386.32V312.547H393.383V313.719ZM397.672 321.156C396.526 321.156 395.594 320.781 394.875 320.031C394.156 319.276 393.797 318.268 393.797 317.008V316.742C393.797 315.904 393.956 315.156 394.273 314.5C394.596 313.839 395.044 313.323 395.617 312.953C396.195 312.578 396.82 312.391 397.492 312.391C398.591 312.391 399.445 312.753 400.055 313.477C400.664 314.201 400.969 315.237 400.969 316.586V317.188H395.242C395.263 318.021 395.505 318.695 395.969 319.211C396.438 319.721 397.031 319.977 397.75 319.977C398.26 319.977 398.693 319.872 399.047 319.664C399.401 319.456 399.711 319.18 399.977 318.836L400.859 319.523C400.151 320.612 399.089 321.156 397.672 321.156ZM397.492 313.578C396.909 313.578 396.419 313.792 396.023 314.219C395.628 314.641 395.383 315.234 395.289 316H399.523V315.891C399.482 315.156 399.284 314.589 398.93 314.188C398.576 313.781 398.096 313.578 397.492 313.578ZM402.578 319.82L403.078 319.203C403.641 318.474 403.961 317.38 404.039 315.922L404.172 312.547H409.617V319.82H410.703V323.484H409.258V321H403.359V323.484H401.914L401.922 319.82H402.578ZM404.289 319.82H408.172V313.883H405.57L405.484 315.898C405.396 317.581 404.997 318.888 404.289 319.82ZM419.047 317.328H418.031V321H416.586V317.328H415.57L413.203 321H411.375L414.398 316.625L411.664 312.547H413.414L415.594 316.047H416.586V312.547H418.031V316.047H419.016L421.211 312.547H422.961L420.219 316.633L423.242 321H421.414L419.047 317.328ZM430.023 312.547H431.469V321H430.023V314.836L426.125 321H424.68V312.547H426.125V318.719L430.023 312.547Z" fill="#333333"/>
<rect x="320.5" y="291.5" width="129" height="49" rx="9.5" stroke="white"/>
<path d="M197 34.9193C197 29.8357 199.963 25.2185 204.585 23.1009L249.488 2.52554C252.982 0.924616 257.005 0.951653 260.477 2.59939L303.574 23.0519C308.109 25.2044 311 29.7761 311 34.7965V98H197V34.9193Z" fill="#F3F3F3"/>
<mask id="mask0" mask-type="alpha" maskUnits="userSpaceOnUse" x="197" y="1" width="114" height="97">
<path d="M197 34.9193C197 29.8357 199.963 25.2185 204.585 23.1009L249.488 2.52554C252.982 0.924616 257.005 0.951653 260.477 2.59939L303.574 23.0519C308.109 25.2044 311 29.7761 311 34.7965V85C311 92.1797 305.18 98 298 98H210C202.82 98 197 92.1797 197 85V34.9193Z" fill="white"/>
</mask>
<g mask="url(#mask0)">
<path d="M197 43.9193C197 38.8357 199.963 34.2185 204.585 32.1009L249.488 11.5255C252.982 9.92462 257.005 9.95165 260.477 11.5994L303.574 32.0519C308.109 34.2044 311 38.7761 311 43.7965V94C311 101.18 305.18 107 298 107H210C202.82 107 197 101.18 197 94V43.9193Z" fill="white"/>
<rect x="245" y="26" width="19" height="16" fill="#F3F3F3"/>
</g>
<path d="M225.852 67.5234H220.75V77H218.406V65.625H225.852V67.5234ZM235.703 65.625V77H233.352V67.5234H230.32L230.133 71.5391C230.055 72.8932 229.883 73.9609 229.617 74.7422C229.352 75.5182 228.964 76.0885 228.453 76.4531C227.943 76.8125 227.245 76.9948 226.359 77H225.75V75.1172L226.141 75.0781C226.729 75 227.148 74.6615 227.398 74.0625C227.654 73.4583 227.815 72.3854 227.883 70.8438L228.078 65.625H235.703ZM244.312 74.6562H240.203L239.422 77H236.93L241.164 65.625H243.336L247.594 77H245.102L244.312 74.6562ZM240.836 72.7578H243.68L242.25 68.5L240.836 72.7578ZM248.656 77V65.625H252.641C254.021 65.625 255.068 65.8906 255.781 66.4219C256.495 66.9479 256.852 67.7214 256.852 68.7422C256.852 69.2995 256.708 69.7917 256.422 70.2188C256.135 70.6406 255.737 70.9505 255.227 71.1484C255.81 71.2943 256.268 71.5885 256.602 72.0312C256.94 72.474 257.109 73.0156 257.109 73.6562C257.109 74.75 256.76 75.5781 256.062 76.1406C255.365 76.7031 254.37 76.9896 253.078 77H248.656ZM251 72.0469V75.1172H253.008C253.56 75.1172 253.99 74.987 254.297 74.7266C254.609 74.4609 254.766 74.0964 254.766 73.6328C254.766 72.5911 254.227 72.0625 253.148 72.0469H251ZM251 70.3906H252.734C253.917 70.3698 254.508 69.8984 254.508 68.9766C254.508 68.4609 254.357 68.0911 254.055 67.8672C253.758 67.638 253.286 67.5234 252.641 67.5234H251V70.3906ZM268.133 77H265.789V72.125H261.219V77H258.875V65.625H261.219V70.2344H265.789V65.625H268.133V77ZM276.75 74.6562H272.641L271.859 77H269.367L273.602 65.625H275.773L280.031 77H277.539L276.75 74.6562ZM273.273 72.7578H276.117L274.688 68.5L273.273 72.7578ZM286.352 77V72.8984H284.445L282.391 77H279.859L282.289 72.1484C281.117 71.5026 280.531 70.5 280.531 69.1406C280.531 68.026 280.896 67.1641 281.625 66.5547C282.354 65.9453 283.372 65.6354 284.68 65.625H288.703V77H286.352ZM282.875 69.3125C282.875 69.9479 283.029 70.4089 283.336 70.6953C283.648 70.9818 284.115 71.125 284.734 71.125H286.352V67.5234H284.734C283.495 67.5234 282.875 68.1198 282.875 69.3125Z" fill="#333333"/>
<rect x="192" y="89" width="123" height="9" fill="#F3F3F3"/>
<path opacity="0.5" d="M150 408.319L145 405.432V411.206L150 408.319ZM150 441.702L145 438.815V444.589L150 441.702ZM150 472L145 469.113V474.887L150 472ZM120.476 342V394.319H121.476V342H120.476ZM134.976 408.819H145.5V407.819H134.976V408.819ZM109.75 342V427.702H110.75V342H109.75ZM124.25 442.202H145.5V441.202H124.25V442.202ZM96.5 342V458H97.5V342H96.5ZM111 472.5H145.5V471.5H111V472.5ZM96.5 458C96.5 466.008 102.992 472.5 111 472.5V471.5C103.544 471.5 97.5 465.456 97.5 458H96.5ZM109.75 427.702C109.75 435.71 116.242 442.202 124.25 442.202V441.202C116.794 441.202 110.75 435.158 110.75 427.702H109.75ZM120.476 394.319C120.476 402.327 126.968 408.819 134.976 408.819V407.819C127.52 407.819 121.476 401.775 121.476 394.319H120.476Z" fill="white"/>
</svg>
