<svg width="38" height="38" viewBox="0 0 38 38" fill="none" xmlns="http://www.w3.org/2000/svg">
<g clip-path="url(#clip0)">
<path d="M37.7065 33.7706L37.1644 33.2284C36.9471 33.0109 36.5946 33.011 36.3773 33.2283C36.1598 33.4457 36.1598 33.7982 36.3772 34.0155L36.8406 34.4789L34.4791 36.8405L30.4643 32.8258L32.8258 30.4642L34.6988 32.3372C34.9163 32.5545 35.2687 32.5545 35.4861 32.3372C35.7035 32.1197 35.7035 31.7673 35.4861 31.5499L33.2205 29.2844C33.2201 29.284 33.2198 29.2837 33.2195 29.2833L31.6451 27.7089C31.6446 27.7085 31.6442 27.7082 31.6438 27.7077L30.2543 26.3183C30.0651 26.1289 29.8134 26.0247 29.5457 26.0247C29.278 26.0247 29.0264 26.1289 28.8373 26.3181L28.7585 26.3969L26.7667 24.4046C28.1904 22.6259 29.2186 20.518 29.7176 18.2149H33.6397C33.9472 18.2149 34.1964 17.9658 34.1964 17.6583C34.1964 17.3508 33.9472 17.1016 33.6397 17.1016H29.915C29.964 16.7476 30.0007 16.3897 30.0245 16.0284H36.293C36.6005 16.0284 36.8496 15.7792 36.8496 15.4717C36.8496 15.1642 36.6005 14.9151 36.293 14.9151H30.0574C30.0547 14.5549 30.0398 14.197 30.0125 13.8417H33.6398C33.9473 13.8417 34.1964 13.5926 34.1964 13.2851C34.1964 12.9776 33.9473 12.7284 33.6398 12.7284H29.8854C29.4965 10.1695 28.4564 7.77575 26.8198 5.70816C26.629 5.46718 26.279 5.4265 26.0379 5.61717C25.7969 5.80799 25.7561 6.15808 25.9469 6.39914C27.9085 8.87723 28.9453 11.8615 28.9453 15.0293C28.9453 22.7026 22.7026 28.9453 15.0293 28.9453C7.35597 28.9453 1.11328 22.7026 1.11328 15.0293C1.11328 7.35597 7.35597 1.11328 15.0293 1.11328C18.4981 1.11328 21.8211 2.39712 24.386 4.72825C24.6134 4.93518 24.9656 4.91825 25.1723 4.69077C25.379 4.46329 25.3623 4.1112 25.1347 3.90443C22.3646 1.38663 18.7757 0 15.0293 0C6.74211 0 0 6.74211 0 15.0293C0 22.3459 5.25573 28.457 12.1899 29.7884V33.5438C12.1899 33.8512 12.4391 34.1004 12.7466 34.1004C13.054 34.1004 13.3032 33.8512 13.3032 33.5438V29.9589C13.6574 29.9996 14.0153 30.0281 14.3765 30.0436V36.1615C14.3765 36.4689 14.6257 36.7181 14.9332 36.7181C15.2407 36.7181 15.4898 36.4689 15.4898 36.1615V30.0509C15.8508 30.04 16.2089 30.017 16.5632 29.9809V33.5438C16.5632 33.8512 16.8123 34.1004 17.1198 34.1004C17.4273 34.1004 17.6765 33.8512 17.6765 33.5438V29.8251C20.1897 29.3767 22.4881 28.3008 24.4047 26.7667L26.397 28.7586L26.3183 28.8373C26.129 29.0265 26.0247 29.2781 26.0247 29.5458C26.0247 29.8135 26.129 30.0651 26.3182 30.2543L27.7082 31.6442C27.7085 31.6445 27.7087 31.6448 27.709 31.6451L29.2834 33.2195C29.2837 33.2198 29.2841 33.2201 29.2844 33.2205L33.7704 37.7064C33.9597 37.8958 34.2113 38 34.479 38C34.7467 38 34.9982 37.8958 35.1876 37.7065L37.7065 35.1876C37.8958 34.9982 38 34.7467 38 34.479C38 34.2113 37.8958 33.9597 37.7065 33.7706ZM26.0375 25.2498L27.9712 27.184L27.184 27.9711L25.2499 26.0374C25.522 25.7847 25.7847 25.522 26.0375 25.2498ZM29.677 32.0386L28.8898 31.2514L31.2514 28.8899L32.0385 29.6771L29.677 32.0386ZM29.5458 27.1842L30.4642 28.1026L28.1026 30.4641L27.1843 29.5457L29.5458 27.1842Z" fill="#32BFD4"/>
<path d="M7.27757 25.2189C9.50703 26.8947 12.1853 27.7983 15.0293 27.832C22.0887 27.832 27.832 22.0888 27.832 15.0293C27.832 7.96983 22.0887 2.22656 15.0293 2.22656C11.6224 2.22656 8.41802 3.56005 6.00658 5.98136C3.6053 8.39236 2.26291 11.6036 2.22654 15.0234C2.19314 18.1716 3.33708 21.1977 5.44756 23.544C5.65315 23.7726 6.00509 23.7913 6.23369 23.5857C6.46228 23.3801 6.48091 23.0281 6.27532 22.7996C4.35187 20.6612 3.30932 17.9037 3.33982 15.0352C3.373 11.9074 4.60021 8.97104 6.79537 6.76704C8.99641 4.55696 11.9206 3.33984 15.0293 3.33984C21.4749 3.33984 26.7187 8.5837 26.7187 15.0293C26.7187 21.4749 21.4749 26.7188 15.0359 26.7188C12.4368 26.688 9.98537 25.8615 7.94643 24.3291C7.70084 24.1442 7.35172 24.1938 7.16706 24.4396C6.98226 24.6853 7.03176 25.0343 7.27757 25.2189Z" fill="#32BFD4"/>
<path d="M17.1444 5.08398H13.285C12.8144 5.08398 12.4315 5.46688 12.4315 5.9375V7.9043H8.83192C8.3613 7.9043 7.97841 8.28719 7.97841 8.75781V14.7324H7.2334C6.92591 14.7324 6.67676 14.9816 6.67676 15.2891C6.67676 15.5966 6.92591 15.8457 7.2334 15.8457H23.1961C23.5036 15.8457 23.7527 15.5966 23.7527 15.2891C23.7527 14.9816 23.5036 14.7324 23.1961 14.7324H22.4511V11.5781C22.4511 11.1075 22.0682 10.7246 21.5975 10.7246H17.9979V5.9375C17.9979 5.46688 17.615 5.08398 17.1444 5.08398ZM9.09169 9.01758H12.4315V14.7324H9.09169V9.01758ZM13.5448 6.19727H16.8847V14.7324H13.5448V6.19727ZM21.3378 11.8379V14.7324H17.9979V11.8379H21.3378Z" fill="#32BFD4"/>
<path d="M21.4493 20.5625H18.8287L17.6383 17.5193C17.5541 17.3043 17.3479 17.1651 17.1149 17.1654C16.884 17.1675 16.6782 17.312 16.5979 17.5286L14.9711 21.9156L13.834 18.6928C13.7613 18.4864 13.5744 18.3418 13.3564 18.3233C13.1386 18.3044 12.9298 18.4156 12.823 18.6065L11.7311 20.5624H9.11743C8.80994 20.5624 8.56079 20.8116 8.56079 21.119C8.56079 21.4265 8.80994 21.6757 9.11743 21.6757H12.0578C12.2596 21.6757 12.4455 21.5665 12.5439 21.3904L13.1943 20.2255L14.4331 23.7368C14.5111 23.9579 14.7191 24.1063 14.9535 24.1083H14.9581C15.1906 24.1083 15.3989 23.9635 15.4799 23.7451L17.1337 19.2855L17.9303 21.3219C18.0138 21.5353 18.2195 21.6758 18.4487 21.6758H21.4493C21.7568 21.6758 22.006 21.4266 22.006 21.1191C22.006 20.8116 21.7568 20.5625 21.4493 20.5625Z" fill="#32BFD4"/>
</g>
<defs>
<clipPath id="clip0">
<rect width="38" height="38" fill="white"/>
</clipPath>
</defs>
</svg>
