<svg width="50" height="50" viewBox="0 0 50 50" fill="none" xmlns="http://www.w3.org/2000/svg">
<path d="M28.125 28.9062C24.2484 28.9062 21.0938 32.0609 21.0938 35.9375C21.0938 39.8141 24.2484 42.9688 28.125 42.9688C32.0016 42.9688 35.1562 39.8141 35.1562 35.9375C35.1562 32.0609 32.0016 28.9062 28.125 28.9062ZM26.8836 38.2812C26.7508 37.8047 26.6516 37.2812 26.6008 36.7188H29.6484C29.5977 37.2812 29.4984 37.8047 29.3656 38.2812H26.8836ZM28.7648 39.8438C28.5461 40.2844 28.3219 40.65 28.1258 40.9336C27.9297 40.65 27.7047 40.2844 27.4859 39.8438H28.7648ZM26.6008 35.1562C26.6516 34.5938 26.7508 34.0703 26.8836 33.5938H29.3656C29.4984 34.0703 29.5977 34.5938 29.6484 35.1562H26.6008ZM27.4859 32.0312C27.7047 31.5906 27.9289 31.225 28.125 30.9414C28.3211 31.225 28.5461 31.5906 28.7641 32.0312H27.4859ZM25.7648 32.0312H24.3047C24.8883 31.4602 25.6 31.0211 26.3906 30.7555C26.1781 31.1234 25.9617 31.5477 25.7648 32.0312ZM25.2711 33.5938C25.1578 34.0805 25.0711 34.6 25.0297 35.1562H22.7188C22.7984 34.6047 22.9594 34.0797 23.1914 33.5938H25.2711ZM25.0297 36.7188C25.0711 37.275 25.1578 37.7945 25.2711 38.2812H23.1914C22.9594 37.7953 22.7984 37.2703 22.7188 36.7188H25.0297ZM25.7648 39.8438C25.9617 40.3273 26.1781 40.7516 26.3906 41.1195C25.5992 40.8539 24.8883 40.4148 24.3047 39.8438H25.7648ZM30.4852 39.8438H31.9453C31.3617 40.4148 30.65 40.8539 29.8594 41.1195C30.0719 40.7516 30.2883 40.3273 30.4852 39.8438ZM30.9789 38.2812C31.0922 37.7945 31.1789 37.275 31.2203 36.7188H33.5312C33.4516 37.2703 33.2906 37.7953 33.0586 38.2812H30.9789ZM31.2203 35.1562C31.1789 34.6 31.0922 34.0805 30.9789 33.5938H33.0586C33.2906 34.0797 33.4516 34.6047 33.5312 35.1562H31.2203ZM30.4852 32.0312C30.2883 31.5477 30.0719 31.1234 29.8594 30.7555C30.6508 31.0211 31.3617 31.4602 31.9453 32.0312H30.4852Z" fill="#7836DA"/>
<path d="M45.6359 41.4063L48.5008 38.5414L39.8438 37.0984V35.1563H46.875C48.1672 35.1563 49.2188 34.1047 49.2188 32.8125V3.125C49.2188 1.83281 48.1672 0.78125 46.875 0.78125H3.125C1.83281 0.78125 0.78125 1.83281 0.78125 3.125V32.8125C0.78125 34.1047 1.83281 35.1563 3.125 35.1563H16.4063V43.75C16.4063 45.0422 17.4578 46.0938 18.75 46.0938H38.1406L38.5414 48.5008L41.4063 45.6359L45.3125 49.5422L49.5422 45.3125L45.6359 41.4063ZM3.125 2.34375H46.875C47.3055 2.34375 47.6563 2.69453 47.6563 3.125V10.1563H2.34375V3.125C2.34375 2.69453 2.69453 2.34375 3.125 2.34375ZM3.125 33.5938C2.69453 33.5938 2.34375 33.243 2.34375 32.8125V11.7188H47.6563V32.8125C47.6563 33.243 47.3055 33.5938 46.875 33.5938H39.8438V28.125C39.8438 26.8328 38.7922 25.7813 37.5 25.7813H18.75C17.4578 25.7813 16.4063 26.8328 16.4063 28.125V33.5938H3.125ZM18.75 44.5313C18.3195 44.5313 17.9688 44.1805 17.9688 43.75V28.125C17.9688 27.6945 18.3195 27.3438 18.75 27.3438H37.5C37.9305 27.3438 38.2813 27.6945 38.2813 28.125V36.8383L36.55 36.55L37.8797 44.5313H18.75ZM41.4063 43.4266L39.5836 45.2492L38.45 38.45L45.2492 39.5836L43.4266 41.4063L47.3328 45.3125L45.3125 47.3328L41.4063 43.4266Z" fill="#7836DA"/>
<path d="M8.59375 3.90625H3.90625V8.59375H8.59375V3.90625ZM7.03125 7.03125H5.46875V5.46875H7.03125V7.03125Z" fill="#7836DA"/>
<path d="M14.8438 3.90625H10.1562V8.59375H14.8438V3.90625ZM13.2812 7.03125H11.7188V5.46875H13.2812V7.03125Z" fill="#7836DA"/>
<path d="M21.0938 3.90625H16.4062V8.59375H21.0938V3.90625ZM19.5312 7.03125H17.9688V5.46875H19.5312V7.03125Z" fill="#7836DA"/>
<path d="M46.0938 13.2812H25.7812V24.2188H46.0938V13.2812ZM44.5312 22.6562H27.3438V14.8438H44.5312V22.6562Z" fill="#7836DA"/>
<path d="M3.90625 13.2812H5.46875V14.8438H3.90625V13.2812Z" fill="#7836DA"/>
<path d="M7.03125 13.2812H24.2188V14.8438H7.03125V13.2812Z" fill="#7836DA"/>
<path d="M3.90625 16.4062H24.2188V17.9688H3.90625V16.4062Z" fill="#7836DA"/>
<path d="M7.03125 19.5312H8.59375V21.0938H7.03125V19.5312Z" fill="#7836DA"/>
<path d="M3.90625 19.5312H5.46875V21.0938H3.90625V19.5312Z" fill="#7836DA"/>
<path d="M10.1562 19.5312H24.2188V21.0938H10.1562V19.5312Z" fill="#7836DA"/>
<path d="M22.6562 22.6562H24.2188V24.2188H22.6562V22.6562Z" fill="#7836DA"/>
<path d="M3.90625 22.6562H21.0938V24.2188H3.90625V22.6562Z" fill="#7836DA"/>
<path d="M3.90625 32.0312H14.8438V25.7812H3.90625V32.0312ZM5.46875 27.3438H13.2812V30.4688H5.46875V27.3438Z" fill="#7836DA"/>
<path d="M19.5312 28.9062H21.0938V30.4688H19.5312V28.9062Z" fill="#7836DA"/>
<path d="M35.1562 28.9062H36.7188V30.4688H35.1562V28.9062Z" fill="#7836DA"/>
<path d="M19.5312 41.4062H21.0938V42.9688H19.5312V41.4062Z" fill="#7836DA"/>
</svg>
